<?xml version="1.0" encoding="UTF-8" standalone="no"?>
<!DOCTYPE svg PUBLIC "-//W3C//DTD SVG 1.1//EN"
 "http://www.w3.org/Graphics/SVG/1.1/DTD/svg11.dtd">
<!-- Generated by graphviz version 2.26.3 (20100126.1600)
 -->
<!-- Title: g Pages: 1 -->
<svg width="288pt" height="206pt"
 viewBox="0.00 0.00 288.00 206.07" xmlns="http://www.w3.org/2000/svg" xmlns:xlink="http://www.w3.org/1999/xlink">
<g id="graph1" class="graph" transform="scale(0.367985 0.367985) rotate(0) translate(4 556)">
<title>g</title>
<polygon fill="white" stroke="white" points="-4,5 -4,-556 779.64,-556 779.64,5 -4,5"/>
<!-- TX_IDLE -->
<g id="node1" class="node"><title>TX_IDLE</title>
<ellipse fill="none" stroke="black" cx="402.64" cy="-533" rx="53.9477" ry="18.3848"/>
<text text-anchor="middle" x="402.64" y="-529.4" font-family="Times Roman,serif" font-size="14.00">TX_IDLE</text>
</g>
<!-- WAIT_IFG -->
<g id="node2" class="node"><title>WAIT_IFG</title>
<ellipse fill="none" stroke="black" cx="201.64" cy="-423" rx="60.1041" ry="18.3848"/>
<text text-anchor="middle" x="201.64" y="-419.4" font-family="Times Roman,serif" font-size="14.00">WAIT_IFG</text>
</g>
<!-- TX_IDLE&#45;&gt;WAIT_IFG -->
<g id="edge4" class="edge"><title>TX_IDLE&#45;&gt;WAIT_IFG</title>
<path fill="none" stroke="black" d="M355.442,-523.946C331.934,-518.157 303.686,-509.202 280.64,-496 259.114,-483.669 238.656,-464.478 223.953,-448.868"/>
<polygon fill="black" stroke="black" points="226.154,-446.089 216.814,-441.086 220.995,-450.821 226.154,-446.089"/>
<text text-anchor="middle" x="334.64" y="-483.4" font-family="Times Roman,serif" font-size="14.00">msg from upper</text>
<text text-anchor="middle" x="334.64" y="-465.4" font-family="Times Roman,serif" font-size="14.00">no burst</text>
</g>
<!-- SEND_IFG -->
<g id="node3" class="node"><title>SEND_IFG</title>
<ellipse fill="none" stroke="black" cx="302.64" cy="-203" rx="62.2254" ry="18.3848"/>
<text text-anchor="middle" x="302.64" y="-199.4" font-family="Times Roman,serif" font-size="14.00">SEND_IFG</text>
</g>
<!-- TX_IDLE&#45;&gt;SEND_IFG -->
<g id="edge2" class="edge"><title>TX_IDLE&#45;&gt;SEND_IFG</title>
<path fill="none" stroke="black" d="M352.716,-525.932C317.84,-520.113 270.563,-510.447 230.64,-496 131.565,-460.149 75.1844,-476.145 20.64,-386 -48.1947,-272.237 66.2307,-318.651 222.64,-240 234.183,-234.196 246.813,-228.196 258.559,-222.76"/>
<polygon fill="black" stroke="black" points="260.126,-225.892 267.751,-218.536 257.203,-219.531 260.126,-225.892"/>
<text text-anchor="middle" x="74.64" y="-373.4" font-family="Times Roman,serif" font-size="14.00">msg from upper</text>
<text text-anchor="middle" x="74.64" y="-355.4" font-family="Times Roman,serif" font-size="14.00">in burst</text>
</g>
<!-- TRANSMITTING -->
<g id="node4" class="node"><title>TRANSMITTING</title>
<ellipse fill="none" stroke="black" cx="315.64" cy="-313" rx="87.1802" ry="18.3848"/>
<text text-anchor="middle" x="315.64" y="-309.4" font-family="Times Roman,serif" font-size="14.00">TRANSMITTING</text>
</g>
<!-- WAIT_IFG&#45;&gt;TRANSMITTING -->
<g id="edge6" class="edge"><title>WAIT_IFG&#45;&gt;TRANSMITTING</title>
<path fill="none" stroke="black" d="M186.69,-404.949C175.519,-389.152 164.149,-366.25 176.64,-350 184.501,-339.773 208.651,-331.775 234.665,-325.873"/>
<polygon fill="black" stroke="black" points="235.657,-329.239 244.696,-323.713 234.183,-322.396 235.657,-329.239"/>
<text text-anchor="middle" x="235.14" y="-364.4" font-family="Times Roman,serif" font-size="14.00">gap time elapsed</text>
</g>
<!-- SEND_IFG&#45;&gt;TRANSMITTING -->
<g id="edge8" class="edge"><title>SEND_IFG&#45;&gt;TRANSMITTING</title>
<path fill="none" stroke="black" d="M260.431,-216.629C249.856,-222.157 239.783,-229.736 233.64,-240 225.424,-253.729 224.959,-262.56 233.64,-276 238.269,-283.167 244.656,-288.96 251.84,-293.639"/>
<polygon fill="black" stroke="black" points="250.163,-296.712 260.582,-298.635 253.637,-290.634 250.163,-296.712"/>
<text text-anchor="middle" x="263.64" y="-254.4" font-family="Times Roman,serif" font-size="14.00">gap sent</text>
</g>
<!-- JAMMING -->
<g id="node5" class="node"><title>JAMMING</title>
<ellipse fill="none" stroke="black" cx="420.64" cy="-111" rx="56.7776" ry="18.3848"/>
<text text-anchor="middle" x="420.64" y="-107.4" font-family="Times Roman,serif" font-size="14.00">JAMMING</text>
</g>
<!-- SEND_IFG&#45;&gt;JAMMING -->
<g id="edge10" class="edge"><title>SEND_IFG&#45;&gt;JAMMING</title>
<path fill="none" stroke="black" d="M316.046,-184.917C325.197,-173.399 338.082,-158.689 351.64,-148 359.646,-141.688 368.883,-135.899 377.943,-130.868"/>
<polygon fill="black" stroke="black" points="379.713,-133.891 386.892,-126.098 376.421,-127.713 379.713,-133.891"/>
<text text-anchor="middle" x="379.14" y="-153.4" font-family="Times Roman,serif" font-size="14.00">collision</text>
</g>
<!-- TRANSMITTING&#45;&gt;TX_IDLE -->
<g id="edge12" class="edge"><title>TRANSMITTING&#45;&gt;TX_IDLE</title>
<path fill="none" stroke="black" d="M362.829,-328.568C372.488,-333.889 381.551,-340.885 387.64,-350 418.878,-396.762 414.186,-465.979 408.25,-504.496"/>
<polygon fill="black" stroke="black" points="404.774,-504.06 406.571,-514.501 411.677,-505.218 404.774,-504.06"/>
<text text-anchor="middle" x="448.14" y="-419.4" font-family="Times Roman,serif" font-size="14.00">tx finished</text>
</g>
<!-- TRANSMITTING&#45;&gt;WAIT_IFG -->
<g id="edge16" class="edge"><title>TRANSMITTING&#45;&gt;WAIT_IFG</title>
<path fill="none" stroke="black" d="M314.458,-331.683C312.494,-347.897 307.304,-371.052 293.64,-386 284.662,-395.822 272.718,-403.086 260.418,-408.441"/>
<polygon fill="black" stroke="black" points="258.995,-405.239 250.985,-412.175 261.572,-411.748 258.995,-405.239"/>
<text text-anchor="middle" x="347.14" y="-373.4" font-family="Times Roman,serif" font-size="14.00">tx finished</text>
<text text-anchor="middle" x="347.14" y="-355.4" font-family="Times Roman,serif" font-size="14.00">next</text>
</g>
<!-- TRANSMITTING&#45;&gt;SEND_IFG -->
<g id="edge14" class="edge"><title>TRANSMITTING&#45;&gt;SEND_IFG</title>
<path fill="none" stroke="black" d="M313.435,-294.34C311.408,-277.194 308.374,-251.519 306.038,-231.753"/>
<polygon fill="black" stroke="black" points="309.506,-231.272 304.856,-221.752 302.554,-232.093 309.506,-231.272"/>
<text text-anchor="middle" x="355.64" y="-263.4" font-family="Times Roman,serif" font-size="14.00">tx finished</text>
<text text-anchor="middle" x="355.64" y="-245.4" font-family="Times Roman,serif" font-size="14.00">next in burst</text>
</g>
<!-- TRANSMITTING&#45;&gt;JAMMING -->
<g id="edge18" class="edge"><title>TRANSMITTING&#45;&gt;JAMMING</title>
<path fill="none" stroke="black" d="M374.092,-299.223C385.875,-293.835 396.979,-286.36 404.64,-276 434.105,-236.155 431.171,-175.264 426.093,-139.664"/>
<polygon fill="black" stroke="black" points="429.501,-138.809 424.481,-129.479 422.587,-139.903 429.501,-138.809"/>
<text text-anchor="middle" x="456.14" y="-199.4" font-family="Times Roman,serif" font-size="14.00">collision</text>
</g>
<!-- JAMMING&#45;&gt;TX_IDLE -->
<g id="edge22" class="edge"><title>JAMMING&#45;&gt;TX_IDLE</title>
<path fill="none" stroke="black" d="M449.204,-127.091C473.213,-142.964 503.64,-169.657 503.64,-203 503.64,-423 503.64,-423 503.64,-423 503.64,-461.768 469.181,-492.776 440.518,-511.863"/>
<polygon fill="black" stroke="black" points="438.396,-509.066 431.853,-517.4 442.165,-514.965 438.396,-509.066"/>
<text text-anchor="middle" x="570.14" y="-309.4" font-family="Times Roman,serif" font-size="14.00">too many attempts</text>
</g>
<!-- BACKOFF -->
<g id="node6" class="node"><title>BACKOFF</title>
<ellipse fill="none" stroke="black" cx="420.64" cy="-19" rx="56.7776" ry="18.3848"/>
<text text-anchor="middle" x="420.64" y="-15.4" font-family="Times Roman,serif" font-size="14.00">BACKOFF</text>
</g>
<!-- JAMMING&#45;&gt;BACKOFF -->
<g id="edge20" class="edge"><title>JAMMING&#45;&gt;BACKOFF</title>
<path fill="none" stroke="black" d="M420.64,-92.3824C420.64,-79.5383 420.64,-62.2161 420.64,-47.6269"/>
<polygon fill="black" stroke="black" points="424.14,-47.5898 420.64,-37.5899 417.14,-47.5899 424.14,-47.5898"/>
<text text-anchor="middle" x="450.64" y="-61.4" font-family="Times Roman,serif" font-size="14.00">jam sent</text>
</g>
<!-- BACKOFF&#45;&gt;TX_IDLE -->
<g id="edge26" class="edge"><title>BACKOFF&#45;&gt;TX_IDLE</title>
<path fill="none" stroke="black" d="M471.493,-27.5686C543.003,-41.0834 664.64,-70.0852 664.64,-111 664.64,-423 664.64,-423 664.64,-423 664.64,-467.203 536.254,-503.423 459.227,-521.176"/>
<polygon fill="black" stroke="black" points="458.157,-517.829 449.178,-523.454 459.705,-524.656 458.157,-517.829"/>
<text text-anchor="middle" x="719.64" y="-254.4" font-family="Times Roman,serif" font-size="14.00">carrier detected</text>
</g>
<!-- BACKOFF&#45;&gt;WAIT_IFG -->
<g id="edge24" class="edge"><title>BACKOFF&#45;&gt;WAIT_IFG</title>
<path fill="none" stroke="black" d="M367.368,-25.5926C286.646,-37.0904 142.64,-64.1654 142.64,-111 142.64,-313 142.64,-313 142.64,-313 142.64,-347.153 149.15,-356.665 166.64,-386 169.114,-390.149 172.125,-394.211 175.332,-398.036"/>
<polygon fill="black" stroke="black" points="172.779,-400.431 182.081,-405.504 177.973,-395.738 172.779,-400.431"/>
<text text-anchor="middle" x="176.14" y="-199.4" font-family="Times Roman,serif" font-size="14.00">no carrier</text>
</g>
</g>
</svg>
