<?xml version="1.0" encoding="UTF-8" standalone="no"?>
<!DOCTYPE svg PUBLIC "-//W3C//DTD SVG 1.1//EN"
 "http://www.w3.org/Graphics/SVG/1.1/DTD/svg11.dtd">
<!-- Generated by graphviz version 2.26.3 (20100126.1600)
 -->
<!-- Title: g Pages: 1 -->
<svg width="288pt" height="156pt"
 viewBox="0.00 0.00 288.00 156.31" xmlns="http://www.w3.org/2000/svg" xmlns:xlink="http://www.w3.org/1999/xlink">
<g id="graph1" class="graph" transform="scale(0.436613 0.436613) rotate(0) translate(4 354)">
<title>g</title>
<polygon fill="white" stroke="white" points="-4,5 -4,-354 656.623,-354 656.623,5 -4,5"/>
<!-- TX_IDLE -->
<g id="node1" class="node"><title>TX_IDLE</title>
<ellipse fill="none" stroke="black" cx="225.623" cy="-331" rx="53.9477" ry="18.3848"/>
<text text-anchor="middle" x="225.623" y="-327.4" font-family="Times Roman,serif" font-size="14.00">TX_IDLE</text>
</g>
<!-- PAUSE -->
<g id="node3" class="node"><title>PAUSE</title>
<ellipse fill="none" stroke="black" cx="76.6231" cy="-239" rx="44.0472" ry="18.3848"/>
<text text-anchor="middle" x="76.6231" y="-235.4" font-family="Times Roman,serif" font-size="14.00">PAUSE</text>
</g>
<!-- TX_IDLE&#45;&gt;PAUSE -->
<g id="edge2" class="edge"><title>TX_IDLE&#45;&gt;PAUSE</title>
<path fill="none" stroke="black" d="M173.616,-325.816C111.758,-319.117 15.4466,-306.786 4.62305,-294 -8.67133,-278.295 10.4205,-264.279 32.272,-254.327"/>
<polygon fill="black" stroke="black" points="33.8815,-257.446 41.7195,-250.317 31.1468,-251.002 33.8815,-257.446"/>
<text text-anchor="middle" x="67.1231" y="-281.4" font-family="Times Roman,serif" font-size="14.00">PAUSE frame rcvd</text>
</g>
<!-- WAIT_IFG -->
<g id="node5" class="node"><title>WAIT_IFG</title>
<ellipse fill="none" stroke="black" cx="289.623" cy="-129" rx="60.1041" ry="18.3848"/>
<text text-anchor="middle" x="289.623" y="-125.4" font-family="Times Roman,serif" font-size="14.00">WAIT_IFG</text>
</g>
<!-- TX_IDLE&#45;&gt;WAIT_IFG -->
<g id="edge4" class="edge"><title>TX_IDLE&#45;&gt;WAIT_IFG</title>
<path fill="none" stroke="black" d="M261.043,-316.922C270.691,-311.289 280.017,-303.764 285.623,-294 309.997,-251.55 303.623,-192.282 296.683,-157.543"/>
<polygon fill="black" stroke="black" points="300.068,-156.636 294.545,-147.595 293.225,-158.107 300.068,-156.636"/>
<text text-anchor="middle" x="399.123" y="-235.4" font-family="Times Roman,serif" font-size="14.00">frame rcvd from upper layer</text>
</g>
<!-- PAUSE&#45;&gt;TX_IDLE -->
<g id="edge6" class="edge"><title>PAUSE&#45;&gt;TX_IDLE</title>
<path fill="none" stroke="black" d="M99.7746,-254.756C109.126,-261.225 119.969,-268.861 129.623,-276 140.06,-283.718 141.671,-287.033 152.623,-294 162.452,-300.252 173.472,-306.295 183.913,-311.621"/>
<polygon fill="black" stroke="black" points="182.384,-314.769 192.894,-316.104 185.51,-308.506 182.384,-314.769"/>
<text text-anchor="middle" x="219.123" y="-281.4" font-family="Times Roman,serif" font-size="14.00">pause time elapsed</text>
</g>
<!-- PAUSE&#45;&gt;PAUSE -->
<g id="edge8" class="edge"><title>PAUSE&#45;&gt;PAUSE</title>
<path fill="none" stroke="black" d="M115.675,-247.624C128.451,-247.58 138.623,-244.705 138.623,-239 138.623,-234.899 133.368,-232.261 125.668,-231.085"/>
<polygon fill="black" stroke="black" points="125.898,-227.592 115.675,-230.376 125.402,-234.575 125.898,-227.592"/>
<text text-anchor="middle" x="201.123" y="-235.4" font-family="Times Roman,serif" font-size="14.00">PAUSE frame rcvd</text>
</g>
<!-- PAUSE&#45;&gt;WAIT_IFG -->
<g id="edge10" class="edge"><title>PAUSE&#45;&gt;WAIT_IFG</title>
<path fill="none" stroke="black" d="M90.4454,-221.351C104.407,-204.699 127.459,-180.225 152.623,-166 159.919,-161.876 198.163,-151.683 232.395,-143.038"/>
<polygon fill="black" stroke="black" points="233.535,-146.36 242.381,-140.53 231.83,-139.571 233.535,-146.36"/>
<text text-anchor="middle" x="219.123" y="-189.4" font-family="Times Roman,serif" font-size="14.00">pause time elapsed</text>
<text text-anchor="middle" x="219.123" y="-171.4" font-family="Times Roman,serif" font-size="14.00">queued msgs</text>
</g>
<!-- TRANSMITTING -->
<g id="node10" class="node"><title>TRANSMITTING</title>
<ellipse fill="none" stroke="black" cx="237.623" cy="-19" rx="87.1802" ry="18.3848"/>
<text text-anchor="middle" x="237.623" y="-15.4" font-family="Times Roman,serif" font-size="14.00">TRANSMITTING</text>
</g>
<!-- WAIT_IFG&#45;&gt;TRANSMITTING -->
<g id="edge12" class="edge"><title>WAIT_IFG&#45;&gt;TRANSMITTING</title>
<path fill="none" stroke="black" d="M241.546,-117.81C208.067,-109.532 168.559,-98.5933 163.623,-92 154.035,-79.1912 155.211,-69.6104 163.623,-56 167.569,-49.6159 172.986,-44.2964 179.111,-39.873"/>
<polygon fill="black" stroke="black" points="181.233,-42.6725 187.828,-34.3807 177.502,-36.7499 181.233,-42.6725"/>
<text text-anchor="middle" x="227.623" y="-70.4" font-family="Times Roman,serif" font-size="14.00">96 bittime elapsed</text>
</g>
<!-- TRANSMITTING&#45;&gt;TX_IDLE -->
<g id="edge14" class="edge"><title>TRANSMITTING&#45;&gt;TX_IDLE</title>
<path fill="none" stroke="black" d="M323.259,-22.5008C380.527,-26.6848 449.024,-35.8646 469.623,-56 582.011,-165.857 535.049,-211.9 499.623,-258 473.839,-291.553 359.121,-312.962 286.541,-323.406"/>
<polygon fill="black" stroke="black" points="286.007,-319.947 276.593,-324.807 286.984,-326.878 286.007,-319.947"/>
<text text-anchor="middle" x="595.623" y="-189.4" font-family="Times Roman,serif" font-size="14.00">tx finished</text>
<text text-anchor="middle" x="595.623" y="-171.4" font-family="Times Roman,serif" font-size="14.00">no queued msgs</text>
</g>
<!-- TRANSMITTING&#45;&gt;PAUSE -->
<g id="edge18" class="edge"><title>TRANSMITTING&#45;&gt;PAUSE</title>
<path fill="none" stroke="black" d="M190.683,-34.6758C157.273,-48.6388 115.001,-72.7175 95.6231,-110 79.2176,-141.564 75.7935,-182.984 75.5954,-210.267"/>
<polygon fill="black" stroke="black" points="72.0959,-210.352 75.6643,-220.328 79.0957,-210.304 72.0959,-210.352"/>
<text text-anchor="middle" x="158.123" y="-134.4" font-family="Times Roman,serif" font-size="14.00">tx finished</text>
<text text-anchor="middle" x="158.123" y="-116.4" font-family="Times Roman,serif" font-size="14.00">PAUSE frame rcvd</text>
</g>
<!-- TRANSMITTING&#45;&gt;WAIT_IFG -->
<g id="edge16" class="edge"><title>TRANSMITTING&#45;&gt;WAIT_IFG</title>
<path fill="none" stroke="black" d="M273.088,-36.0138C280.521,-41.3276 287.384,-47.957 291.623,-56 298.689,-69.4066 298.72,-86.2086 296.746,-100.312"/>
<polygon fill="black" stroke="black" points="293.244,-100.011 294.928,-110.471 300.135,-101.244 293.244,-100.011"/>
<text text-anchor="middle" x="381.623" y="-79.4" font-family="Times Roman,serif" font-size="14.00">tx finished</text>
<text text-anchor="middle" x="381.623" y="-61.4" font-family="Times Roman,serif" font-size="14.00">queued msgs, no PAUSE</text>
</g>
</g>
</svg>
