<?xml version="1.0" encoding="UTF-8" standalone="no"?>
<!DOCTYPE svg PUBLIC "-//W3C//DTD SVG 1.1//EN"
 "http://www.w3.org/Graphics/SVG/1.1/DTD/svg11.dtd">
<!-- Generated by graphviz version 2.26.3 (20100126.1600)
 -->
<!-- Title: g Pages: 1 -->
<svg width="504pt" height="109pt"
 viewBox="0.00 0.00 504.00 109.22" xmlns="http://www.w3.org/2000/svg" xmlns:xlink="http://www.w3.org/1999/xlink">
<g id="graph1" class="graph" transform="scale(0.328982 0.328982) rotate(0) translate(4 328)">
<title>g</title>
<polygon fill="white" stroke="white" points="-4,5 -4,-328 1529,-328 1529,5 -4,5"/>
<!-- IMobility -->
<g id="node1" class="node"><title>IMobility</title>
<polygon fill="none" stroke="black" points="761,-324 685,-324 685,-288 761,-288 761,-324"/>
<text text-anchor="start" x="693.5" y="-303.233" font-family="Times Roman,serif" font-size="14.00">IMobility</text>
</g>
<!-- MobilityBase -->
<g id="node2" class="node"><title>MobilityBase</title>
<polygon fill="none" stroke="black" points="775,-252 671,-252 671,-216 775,-216 775,-252"/>
<text text-anchor="middle" x="723" y="-230.4" font-family="Times Roman,serif" font-size="14.00">MobilityBase</text>
</g>
<!-- MobilityBase&#45;&gt;IMobility -->
<g id="edge2" class="edge"><title>MobilityBase&#45;&gt;IMobility</title>
<path fill="none" stroke="black" d="M723,-252.169C723,-259.869 723,-269.026 723,-277.583"/>
<polygon fill="none" stroke="black" points="719.5,-277.587 723,-287.587 726.5,-277.587 719.5,-277.587"/>
</g>
<!-- MovingMobilityBase -->
<g id="node4" class="node"><title>MovingMobilityBase</title>
<polygon fill="none" stroke="black" points="664,-180 512,-180 512,-144 664,-144 664,-180"/>
<text text-anchor="middle" x="588" y="-158.4" font-family="Times Roman,serif" font-size="14.00">MovingMobilityBase</text>
</g>
<!-- MovingMobilityBase&#45;&gt;MobilityBase -->
<g id="edge4" class="edge"><title>MovingMobilityBase&#45;&gt;MobilityBase</title>
<path fill="none" stroke="black" d="M622.066,-180.169C639.653,-189.548 661.292,-201.089 680.017,-211.076"/>
<polygon fill="black" stroke="black" points="678.474,-214.219 688.945,-215.837 681.768,-208.043 678.474,-214.219"/>
</g>
<!-- StationaryMobility -->
<g id="node6" class="node"><title>StationaryMobility</title>
<polygon fill="none" stroke="black" points="929,-180 787,-180 787,-144 929,-144 929,-180"/>
<text text-anchor="middle" x="858" y="-158.4" font-family="Times Roman,serif" font-size="14.00">StationaryMobility</text>
</g>
<!-- StationaryMobility&#45;&gt;MobilityBase -->
<g id="edge6" class="edge"><title>StationaryMobility&#45;&gt;MobilityBase</title>
<path fill="none" stroke="black" d="M823.934,-180.169C806.347,-189.548 784.708,-201.089 765.983,-211.076"/>
<polygon fill="black" stroke="black" points="764.232,-208.043 757.055,-215.837 767.526,-214.219 764.232,-208.043"/>
</g>
<!-- StaticGridMobility -->
<g id="node8" class="node"><title>StaticGridMobility</title>
<polygon fill="none" stroke="black" points="1033,-108 893,-108 893,-72 1033,-72 1033,-108"/>
<text text-anchor="middle" x="963" y="-86.4" font-family="Times Roman,serif" font-size="14.00">StaticGridMobility</text>
</g>
<!-- StaticGridMobility&#45;&gt;StationaryMobility -->
<g id="edge8" class="edge"><title>StaticGridMobility&#45;&gt;StationaryMobility</title>
<path fill="none" stroke="black" d="M936.504,-108.169C923.323,-117.207 907.215,-128.252 893.029,-137.98"/>
<polygon fill="black" stroke="black" points="890.755,-135.295 884.487,-143.837 894.714,-141.068 890.755,-135.295"/>
</g>
<!-- CircleMobility -->
<g id="node10" class="node"><title>CircleMobility</title>
<polygon fill="none" stroke="black" points="369,-108 261,-108 261,-72 369,-72 369,-108"/>
<text text-anchor="middle" x="315" y="-86.4" font-family="Times Roman,serif" font-size="14.00">CircleMobility</text>
</g>
<!-- CircleMobility&#45;&gt;MovingMobilityBase -->
<g id="edge10" class="edge"><title>CircleMobility&#45;&gt;MovingMobilityBase</title>
<path fill="none" stroke="black" d="M369.271,-105.605C372.221,-106.422 375.146,-107.225 378,-108 420.2,-119.452 467.339,-131.629 506.246,-141.515"/>
<polygon fill="black" stroke="black" points="505.399,-144.911 515.953,-143.978 507.12,-138.126 505.399,-144.911"/>
</g>
<!-- LinearMobility -->
<g id="node12" class="node"><title>LinearMobility</title>
<polygon fill="none" stroke="black" points="501,-108 387,-108 387,-72 501,-72 501,-108"/>
<text text-anchor="middle" x="444" y="-86.4" font-family="Times Roman,serif" font-size="14.00">LinearMobility</text>
</g>
<!-- LinearMobility&#45;&gt;MovingMobilityBase -->
<g id="edge12" class="edge"><title>LinearMobility&#45;&gt;MovingMobilityBase</title>
<path fill="none" stroke="black" d="M480.337,-108.169C499.34,-117.67 522.776,-129.388 542.925,-139.463"/>
<polygon fill="black" stroke="black" points="541.414,-142.62 551.924,-143.962 544.545,-136.359 541.414,-142.62"/>
</g>
<!-- RectangleMobility -->
<g id="node14" class="node"><title>RectangleMobility</title>
<polygon fill="none" stroke="black" points="657,-108 519,-108 519,-72 657,-72 657,-108"/>
<text text-anchor="middle" x="588" y="-86.4" font-family="Times Roman,serif" font-size="14.00">RectangleMobility</text>
</g>
<!-- RectangleMobility&#45;&gt;MovingMobilityBase -->
<g id="edge14" class="edge"><title>RectangleMobility&#45;&gt;MovingMobilityBase</title>
<path fill="none" stroke="black" d="M588,-108.169C588,-115.869 588,-125.026 588,-133.583"/>
<polygon fill="black" stroke="black" points="584.5,-133.587 588,-143.587 591.5,-133.587 584.5,-133.587"/>
</g>
<!-- LineSegmentsMobilityBase -->
<g id="node16" class="node"><title>LineSegmentsMobilityBase</title>
<polygon fill="none" stroke="black" points="875,-108 675,-108 675,-72 875,-72 875,-108"/>
<text text-anchor="middle" x="775" y="-86.4" font-family="Times Roman,serif" font-size="14.00">LineSegmentsMobilityBase</text>
</g>
<!-- LineSegmentsMobilityBase&#45;&gt;MovingMobilityBase -->
<g id="edge16" class="edge"><title>LineSegmentsMobilityBase&#45;&gt;MovingMobilityBase</title>
<path fill="none" stroke="black" d="M727.812,-108.169C702.468,-117.927 671.052,-130.023 644.423,-140.276"/>
<polygon fill="black" stroke="black" points="642.923,-137.103 634.849,-143.962 645.438,-143.635 642.923,-137.103"/>
</g>
<!-- TractorMobility -->
<g id="node18" class="node"><title>TractorMobility</title>
<polygon fill="none" stroke="black" points="118,-36 4.9738e-14,-36 0,-1.77636e-14 118,-3.55271e-15 118,-36"/>
<text text-anchor="middle" x="59" y="-14.4" font-family="Times Roman,serif" font-size="14.00">TractorMobility</text>
</g>
<!-- TractorMobility&#45;&gt;LineSegmentsMobilityBase -->
<g id="edge18" class="edge"><title>TractorMobility&#45;&gt;LineSegmentsMobilityBase</title>
<path fill="none" stroke="black" d="M118.193,-34.3851C121.16,-34.9811 124.108,-35.5252 127,-36 360.678,-74.366 425.73,-45.2293 664.922,-71.9508"/>
<polygon fill="black" stroke="black" points="664.638,-75.441 674.97,-73.0946 665.43,-68.486 664.638,-75.441"/>
</g>
<!-- RandomWPMobility -->
<g id="node20" class="node"><title>RandomWPMobility</title>
<polygon fill="none" stroke="black" points="286,-36 136,-36 136,-1.77636e-14 286,-3.55271e-15 286,-36"/>
<text text-anchor="middle" x="211" y="-14.4" font-family="Times Roman,serif" font-size="14.00">RandomWPMobility</text>
</g>
<!-- RandomWPMobility&#45;&gt;LineSegmentsMobilityBase -->
<g id="edge20" class="edge"><title>RandomWPMobility&#45;&gt;LineSegmentsMobilityBase</title>
<path fill="none" stroke="black" d="M286.027,-34.5217C289.053,-35.047 292.052,-35.5427 295,-36 455.508,-60.9011 500.012,-50.9042 664.953,-71.9186"/>
<polygon fill="black" stroke="black" points="664.589,-75.4006 674.955,-73.2119 665.487,-68.4584 664.589,-75.4006"/>
</g>
<!-- GaussMarkovMobilityBase -->
<g id="node22" class="node"><title>GaussMarkovMobilityBase</title>
<polygon fill="none" stroke="black" points="500,-36 304,-36 304,-1.77636e-14 500,-3.55271e-15 500,-36"/>
<text text-anchor="middle" x="402" y="-14.4" font-family="Times Roman,serif" font-size="14.00">GaussMarkovMobilityBase</text>
</g>
<!-- GaussMarkovMobilityBase&#45;&gt;LineSegmentsMobilityBase -->
<g id="edge22" class="edge"><title>GaussMarkovMobilityBase&#45;&gt;LineSegmentsMobilityBase</title>
<path fill="none" stroke="black" d="M495.642,-36.0757C549.174,-46.4089 616.409,-59.3872 671.503,-70.022"/>
<polygon fill="black" stroke="black" points="671.161,-73.5205 681.643,-71.9793 672.487,-66.6474 671.161,-73.5205"/>
</g>
<!-- MassMobility -->
<g id="node24" class="node"><title>MassMobility</title>
<polygon fill="none" stroke="black" points="622,-36 518,-36 518,-1.77636e-14 622,-3.55271e-15 622,-36"/>
<text text-anchor="middle" x="570" y="-14.4" font-family="Times Roman,serif" font-size="14.00">MassMobility</text>
</g>
<!-- MassMobility&#45;&gt;LineSegmentsMobilityBase -->
<g id="edge24" class="edge"><title>MassMobility&#45;&gt;LineSegmentsMobilityBase</title>
<path fill="none" stroke="black" d="M621.466,-36.0757C649.49,-45.9185 684.348,-58.1614 713.764,-68.4927"/>
<polygon fill="black" stroke="black" points="712.918,-71.9053 723.513,-71.9169 715.238,-65.3008 712.918,-71.9053"/>
</g>
<!-- ChiangMobility -->
<g id="node26" class="node"><title>ChiangMobility</title>
<polygon fill="none" stroke="black" points="758,-36 640,-36 640,-1.77636e-14 758,-3.55271e-15 758,-36"/>
<text text-anchor="middle" x="699" y="-14.4" font-family="Times Roman,serif" font-size="14.00">ChiangMobility</text>
</g>
<!-- ChiangMobility&#45;&gt;LineSegmentsMobilityBase -->
<g id="edge26" class="edge"><title>ChiangMobility&#45;&gt;LineSegmentsMobilityBase</title>
<path fill="none" stroke="black" d="M718.178,-36.1686C727.359,-44.8663 738.501,-55.4217 748.478,-64.8735"/>
<polygon fill="black" stroke="black" points="746.161,-67.5005 755.828,-71.8372 750.976,-62.4189 746.161,-67.5005"/>
</g>
<!-- ConstSpeedMobility -->
<g id="node28" class="node"><title>ConstSpeedMobility</title>
<polygon fill="none" stroke="black" points="928,-36 776,-36 776,-1.77636e-14 928,-3.55271e-15 928,-36"/>
<text text-anchor="middle" x="852" y="-14.4" font-family="Times Roman,serif" font-size="14.00">ConstSpeedMobility</text>
</g>
<!-- ConstSpeedMobility&#45;&gt;LineSegmentsMobilityBase -->
<g id="edge28" class="edge"><title>ConstSpeedMobility&#45;&gt;LineSegmentsMobilityBase</title>
<path fill="none" stroke="black" d="M832.57,-36.1686C823.268,-44.8663 811.98,-55.4217 801.871,-64.8735"/>
<polygon fill="black" stroke="black" points="799.338,-62.4507 794.424,-71.8372 804.119,-67.5637 799.338,-62.4507"/>
</g>
<!-- ANSimMobility -->
<g id="node30" class="node"><title>ANSimMobility</title>
<polygon fill="none" stroke="black" points="1062,-36 946,-36 946,-1.77636e-14 1062,-3.55271e-15 1062,-36"/>
<text text-anchor="middle" x="1004" y="-14.4" font-family="Times Roman,serif" font-size="14.00">ANSimMobility</text>
</g>
<!-- ANSimMobility&#45;&gt;LineSegmentsMobilityBase -->
<g id="edge30" class="edge"><title>ANSimMobility&#45;&gt;LineSegmentsMobilityBase</title>
<path fill="none" stroke="black" d="M946.509,-36.0757C914.795,-46.0469 875.247,-58.4812 842.122,-68.896"/>
<polygon fill="black" stroke="black" points="841.004,-65.5786 832.514,-71.9169 843.104,-72.2563 841.004,-65.5786"/>
</g>
<!-- BonnMotionMobility -->
<g id="node32" class="node"><title>BonnMotionMobility</title>
<polygon fill="none" stroke="black" points="1234,-36 1080,-36 1080,-1.77636e-14 1234,-3.55271e-15 1234,-36"/>
<text text-anchor="middle" x="1157" y="-14.4" font-family="Times Roman,serif" font-size="14.00">BonnMotionMobility</text>
</g>
<!-- BonnMotionMobility&#45;&gt;LineSegmentsMobilityBase -->
<g id="edge32" class="edge"><title>BonnMotionMobility&#45;&gt;LineSegmentsMobilityBase</title>
<path fill="none" stroke="black" d="M1079.66,-34.2851C1076.74,-34.8695 1073.84,-35.443 1071,-36 1009.58,-48.0275 940.822,-60.6244 885.043,-70.6235"/>
<polygon fill="black" stroke="black" points="884.367,-67.1887 875.14,-72.3958 885.6,-74.0792 884.367,-67.1887"/>
</g>
<!-- Ns2MotionMobility -->
<g id="node34" class="node"><title>Ns2MotionMobility</title>
<polygon fill="none" stroke="black" points="1396,-36 1252,-36 1252,-1.77636e-14 1396,-3.55271e-15 1396,-36"/>
<text text-anchor="middle" x="1324" y="-14.4" font-family="Times Roman,serif" font-size="14.00">Ns2MotionMobility</text>
</g>
<!-- Ns2MotionMobility&#45;&gt;LineSegmentsMobilityBase -->
<g id="edge34" class="edge"><title>Ns2MotionMobility&#45;&gt;LineSegmentsMobilityBase</title>
<path fill="none" stroke="black" d="M1251.66,-34.5223C1248.74,-35.0475 1245.84,-35.543 1243,-36 1087.92,-60.9162 1044.72,-51.3419 885.22,-71.8934"/>
<polygon fill="black" stroke="black" points="884.508,-68.4566 875.047,-73.2244 885.416,-75.3975 884.508,-68.4566"/>
</g>
<!-- TurtleMobility -->
<g id="node36" class="node"><title>TurtleMobility</title>
<polygon fill="none" stroke="black" points="1524,-36 1414,-36 1414,-1.77636e-14 1524,-3.55271e-15 1524,-36"/>
<text text-anchor="middle" x="1469" y="-14.4" font-family="Times Roman,serif" font-size="14.00">TurtleMobility</text>
</g>
<!-- TurtleMobility&#45;&gt;LineSegmentsMobilityBase -->
<g id="edge36" class="edge"><title>TurtleMobility&#45;&gt;LineSegmentsMobilityBase</title>
<path fill="none" stroke="black" d="M1413.66,-34.3151C1410.74,-34.9392 1407.84,-35.5073 1405,-36 1179.54,-75.0683 1116.32,-45.9127 885.1,-71.9472"/>
<polygon fill="black" stroke="black" points="884.567,-68.4853 875.031,-73.1035 885.366,-75.4396 884.567,-68.4853"/>
</g>
</g>
</svg>
