<?xml version="1.0" encoding="UTF-8" standalone="no"?>
<!DOCTYPE svg PUBLIC "-//W3C//DTD SVG 1.1//EN"
 "http://www.w3.org/Graphics/SVG/1.1/DTD/svg11.dtd">
<!-- Generated by graphviz version 2.26.3 (20100126.1600)
 -->
<!-- Title: g Pages: 1 -->
<svg width="428pt" height="260pt"
 viewBox="0.00 0.00 428.00 260.00" xmlns="http://www.w3.org/2000/svg" xmlns:xlink="http://www.w3.org/1999/xlink">
<g id="graph1" class="graph" transform="scale(1 1) rotate(0) translate(4 256)">
<title>g</title>
<polygon fill="white" stroke="white" points="-4,5 -4,-256 425,-256 425,5 -4,5"/>
<!-- TCPAlgorithm -->
<g id="node1" class="node"><title>TCPAlgorithm</title>
<polygon fill="none" stroke="black" points="192,-252 82,-252 82,-216 192,-216 192,-252"/>
<text text-anchor="start" x="90" y="-231.233" font-family="Times Roman,serif" font-size="14.00">TCPAlgorithm</text>
</g>
<!-- DumbTCP -->
<g id="node2" class="node"><title>DumbTCP</title>
<polygon fill="none" stroke="black" points="125,-180 41,-180 41,-144 125,-144 125,-180"/>
<text text-anchor="middle" x="83" y="-158.4" font-family="Times Roman,serif" font-size="14.00">DumbTCP</text>
</g>
<!-- DumbTCP&#45;&gt;TCPAlgorithm -->
<g id="edge2" class="edge"><title>DumbTCP&#45;&gt;TCPAlgorithm</title>
<path fill="none" stroke="black" d="M96.6265,-180.169C102.846,-188.461 110.332,-198.443 117.16,-207.547"/>
<polygon fill="none" stroke="black" points="114.39,-209.687 123.19,-215.587 119.99,-205.487 114.39,-209.687"/>
</g>
<!-- TCPBaseAlg -->
<g id="node4" class="node"><title>TCPBaseAlg</title>
<polygon fill="none" stroke="black" points="241,-180 143,-180 143,-144 241,-144 241,-180"/>
<text text-anchor="middle" x="192" y="-158.4" font-family="Times Roman,serif" font-size="14.00">TCPBaseAlg</text>
</g>
<!-- TCPBaseAlg&#45;&gt;TCPAlgorithm -->
<g id="edge4" class="edge"><title>TCPBaseAlg&#45;&gt;TCPAlgorithm</title>
<path fill="none" stroke="black" d="M178.121,-180.169C171.786,-188.461 164.162,-198.443 157.207,-207.547"/>
<polygon fill="none" stroke="black" points="154.355,-205.515 151.066,-215.587 159.917,-209.765 154.355,-205.515"/>
</g>
<!-- TCPNoCongestionControl -->
<g id="node6" class="node"><title>TCPNoCongestionControl</title>
<polygon fill="none" stroke="black" points="190,-108 9.9476e-14,-108 0,-72 190,-72 190,-108"/>
<text text-anchor="middle" x="95" y="-86.4" font-family="Times Roman,serif" font-size="14.00">TCPNoCongestionControl</text>
</g>
<!-- TCPNoCongestionControl&#45;&gt;TCPBaseAlg -->
<g id="edge6" class="edge"><title>TCPNoCongestionControl&#45;&gt;TCPBaseAlg</title>
<path fill="none" stroke="black" d="M119.477,-108.169C131.539,-117.122 146.254,-128.044 159.269,-137.705"/>
<polygon fill="black" stroke="black" points="157.415,-140.687 167.531,-143.837 161.587,-135.067 157.415,-140.687"/>
</g>
<!-- TCPTahoeRenoFamily -->
<g id="node8" class="node"><title>TCPTahoeRenoFamily</title>
<polygon fill="none" stroke="black" points="370,-108 208,-108 208,-72 370,-72 370,-108"/>
<text text-anchor="middle" x="289" y="-86.4" font-family="Times Roman,serif" font-size="14.00">TCPTahoeRenoFamily</text>
</g>
<!-- TCPTahoeRenoFamily&#45;&gt;TCPBaseAlg -->
<g id="edge8" class="edge"><title>TCPTahoeRenoFamily&#45;&gt;TCPBaseAlg</title>
<path fill="none" stroke="black" d="M264.523,-108.169C252.461,-117.122 237.746,-128.044 224.731,-137.705"/>
<polygon fill="black" stroke="black" points="222.413,-135.067 216.469,-143.837 226.585,-140.687 222.413,-135.067"/>
</g>
<!-- TCPTahoe -->
<g id="node10" class="node"><title>TCPTahoe</title>
<polygon fill="none" stroke="black" points="232,-36 148,-36 148,-1.77636e-14 232,-3.55271e-15 232,-36"/>
<text text-anchor="middle" x="190" y="-14.4" font-family="Times Roman,serif" font-size="14.00">TCPTahoe</text>
</g>
<!-- TCPTahoe&#45;&gt;TCPTahoeRenoFamily -->
<g id="edge10" class="edge"><title>TCPTahoe&#45;&gt;TCPTahoeRenoFamily</title>
<path fill="none" stroke="black" d="M214.982,-36.1686C227.293,-45.1221 242.311,-56.0442 255.594,-65.7045"/>
<polygon fill="black" stroke="black" points="253.88,-68.786 264.026,-71.8372 257.997,-63.1248 253.88,-68.786"/>
</g>
<!-- TCPReno -->
<g id="node12" class="node"><title>TCPReno</title>
<polygon fill="none" stroke="black" points="328,-36 250,-36 250,-1.77636e-14 328,-3.55271e-15 328,-36"/>
<text text-anchor="middle" x="289" y="-14.4" font-family="Times Roman,serif" font-size="14.00">TCPReno</text>
</g>
<!-- TCPReno&#45;&gt;TCPTahoeRenoFamily -->
<g id="edge12" class="edge"><title>TCPReno&#45;&gt;TCPTahoeRenoFamily</title>
<path fill="none" stroke="black" d="M289,-36.1686C289,-43.869 289,-53.0257 289,-61.5834"/>
<polygon fill="black" stroke="black" points="285.5,-61.5867 289,-71.5867 292.5,-61.5868 285.5,-61.5867"/>
</g>
<!-- TCPNew -->
<g id="node14" class="node"><title>TCPNew</title>
<polygon fill="none" stroke="black" points="420,-36 346,-36 346,-1.77636e-14 420,-3.55271e-15 420,-36"/>
<text text-anchor="middle" x="383" y="-14.4" font-family="Times Roman,serif" font-size="14.00">TCPNew</text>
</g>
<!-- TCPNew&#45;&gt;TCPTahoeRenoFamily -->
<g id="edge14" class="edge"><title>TCPNew&#45;&gt;TCPTahoeRenoFamily</title>
<path fill="none" stroke="black" d="M359.28,-36.1686C347.591,-45.1221 333.331,-56.0442 320.719,-65.7045"/>
<polygon fill="black" stroke="black" points="318.523,-62.9778 312.713,-71.8372 322.78,-68.5349 318.523,-62.9778"/>
</g>
</g>
</svg>
