<?xml version="1.0" encoding="UTF-8" standalone="no"?>
<!DOCTYPE svg PUBLIC "-//W3C//DTD SVG 1.1//EN"
 "http://www.w3.org/Graphics/SVG/1.1/DTD/svg11.dtd">
<!-- Generated by graphviz version 2.43.0 (0)
 -->
<!-- Title: EthernetPlcaDataFsm Pages: 1 -->
<svg width="3036pt" height="2208pt"
 viewBox="0.00 0.00 3035.50 2208.00" xmlns="http://www.w3.org/2000/svg" xmlns:xlink="http://www.w3.org/1999/xlink">
<g id="graph0" class="graph" transform="scale(1 1) rotate(0) translate(4 2204)">
<title>EthernetPlcaDataFsm</title>
<polygon fill="white" stroke="transparent" points="-4,4 -4,-2204 3031.5,-2204 3031.5,4 -4,4"/>
<text text-anchor="middle" x="1513.75" y="-2180" font-family="Helvetica,Arial,sans-serif" font-size="20.00">EthernetPlcaCtrl</text>
<!-- DS_WAIT_IDLE -->
<g id="node1" class="node">
<title>DS_WAIT_IDLE</title>
<polygon fill="lightgrey" stroke="transparent" points="2732.5,-2170 2333.5,-2170 2333.5,-2068 2732.5,-2068 2732.5,-2170"/>
<polygon fill="none" stroke="#000000" stroke-opacity="0.266667" points="2334,-2149 2334,-2170 2733,-2170 2733,-2149 2334,-2149"/>
<text text-anchor="start" x="2432" y="-2155.8" font-family="Helvetica,Arial,sans-serif" font-size="14.00"> &#160;&#160;&#160;&#160;&#160;&#160;&#160;&#160;&#160;&#160;&#160;&#160;&#160;&#160;&#160;DS_WAIT_IDLE &#160;&#160;&#160;&#160;&#160;&#160;&#160;&#160;&#160;&#160;&#160;</text>
<polygon fill="none" stroke="#000000" stroke-opacity="0.266667" points="2334,-2068 2334,-2149 2733,-2149 2733,-2068 2334,-2068"/>
<text text-anchor="start" x="2337" y="-2134.8" font-family="Helvetica,Arial,sans-serif" font-size="14.00"> &#160;&#160;&#160;&#160;&#160;&#160;&#160;&#160;&#160;&#160;&#160;&#160;&#160;&#160;&#160;packetPending = false; </text>
<text text-anchor="start" x="2337" y="-2119.8" font-family="Helvetica,Arial,sans-serif" font-size="14.00"> &#160;&#160;&#160;&#160;&#160;&#160;&#160;&#160;&#160;&#160;&#160;&#160;&#160;&#160;&#160;CARRIER_STATUS = CARRIER_OFF; </text>
<text text-anchor="start" x="2337" y="-2104.8" font-family="Helvetica,Arial,sans-serif" font-size="14.00"> &#160;&#160;&#160;&#160;&#160;&#160;&#160;&#160;&#160;&#160;&#160;&#160;&#160;&#160;&#160;SIGNAL_STATUS = NO_SIGNAL_ERROR; </text>
<text text-anchor="start" x="2337" y="-2089.8" font-family="Helvetica,Arial,sans-serif" font-size="14.00"> &#160;&#160;&#160;&#160;&#160;&#160;&#160;&#160;&#160;&#160;&#160;&#160;&#160;&#160;&#160;TX_EN = false; </text>
<text text-anchor="start" x="2337" y="-2074.8" font-family="Helvetica,Arial,sans-serif" font-size="14.00"> &#160;&#160;&#160;&#160;&#160;&#160;&#160;&#160;&#160;&#160;&#160;&#160;&#160;&#160;&#160;FSMA_Delay_Action(handleWithControlFSM()); &#160;&#160;&#160;&#160;&#160;&#160;&#160;&#160;&#160;&#160;&#160;</text>
</g>
<!-- DS_WAIT_IDLE&#45;&gt;DS_WAIT_IDLE -->
<g id="edge3" class="edge">
<title>DS_WAIT_IDLE&#45;&gt;DS_WAIT_IDLE</title>
<path fill="none" stroke="black" d="M2732.79,-2137.47C2774.48,-2135.54 2804.5,-2129.38 2804.5,-2119 2804.5,-2109.47 2779.21,-2103.5 2742.8,-2101.09"/>
<polygon fill="black" stroke="black" points="2742.97,-2097.6 2732.79,-2100.53 2742.58,-2104.59 2742.97,-2097.6"/>
<text text-anchor="middle" x="2916" y="-2115.3" font-family="Arial" font-size="14.00">event == CARRIER_SENSE_START</text>
</g>
<!-- DS_WAIT_IDLE_to_DS_TRANSMIT -->
<g id="node2" class="node">
<title>DS_WAIT_IDLE_to_DS_TRANSMIT</title>
<polygon fill="lightgreen" stroke="transparent" points="2918.5,-1828 2501.5,-1828 2501.5,-1792 2918.5,-1792 2918.5,-1828"/>
<polygon fill="none" stroke="#000000" stroke-opacity="0.266667" points="2502,-1792 2502,-1828 2919,-1828 2919,-1792 2502,-1792"/>
<text text-anchor="start" x="2586" y="-1813.8" font-family="Helvetica,Arial,sans-serif" font-size="14.00"> &#160;&#160;&#160;&#160;&#160;&#160;&#160;&#160;&#160;&#160;&#160;&#160;&#160;&#160;&#160;ASSERT(currentTx == nullptr); </text>
<text text-anchor="start" x="2505" y="-1798.8" font-family="Helvetica,Arial,sans-serif" font-size="14.00"> &#160;&#160;&#160;&#160;&#160;&#160;&#160;&#160;&#160;&#160;&#160;&#160;&#160;&#160;&#160;currentTx = check_and_cast&lt;Packet *&gt;(message); &#160;&#160;&#160;&#160;&#160;&#160;&#160;&#160;&#160;&#160;&#160;</text>
</g>
<!-- DS_WAIT_IDLE&#45;&gt;DS_WAIT_IDLE_to_DS_TRANSMIT -->
<g id="edge1" class="edge">
<title>DS_WAIT_IDLE&#45;&gt;DS_WAIT_IDLE_to_DS_TRANSMIT</title>
<path fill="none" stroke="black" d="M2561.83,-2067.99C2599.92,-2001.93 2665.6,-1888.01 2695.01,-1837"/>
<polygon fill="black" stroke="black" points="2698.1,-1838.65 2700.06,-1828.24 2692.03,-1835.15 2698.1,-1838.65"/>
<text text-anchor="middle" x="2734.5" y="-2020.8" font-family="Arial" font-size="14.00">T1: </text>
<text text-anchor="middle" x="2734.5" y="-2005.8" font-family="Arial" font-size="14.00"> event == START_FRAME_TRANSMISSION</text>
</g>
<!-- DS_IDLE -->
<g id="node3" class="node">
<title>DS_IDLE</title>
<polygon fill="lightgrey" stroke="transparent" points="1975.5,-1966 1576.5,-1966 1576.5,-1864 1975.5,-1864 1975.5,-1966"/>
<polygon fill="none" stroke="#000000" stroke-opacity="0.266667" points="1577,-1945 1577,-1966 1976,-1966 1976,-1945 1577,-1945"/>
<text text-anchor="start" x="1695.5" y="-1951.8" font-family="Helvetica,Arial,sans-serif" font-size="14.00"> &#160;&#160;&#160;&#160;&#160;&#160;&#160;&#160;&#160;&#160;&#160;&#160;&#160;&#160;&#160;DS_IDLE &#160;&#160;&#160;&#160;&#160;&#160;&#160;&#160;&#160;&#160;&#160;</text>
<polygon fill="none" stroke="#000000" stroke-opacity="0.266667" points="1577,-1864 1577,-1945 1976,-1945 1976,-1864 1577,-1864"/>
<text text-anchor="start" x="1580" y="-1930.8" font-family="Helvetica,Arial,sans-serif" font-size="14.00"> &#160;&#160;&#160;&#160;&#160;&#160;&#160;&#160;&#160;&#160;&#160;&#160;&#160;&#160;&#160;packetPending = false; </text>
<text text-anchor="start" x="1580" y="-1915.8" font-family="Helvetica,Arial,sans-serif" font-size="14.00"> &#160;&#160;&#160;&#160;&#160;&#160;&#160;&#160;&#160;&#160;&#160;&#160;&#160;&#160;&#160;CARRIER_STATUS = CARRIER_OFF; </text>
<text text-anchor="start" x="1580" y="-1900.8" font-family="Helvetica,Arial,sans-serif" font-size="14.00"> &#160;&#160;&#160;&#160;&#160;&#160;&#160;&#160;&#160;&#160;&#160;&#160;&#160;&#160;&#160;SIGNAL_STATUS = NO_SIGNAL_ERROR; </text>
<text text-anchor="start" x="1580" y="-1885.8" font-family="Helvetica,Arial,sans-serif" font-size="14.00"> &#160;&#160;&#160;&#160;&#160;&#160;&#160;&#160;&#160;&#160;&#160;&#160;&#160;&#160;&#160;TX_EN = false; </text>
<text text-anchor="start" x="1580" y="-1870.8" font-family="Helvetica,Arial,sans-serif" font-size="14.00"> &#160;&#160;&#160;&#160;&#160;&#160;&#160;&#160;&#160;&#160;&#160;&#160;&#160;&#160;&#160;FSMA_Delay_Action(handleWithControlFSM()); &#160;&#160;&#160;&#160;&#160;&#160;&#160;&#160;&#160;&#160;&#160;</text>
</g>
<!-- DS_WAIT_IDLE&#45;&gt;DS_IDLE -->
<g id="edge2" class="edge">
<title>DS_WAIT_IDLE&#45;&gt;DS_IDLE</title>
<path fill="none" stroke="black" d="M2333.39,-2068.15C2287.54,-2056.48 2239.04,-2043.96 2194,-2032 2118.16,-2011.86 2034.8,-1988.9 1962.62,-1968.75"/>
<polygon fill="black" stroke="black" points="1963.54,-1965.37 1952.97,-1966.05 1961.66,-1972.11 1963.54,-1965.37"/>
<text text-anchor="middle" x="2299.5" y="-2020.8" font-family="Arial" font-size="14.00">T2: </text>
<text text-anchor="middle" x="2299.5" y="-2005.8" font-family="Arial" font-size="14.00"> event == CARRIER_SENSE_END</text>
</g>
<!-- DS_TRANSMIT -->
<g id="node4" class="node">
<title>DS_TRANSMIT</title>
<polygon fill="lightgrey" stroke="transparent" points="2595,-465 1753,-465 1753,-153 2595,-153 2595,-465"/>
<polygon fill="none" stroke="#000000" stroke-opacity="0.266667" points="1753,-444 1753,-465 2595,-465 2595,-444 1753,-444"/>
<text text-anchor="start" x="2073" y="-450.8" font-family="Helvetica,Arial,sans-serif" font-size="14.00"> &#160;&#160;&#160;&#160;&#160;&#160;&#160;&#160;&#160;&#160;&#160;&#160;&#160;&#160;&#160;DS_TRANSMIT &#160;&#160;&#160;&#160;&#160;&#160;&#160;&#160;&#160;&#160;&#160;</text>
<polygon fill="none" stroke="#000000" stroke-opacity="0.266667" points="1753,-153 1753,-444 2595,-444 2595,-153 1753,-153"/>
<text text-anchor="start" x="1756" y="-429.8" font-family="Helvetica,Arial,sans-serif" font-size="14.00"> &#160;&#160;&#160;&#160;&#160;&#160;&#160;&#160;&#160;&#160;&#160;&#160;&#160;&#160;&#160;packetPending = false; </text>
<text text-anchor="start" x="1756" y="-414.8" font-family="Helvetica,Arial,sans-serif" font-size="14.00"> &#160;&#160;&#160;&#160;&#160;&#160;&#160;&#160;&#160;&#160;&#160;&#160;&#160;&#160;&#160;CARRIER_STATUS = CARRIER_ON; </text>
<text text-anchor="start" x="1756" y="-399.8" font-family="Helvetica,Arial,sans-serif" font-size="14.00"> &#160;&#160;&#160;&#160;&#160;&#160;&#160;&#160;&#160;&#160;&#160;&#160;&#160;&#160;&#160;SIGNAL_STATUS = COL ? SIGNAL_ERROR : NO_SIGNAL_ERROR; </text>
<text text-anchor="start" x="1756" y="-384.8" font-family="Helvetica,Arial,sans-serif" font-size="14.00"> &#160;&#160;&#160;&#160;&#160;&#160;&#160;&#160;&#160;&#160;&#160;&#160;&#160;&#160;&#160;TX_EN = true; </text>
<text text-anchor="start" x="1756" y="-369.8" font-family="Helvetica,Arial,sans-serif" font-size="14.00"> &#160;&#160;&#160;&#160;&#160;&#160;&#160;&#160;&#160;&#160;&#160;&#160;&#160;&#160;&#160;if (tx_cmd != CMD_NONE) { // KLUDGE: end commit signal </text>
<text text-anchor="start" x="1756" y="-354.8" font-family="Helvetica,Arial,sans-serif" font-size="14.00"> &#160;&#160;&#160;&#160;&#160;&#160;&#160;&#160;&#160;&#160;&#160;&#160;&#160;&#160;&#160;. &#160;&#160;FSMA_Delay_Action(phy&#45;&gt;endSignalTransmission(ESDNONE)); </text>
<text text-anchor="start" x="1756" y="-339.8" font-family="Helvetica,Arial,sans-serif" font-size="14.00"> &#160;&#160;&#160;&#160;&#160;&#160;&#160;&#160;&#160;&#160;&#160;&#160;&#160;&#160;&#160;. &#160;&#160;tx_cmd = CMD_NONE; </text>
<text text-anchor="start" x="1756" y="-324.8" font-family="Helvetica,Arial,sans-serif" font-size="14.00"> &#160;&#160;&#160;&#160;&#160;&#160;&#160;&#160;&#160;&#160;&#160;&#160;&#160;&#160;&#160;. &#160;&#160;emit(txCmdSignal, tx_cmd); </text>
<text text-anchor="start" x="1756" y="-309.8" font-family="Helvetica,Arial,sans-serif" font-size="14.00"> &#160;&#160;&#160;&#160;&#160;&#160;&#160;&#160;&#160;&#160;&#160;&#160;&#160;&#160;&#160;} </text>
<text text-anchor="start" x="1756" y="-294.8" font-family="Helvetica,Arial,sans-serif" font-size="14.00"> &#160;&#160;&#160;&#160;&#160;&#160;&#160;&#160;&#160;&#160;&#160;&#160;&#160;&#160;&#160;simtime_t duration = b(currentTx&#45;&gt;getDataLength() + ETHERNET_PHY_HEADER_LEN + getEsdLength()).get() / mode&#45;&gt;bitrate; </text>
<text text-anchor="start" x="1756" y="-279.8" font-family="Helvetica,Arial,sans-serif" font-size="14.00"> &#160;&#160;&#160;&#160;&#160;&#160;&#160;&#160;&#160;&#160;&#160;&#160;&#160;&#160;&#160;scheduleAfter(duration, tx_timer); </text>
<text text-anchor="start" x="1756" y="-264.8" font-family="Helvetica,Arial,sans-serif" font-size="14.00"> &#160;&#160;&#160;&#160;&#160;&#160;&#160;&#160;&#160;&#160;&#160;&#160;&#160;&#160;&#160;ASSERT(macStartFrameTransmissionTime != &#45;1); </text>
<text text-anchor="start" x="1756" y="-249.8" font-family="Helvetica,Arial,sans-serif" font-size="14.00"> &#160;&#160;&#160;&#160;&#160;&#160;&#160;&#160;&#160;&#160;&#160;&#160;&#160;&#160;&#160;emit(packetPendingDelaySignal, simTime() &#45; macStartFrameTransmissionTime); </text>
<text text-anchor="start" x="1756" y="-234.8" font-family="Helvetica,Arial,sans-serif" font-size="14.00"> &#160;&#160;&#160;&#160;&#160;&#160;&#160;&#160;&#160;&#160;&#160;&#160;&#160;&#160;&#160;macStartFrameTransmissionTime = &#45;1; </text>
<text text-anchor="start" x="1756" y="-219.8" font-family="Helvetica,Arial,sans-serif" font-size="14.00"> &#160;&#160;&#160;&#160;&#160;&#160;&#160;&#160;&#160;&#160;&#160;&#160;&#160;&#160;&#160;if (phyStartFrameTransmissionTime != &#45;1) </text>
<text text-anchor="start" x="1756" y="-204.8" font-family="Helvetica,Arial,sans-serif" font-size="14.00"> &#160;&#160;&#160;&#160;&#160;&#160;&#160;&#160;&#160;&#160;&#160;&#160;&#160;&#160;&#160;. &#160;&#160;emit(packetIntervalSignal, simTime() &#45; phyStartFrameTransmissionTime); </text>
<text text-anchor="start" x="1756" y="-189.8" font-family="Helvetica,Arial,sans-serif" font-size="14.00"> &#160;&#160;&#160;&#160;&#160;&#160;&#160;&#160;&#160;&#160;&#160;&#160;&#160;&#160;&#160;phyStartFrameTransmissionTime = simTime(); </text>
<text text-anchor="start" x="1756" y="-174.8" font-family="Helvetica,Arial,sans-serif" font-size="14.00"> &#160;&#160;&#160;&#160;&#160;&#160;&#160;&#160;&#160;&#160;&#160;&#160;&#160;&#160;&#160;FSMA_Delay_Action(phy&#45;&gt;startFrameTransmission(currentTx&#45;&gt;dup(), bc &lt; max_bc &#45; 1 ? ESDBRS : ESD)); </text>
<text text-anchor="start" x="1756" y="-159.8" font-family="Helvetica,Arial,sans-serif" font-size="14.00"> &#160;&#160;&#160;&#160;&#160;&#160;&#160;&#160;&#160;&#160;&#160;&#160;&#160;&#160;&#160;FSMA_Delay_Action(handleWithControlFSM()); &#160;&#160;&#160;&#160;&#160;&#160;&#160;&#160;&#160;&#160;&#160;</text>
</g>
<!-- DS_WAIT_IDLE_to_DS_TRANSMIT&#45;&gt;DS_TRANSMIT -->
<g id="edge4" class="edge">
<title>DS_WAIT_IDLE_to_DS_TRANSMIT&#45;&gt;DS_TRANSMIT</title>
<path fill="none" stroke="black" d="M2722.64,-1791.69C2741.3,-1764.39 2774,-1709.04 2774,-1656.5 2774,-1656.5 2774,-1656.5 2774,-562.5 2774,-511.8 2700.29,-465.61 2604.53,-427.02"/>
<polygon fill="black" stroke="black" points="2605.78,-423.75 2595.2,-423.3 2603.2,-430.25 2605.78,-423.75"/>
</g>
<!-- DS_IDLE&#45;&gt;DS_IDLE -->
<g id="edge7" class="edge">
<title>DS_IDLE&#45;&gt;DS_IDLE</title>
<path fill="none" stroke="black" d="M1975.79,-1933.47C2017.48,-1931.54 2047.5,-1925.38 2047.5,-1915 2047.5,-1905.47 2022.21,-1899.5 1985.8,-1897.09"/>
<polygon fill="black" stroke="black" points="1985.97,-1893.6 1975.79,-1896.53 1985.58,-1900.59 1985.97,-1893.6"/>
<text text-anchor="middle" x="2166.5" y="-1918.8" font-family="Arial" font-size="14.00">event == CARRIER_SENSE_START || </text>
<text text-anchor="middle" x="2166.5" y="-1903.8" font-family="Arial" font-size="14.00"> event == CARRIER_SENSE_END</text>
</g>
<!-- DS_RECEIVE -->
<g id="node5" class="node">
<title>DS_RECEIVE</title>
<polygon fill="lightgrey" stroke="transparent" points="1885,-1756 1207,-1756 1207,-1714 1885,-1714 1885,-1756"/>
<polygon fill="none" stroke="#000000" stroke-opacity="0.266667" points="1207,-1735 1207,-1756 1885,-1756 1885,-1735 1207,-1735"/>
<text text-anchor="start" x="1473" y="-1741.8" font-family="Helvetica,Arial,sans-serif" font-size="14.00"> &#160;&#160;&#160;&#160;&#160;&#160;&#160;&#160;&#160;&#160;&#160;&#160;&#160;&#160;&#160;DS_RECEIVE</text>
<polygon fill="none" stroke="#000000" stroke-opacity="0.266667" points="1207,-1714 1207,-1735 1885,-1735 1885,-1714 1207,-1714"/>
<text text-anchor="start" x="1210" y="-1720.8" font-family="Helvetica,Arial,sans-serif" font-size="14.00"> &#160;&#160;&#160;&#160;&#160;&#160;&#160;&#160;&#160;&#160;&#160;&#160;&#160;&#160;&#160;CARRIER_STATUS = CRS &amp;&amp; rx_cmd != CMD_COMMIT ? CARRIER_ON : CARRIER_OFF; &#160;&#160;&#160;&#160;&#160;&#160;&#160;&#160;&#160;&#160;&#160;</text>
</g>
<!-- DS_IDLE&#45;&gt;DS_RECEIVE -->
<g id="edge5" class="edge">
<title>DS_IDLE&#45;&gt;DS_RECEIVE</title>
<path fill="none" stroke="black" d="M1711.32,-1863.94C1668.82,-1831.05 1614.89,-1789.32 1580.41,-1762.63"/>
<polygon fill="black" stroke="black" points="1582.13,-1759.53 1572.08,-1756.18 1577.84,-1765.07 1582.13,-1759.53"/>
<text text-anchor="middle" x="1757.5" y="-1813.8" font-family="Arial" font-size="14.00">T1: </text>
<text text-anchor="middle" x="1757.5" y="-1798.8" font-family="Arial" font-size="14.00"> event == RECEPTION_START</text>
</g>
<!-- DS_IDLE_to_DS_HOLD -->
<g id="node6" class="node">
<title>DS_IDLE_to_DS_HOLD</title>
<polygon fill="lightgreen" stroke="transparent" points="904.5,-1753 487.5,-1753 487.5,-1717 904.5,-1717 904.5,-1753"/>
<polygon fill="none" stroke="#000000" stroke-opacity="0.266667" points="488,-1717 488,-1753 905,-1753 905,-1717 488,-1717"/>
<text text-anchor="start" x="572" y="-1738.8" font-family="Helvetica,Arial,sans-serif" font-size="14.00"> &#160;&#160;&#160;&#160;&#160;&#160;&#160;&#160;&#160;&#160;&#160;&#160;&#160;&#160;&#160;ASSERT(currentTx == nullptr); </text>
<text text-anchor="start" x="491" y="-1723.8" font-family="Helvetica,Arial,sans-serif" font-size="14.00"> &#160;&#160;&#160;&#160;&#160;&#160;&#160;&#160;&#160;&#160;&#160;&#160;&#160;&#160;&#160;currentTx = check_and_cast&lt;Packet *&gt;(message); &#160;&#160;&#160;&#160;&#160;&#160;&#160;&#160;&#160;&#160;&#160;</text>
</g>
<!-- DS_IDLE&#45;&gt;DS_IDLE_to_DS_HOLD -->
<g id="edge6" class="edge">
<title>DS_IDLE&#45;&gt;DS_IDLE_to_DS_HOLD</title>
<path fill="none" stroke="black" d="M1576.34,-1881.09C1350.77,-1843.92 991.47,-1784.7 809.53,-1754.71"/>
<polygon fill="black" stroke="black" points="809.84,-1751.21 799.4,-1753.04 808.7,-1758.12 809.84,-1751.21"/>
<text text-anchor="middle" x="1372.5" y="-1813.8" font-family="Arial" font-size="14.00">T2: </text>
<text text-anchor="middle" x="1372.5" y="-1798.8" font-family="Arial" font-size="14.00"> event == START_FRAME_TRANSMISSION</text>
</g>
<!-- DS_TRANSMIT&#45;&gt;DS_TRANSMIT -->
<g id="edge33" class="edge">
<title>DS_TRANSMIT&#45;&gt;DS_TRANSMIT</title>
<path fill="none" stroke="black" d="M2595.21,-338.77C2638.98,-332.94 2667,-323.02 2667,-309 2667,-296.08 2643.19,-286.64 2605.17,-280.67"/>
<polygon fill="black" stroke="black" points="2605.61,-277.2 2595.21,-279.23 2604.6,-284.13 2605.61,-277.2"/>
<text text-anchor="middle" x="2786" y="-312.8" font-family="Arial" font-size="14.00">event == CARRIER_SENSE_START || </text>
<text text-anchor="middle" x="2786" y="-297.8" font-family="Arial" font-size="14.00"> event == CARRIER_SENSE_END</text>
</g>
<!-- DS_TRANSMIT_to_DS_WAIT_IDLE -->
<g id="node19" class="node">
<title>DS_TRANSMIT_to_DS_WAIT_IDLE</title>
<polygon fill="lightgreen" stroke="transparent" points="2784.5,-51 2349.5,-51 2349.5,0 2784.5,0 2784.5,-51"/>
<polygon fill="none" stroke="#000000" stroke-opacity="0.266667" points="2350,0.5 2350,-50.5 2785,-50.5 2785,0.5 2350,0.5"/>
<text text-anchor="start" x="2484.5" y="-36.3" font-family="Helvetica,Arial,sans-serif" font-size="14.00"> &#160;&#160;&#160;&#160;&#160;&#160;&#160;&#160;&#160;&#160;&#160;&#160;&#160;&#160;&#160;delete currentTx; </text>
<text text-anchor="start" x="2478.5" y="-21.3" font-family="Helvetica,Arial,sans-serif" font-size="14.00"> &#160;&#160;&#160;&#160;&#160;&#160;&#160;&#160;&#160;&#160;&#160;&#160;&#160;&#160;&#160;currentTx = nullptr; </text>
<text text-anchor="start" x="2353" y="-6.3" font-family="Helvetica,Arial,sans-serif" font-size="14.00"> &#160;&#160;&#160;&#160;&#160;&#160;&#160;&#160;&#160;&#160;&#160;&#160;&#160;&#160;&#160;FSMA_Delay_Action(phy&#45;&gt;endFrameTransmission()); &#160;&#160;&#160;&#160;&#160;&#160;&#160;&#160;&#160;&#160;&#160;</text>
</g>
<!-- DS_TRANSMIT&#45;&gt;DS_TRANSMIT_to_DS_WAIT_IDLE -->
<g id="edge32" class="edge">
<title>DS_TRANSMIT&#45;&gt;DS_TRANSMIT_to_DS_WAIT_IDLE</title>
<path fill="none" stroke="black" d="M2390.62,-152.84C2441.8,-116.18 2491.14,-80.84 2524.55,-56.9"/>
<polygon fill="black" stroke="black" points="2526.61,-59.74 2532.7,-51.07 2522.53,-54.05 2526.61,-59.74"/>
<text text-anchor="middle" x="2564.5" y="-105.8" font-family="Arial" font-size="14.00">T1: </text>
<text text-anchor="middle" x="2564.5" y="-90.8" font-family="Arial" font-size="14.00"> event == END_TX_TIMER</text>
</g>
<!-- DS_RECEIVE_to_DS_IDLE -->
<g id="node8" class="node">
<title>DS_RECEIVE_to_DS_IDLE</title>
<polygon fill="lightgreen" stroke="transparent" points="2351,-1564 1673,-1564 1673,-1543 2351,-1543 2351,-1564"/>
<polygon fill="none" stroke="#000000" stroke-opacity="0.266667" points="1673,-1542.5 1673,-1563.5 2351,-1563.5 2351,-1542.5 1673,-1542.5"/>
<text text-anchor="start" x="1676" y="-1549.3" font-family="Helvetica,Arial,sans-serif" font-size="14.00"> &#160;&#160;&#160;&#160;&#160;&#160;&#160;&#160;&#160;&#160;&#160;&#160;&#160;&#160;&#160;CARRIER_STATUS = CRS &amp;&amp; rx_cmd != CMD_COMMIT ? CARRIER_ON : CARRIER_OFF; &#160;&#160;&#160;&#160;&#160;&#160;&#160;&#160;&#160;&#160;&#160;</text>
</g>
<!-- DS_RECEIVE&#45;&gt;DS_RECEIVE_to_DS_IDLE -->
<g id="edge9" class="edge">
<title>DS_RECEIVE&#45;&gt;DS_RECEIVE_to_DS_IDLE</title>
<path fill="none" stroke="black" d="M1587.32,-1713.84C1632.03,-1692.42 1705.69,-1658.21 1771,-1633 1839.22,-1606.67 1920.42,-1581.44 1969.01,-1566.98"/>
<polygon fill="black" stroke="black" points="1970.27,-1570.26 1978.86,-1564.07 1968.28,-1563.55 1970.27,-1570.26"/>
<text text-anchor="middle" x="1859.5" y="-1659.3" font-family="Arial" font-size="14.00">T1: </text>
<text text-anchor="middle" x="1859.5" y="-1644.3" font-family="Arial" font-size="14.00"> event == RECEPTION_END</text>
</g>
<!-- DS_RECEIVE_to_DS_COLLIDE -->
<g id="node9" class="node">
<title>DS_RECEIVE_to_DS_COLLIDE</title>
<polygon fill="lightgreen" stroke="transparent" points="1024.5,-1469.5 813.5,-1469.5 813.5,-1448.5 1024.5,-1448.5 1024.5,-1469.5"/>
<polygon fill="none" stroke="#000000" stroke-opacity="0.266667" points="814,-1448 814,-1469 1025,-1469 1025,-1448 814,-1448"/>
<text text-anchor="start" x="817" y="-1454.8" font-family="Helvetica,Arial,sans-serif" font-size="14.00"> &#160;&#160;&#160;&#160;&#160;&#160;&#160;&#160;&#160;&#160;&#160;&#160;&#160;&#160;&#160;delete message; &#160;&#160;&#160;&#160;&#160;&#160;&#160;&#160;&#160;&#160;&#160;</text>
</g>
<!-- DS_RECEIVE&#45;&gt;DS_RECEIVE_to_DS_COLLIDE -->
<g id="edge10" class="edge">
<title>DS_RECEIVE&#45;&gt;DS_RECEIVE_to_DS_COLLIDE</title>
<path fill="none" stroke="black" d="M1206.73,-1726.56C1096.95,-1719.01 991.52,-1704.71 945,-1678 906.6,-1655.96 900.54,-1639.16 887,-1597 875.18,-1560.18 876.14,-1547.11 887,-1510 890.43,-1498.28 897.54,-1486.7 904.19,-1477.63"/>
<polygon fill="black" stroke="black" points="907.14,-1479.54 910.53,-1469.5 901.62,-1475.23 907.14,-1479.54"/>
<text text-anchor="middle" x="1081.5" y="-1659.3" font-family="Arial" font-size="14.00">T2: </text>
<text text-anchor="middle" x="1081.5" y="-1644.3" font-family="Arial" font-size="14.00"> event == START_FRAME_TRANSMISSION</text>
</g>
<!-- DS_RECEIVE_to_DS_RECEIVE -->
<g id="node10" class="node">
<title>DS_RECEIVE_to_DS_RECEIVE</title>
<polygon fill="lightgreen" stroke="transparent" points="1601,-1564 923,-1564 923,-1543 1601,-1543 1601,-1564"/>
<polygon fill="none" stroke="#000000" stroke-opacity="0.266667" points="923,-1542.5 923,-1563.5 1601,-1563.5 1601,-1542.5 923,-1542.5"/>
<text text-anchor="start" x="926" y="-1549.3" font-family="Helvetica,Arial,sans-serif" font-size="14.00"> &#160;&#160;&#160;&#160;&#160;&#160;&#160;&#160;&#160;&#160;&#160;&#160;&#160;&#160;&#160;CARRIER_STATUS = CRS &amp;&amp; rx_cmd != CMD_COMMIT ? CARRIER_ON : CARRIER_OFF; &#160;&#160;&#160;&#160;&#160;&#160;&#160;&#160;&#160;&#160;&#160;</text>
</g>
<!-- DS_RECEIVE&#45;&gt;DS_RECEIVE_to_DS_RECEIVE -->
<g id="edge11" class="edge">
<title>DS_RECEIVE&#45;&gt;DS_RECEIVE_to_DS_RECEIVE</title>
<path fill="none" stroke="black" d="M1337.26,-1713.98C1296.64,-1705.76 1262.44,-1694.21 1249,-1678 1224.46,-1648.4 1240.42,-1600.11 1252.36,-1573.53"/>
<polygon fill="black" stroke="black" points="1255.67,-1574.73 1256.8,-1564.19 1249.35,-1571.72 1255.67,-1574.73"/>
<text text-anchor="middle" x="1370" y="-1666.8" font-family="Arial" font-size="14.00">T3: </text>
<text text-anchor="middle" x="1370" y="-1651.8" font-family="Arial" font-size="14.00"> event == CARRIER_SENSE_START || </text>
<text text-anchor="middle" x="1370" y="-1636.8" font-family="Arial" font-size="14.00"> event == CARRIER_SENSE_END</text>
</g>
<!-- DS_HOLD -->
<g id="node7" class="node">
<title>DS_HOLD</title>
<polygon fill="lightgrey" stroke="transparent" points="460,-1597 0,-1597 0,-1510 460,-1510 460,-1597"/>
<polygon fill="none" stroke="#000000" stroke-opacity="0.266667" points="0,-1575.5 0,-1596.5 460,-1596.5 460,-1575.5 0,-1575.5"/>
<text text-anchor="start" x="145" y="-1582.3" font-family="Helvetica,Arial,sans-serif" font-size="14.00"> &#160;&#160;&#160;&#160;&#160;&#160;&#160;&#160;&#160;&#160;&#160;&#160;&#160;&#160;&#160;DS_HOLD &#160;&#160;&#160;&#160;&#160;&#160;&#160;&#160;&#160;&#160;&#160;</text>
<polygon fill="none" stroke="#000000" stroke-opacity="0.266667" points="0,-1509.5 0,-1575.5 460,-1575.5 460,-1509.5 0,-1509.5"/>
<text text-anchor="start" x="3" y="-1561.3" font-family="Helvetica,Arial,sans-serif" font-size="14.00"> &#160;&#160;&#160;&#160;&#160;&#160;&#160;&#160;&#160;&#160;&#160;&#160;&#160;&#160;&#160;packetPending = true; </text>
<text text-anchor="start" x="3" y="-1546.3" font-family="Helvetica,Arial,sans-serif" font-size="14.00"> &#160;&#160;&#160;&#160;&#160;&#160;&#160;&#160;&#160;&#160;&#160;&#160;&#160;&#160;&#160;CARRIER_STATUS = CARRIER_ON; </text>
<text text-anchor="start" x="3" y="-1531.3" font-family="Helvetica,Arial,sans-serif" font-size="14.00"> &#160;&#160;&#160;&#160;&#160;&#160;&#160;&#160;&#160;&#160;&#160;&#160;&#160;&#160;&#160;scheduleAfter(delay_line_length * 4 / mode&#45;&gt;bitrate, hold_timer); </text>
<text text-anchor="start" x="3" y="-1516.3" font-family="Helvetica,Arial,sans-serif" font-size="14.00"> &#160;&#160;&#160;&#160;&#160;&#160;&#160;&#160;&#160;&#160;&#160;&#160;&#160;&#160;&#160;FSMA_Delay_Action(handleWithControlFSM()); &#160;&#160;&#160;&#160;&#160;&#160;&#160;&#160;&#160;&#160;&#160;</text>
</g>
<!-- DS_IDLE_to_DS_HOLD&#45;&gt;DS_HOLD -->
<g id="edge8" class="edge">
<title>DS_IDLE_to_DS_HOLD&#45;&gt;DS_HOLD</title>
<path fill="none" stroke="black" d="M651.74,-1716.95C583.18,-1690.54 448.94,-1638.83 350.25,-1600.82"/>
<polygon fill="black" stroke="black" points="351.4,-1597.51 340.81,-1597.18 348.89,-1604.04 351.4,-1597.51"/>
</g>
<!-- DS_HOLD&#45;&gt;DS_HOLD -->
<g id="edge18" class="edge">
<title>DS_HOLD&#45;&gt;DS_HOLD</title>
<path fill="none" stroke="black" d="M460.11,-1570.17C502.34,-1568.08 532,-1562.52 532,-1553.5 532,-1545.22 507.01,-1539.86 470.24,-1537.41"/>
<polygon fill="black" stroke="black" points="470.29,-1533.91 460.11,-1536.83 469.89,-1540.9 470.29,-1533.91"/>
<text text-anchor="middle" x="645.5" y="-1557.3" font-family="Arial" font-size="14.00">event == CARRIER_SENSE_START </text>
<text text-anchor="middle" x="645.5" y="-1542.3" font-family="Arial" font-size="14.00"> || event == CARRIER_SENSE_END</text>
</g>
<!-- DS_HOLD_to_DS_COLLIDE_T1 -->
<g id="node12" class="node">
<title>DS_HOLD_to_DS_COLLIDE_T1</title>
<polygon fill="lightgreen" stroke="transparent" points="467.5,-1400.5 242.5,-1400.5 242.5,-1364.5 467.5,-1364.5 467.5,-1400.5"/>
<polygon fill="none" stroke="#000000" stroke-opacity="0.266667" points="243,-1364.5 243,-1400.5 468,-1400.5 468,-1364.5 243,-1364.5"/>
<text text-anchor="start" x="272.5" y="-1386.3" font-family="Helvetica,Arial,sans-serif" font-size="14.00"> &#160;&#160;&#160;&#160;&#160;&#160;&#160;&#160;&#160;&#160;&#160;&#160;&#160;&#160;&#160;delete currentTx; </text>
<text text-anchor="start" x="246" y="-1371.3" font-family="Helvetica,Arial,sans-serif" font-size="14.00"> &#160;&#160;&#160;&#160;&#160;&#160;&#160;&#160;&#160;&#160;&#160;&#160;&#160;&#160;&#160;currentTx = nullptr; &#160;&#160;&#160;&#160;&#160;&#160;&#160;&#160;&#160;&#160;&#160;</text>
</g>
<!-- DS_HOLD&#45;&gt;DS_HOLD_to_DS_COLLIDE_T1 -->
<g id="edge15" class="edge">
<title>DS_HOLD&#45;&gt;DS_HOLD_to_DS_COLLIDE_T1</title>
<path fill="none" stroke="black" d="M261.54,-1509.85C285.17,-1477.91 316.69,-1435.3 336.41,-1408.63"/>
<polygon fill="black" stroke="black" points="339.24,-1410.69 342.38,-1400.57 333.62,-1406.52 339.24,-1410.69"/>
<text text-anchor="middle" x="403" y="-1462.8" font-family="Arial" font-size="14.00">T1: </text>
<text text-anchor="middle" x="403" y="-1447.8" font-family="Arial" font-size="14.00"> event == END_HOLD_TIMER,</text>
</g>
<!-- DS_HOLD_to_DS_COLLIDE_T2 -->
<g id="node13" class="node">
<title>DS_HOLD_to_DS_COLLIDE_T2</title>
<polygon fill="lightgreen" stroke="transparent" points="806,-1408 544,-1408 544,-1357 806,-1357 806,-1408"/>
<polygon fill="none" stroke="#000000" stroke-opacity="0.266667" points="544,-1356.5 544,-1407.5 806,-1407.5 806,-1356.5 544,-1356.5"/>
<text text-anchor="start" x="592" y="-1393.3" font-family="Helvetica,Arial,sans-serif" font-size="14.00"> &#160;&#160;&#160;&#160;&#160;&#160;&#160;&#160;&#160;&#160;&#160;&#160;&#160;&#160;&#160;delete currentTx; </text>
<text text-anchor="start" x="586" y="-1378.3" font-family="Helvetica,Arial,sans-serif" font-size="14.00"> &#160;&#160;&#160;&#160;&#160;&#160;&#160;&#160;&#160;&#160;&#160;&#160;&#160;&#160;&#160;currentTx = nullptr; </text>
<text text-anchor="start" x="547" y="-1363.3" font-family="Helvetica,Arial,sans-serif" font-size="14.00"> &#160;&#160;&#160;&#160;&#160;&#160;&#160;&#160;&#160;&#160;&#160;&#160;&#160;&#160;&#160;cancelEvent(hold_timer); &#160;&#160;&#160;&#160;&#160;&#160;&#160;&#160;&#160;&#160;&#160;</text>
</g>
<!-- DS_HOLD&#45;&gt;DS_HOLD_to_DS_COLLIDE_T2 -->
<g id="edge16" class="edge">
<title>DS_HOLD&#45;&gt;DS_HOLD_to_DS_COLLIDE_T2</title>
<path fill="none" stroke="black" d="M411.95,-1509.91C447.01,-1499.65 483.06,-1487.64 516,-1474 555.93,-1457.46 598.33,-1432.94 629.3,-1413.59"/>
<polygon fill="black" stroke="black" points="631.53,-1416.32 638.12,-1408.02 627.79,-1410.4 631.53,-1416.32"/>
<text text-anchor="middle" x="670.5" y="-1462.8" font-family="Arial" font-size="14.00">T2: </text>
<text text-anchor="middle" x="670.5" y="-1447.8" font-family="Arial" font-size="14.00"> event == RECEPTION_START</text>
</g>
<!-- DS_HOLD_to_DS_TRANSMIT -->
<g id="node14" class="node">
<title>DS_HOLD_to_DS_TRANSMIT</title>
<polygon fill="lightgreen" stroke="transparent" points="321,-1321 59,-1321 59,-1300 321,-1300 321,-1321"/>
<polygon fill="none" stroke="#000000" stroke-opacity="0.266667" points="59,-1299.5 59,-1320.5 321,-1320.5 321,-1299.5 59,-1299.5"/>
<text text-anchor="start" x="62" y="-1306.3" font-family="Helvetica,Arial,sans-serif" font-size="14.00"> &#160;&#160;&#160;&#160;&#160;&#160;&#160;&#160;&#160;&#160;&#160;&#160;&#160;&#160;&#160;cancelEvent(hold_timer); &#160;&#160;&#160;&#160;&#160;&#160;&#160;&#160;&#160;&#160;&#160;</text>
</g>
<!-- DS_HOLD&#45;&gt;DS_HOLD_to_DS_TRANSMIT -->
<g id="edge17" class="edge">
<title>DS_HOLD&#45;&gt;DS_HOLD_to_DS_TRANSMIT</title>
<path fill="none" stroke="black" d="M155.21,-1509.95C143.41,-1499.76 132.86,-1487.77 126,-1474 100.55,-1422.89 147.16,-1359.05 173.6,-1328.86"/>
<polygon fill="black" stroke="black" points="176.34,-1331.05 180.44,-1321.28 171.14,-1326.36 176.34,-1331.05"/>
<text text-anchor="middle" x="198.5" y="-1462.8" font-family="Arial" font-size="14.00">T3: </text>
<text text-anchor="middle" x="198.5" y="-1447.8" font-family="Arial" font-size="14.00"> event == COMMIT_TO</text>
</g>
<!-- DS_RECEIVE_to_DS_IDLE&#45;&gt;DS_IDLE -->
<g id="edge12" class="edge">
<title>DS_RECEIVE_to_DS_IDLE&#45;&gt;DS_IDLE</title>
<path fill="none" stroke="black" d="M2008.98,-1564.22C1996.91,-1601.81 1949.11,-1739.89 1872,-1828 1863.43,-1837.8 1853.79,-1847.58 1844.02,-1856.85"/>
<polygon fill="black" stroke="black" points="1841.46,-1854.45 1836.54,-1863.83 1846.24,-1859.57 1841.46,-1854.45"/>
</g>
<!-- DS_COLLIDE -->
<g id="node11" class="node">
<title>DS_COLLIDE</title>
<polygon fill="lightgrey" stroke="transparent" points="1105.5,-1264 706.5,-1264 706.5,-1177 1105.5,-1177 1105.5,-1264"/>
<polygon fill="none" stroke="#000000" stroke-opacity="0.266667" points="707,-1242.5 707,-1263.5 1106,-1263.5 1106,-1242.5 707,-1242.5"/>
<text text-anchor="start" x="811.5" y="-1249.3" font-family="Helvetica,Arial,sans-serif" font-size="14.00"> &#160;&#160;&#160;&#160;&#160;&#160;&#160;&#160;&#160;&#160;&#160;&#160;&#160;&#160;&#160;DS_COLLIDE &#160;&#160;&#160;&#160;&#160;&#160;&#160;&#160;&#160;&#160;&#160;</text>
<polygon fill="none" stroke="#000000" stroke-opacity="0.266667" points="707,-1176.5 707,-1242.5 1106,-1242.5 1106,-1176.5 707,-1176.5"/>
<text text-anchor="start" x="710" y="-1228.3" font-family="Helvetica,Arial,sans-serif" font-size="14.00"> &#160;&#160;&#160;&#160;&#160;&#160;&#160;&#160;&#160;&#160;&#160;&#160;&#160;&#160;&#160;packetPending = false; </text>
<text text-anchor="start" x="710" y="-1213.3" font-family="Helvetica,Arial,sans-serif" font-size="14.00"> &#160;&#160;&#160;&#160;&#160;&#160;&#160;&#160;&#160;&#160;&#160;&#160;&#160;&#160;&#160;CARRIER_STATUS = CARRIER_ON; </text>
<text text-anchor="start" x="710" y="-1198.3" font-family="Helvetica,Arial,sans-serif" font-size="14.00"> &#160;&#160;&#160;&#160;&#160;&#160;&#160;&#160;&#160;&#160;&#160;&#160;&#160;&#160;&#160;SIGNAL_STATUS = SIGNAL_ERROR; </text>
<text text-anchor="start" x="710" y="-1183.3" font-family="Helvetica,Arial,sans-serif" font-size="14.00"> &#160;&#160;&#160;&#160;&#160;&#160;&#160;&#160;&#160;&#160;&#160;&#160;&#160;&#160;&#160;FSMA_Delay_Action(handleWithControlFSM()); &#160;&#160;&#160;&#160;&#160;&#160;&#160;&#160;&#160;&#160;&#160;</text>
</g>
<!-- DS_RECEIVE_to_DS_COLLIDE&#45;&gt;DS_COLLIDE -->
<g id="edge13" class="edge">
<title>DS_RECEIVE_to_DS_COLLIDE&#45;&gt;DS_COLLIDE</title>
<path fill="none" stroke="black" d="M918.47,-1448.44C916.89,-1419.58 912.06,-1331.82 908.9,-1274.27"/>
<polygon fill="black" stroke="black" points="912.39,-1274.05 908.35,-1264.26 905.4,-1274.43 912.39,-1274.05"/>
</g>
<!-- DS_RECEIVE_to_DS_RECEIVE&#45;&gt;DS_RECEIVE -->
<g id="edge14" class="edge">
<title>DS_RECEIVE_to_DS_RECEIVE&#45;&gt;DS_RECEIVE</title>
<path fill="none" stroke="black" d="M1348.51,-1564.03C1399.59,-1573.76 1462.38,-1593.39 1505,-1633 1524.98,-1651.57 1535.46,-1681.26 1540.8,-1703.65"/>
<polygon fill="black" stroke="black" points="1537.44,-1704.63 1542.97,-1713.67 1544.28,-1703.15 1537.44,-1704.63"/>
</g>
<!-- DS_COLLIDE&#45;&gt;DS_COLLIDE -->
<g id="edge23" class="edge">
<title>DS_COLLIDE&#45;&gt;DS_COLLIDE</title>
<path fill="none" stroke="black" d="M1105.79,-1236.79C1147.48,-1235.09 1177.5,-1229.66 1177.5,-1220.5 1177.5,-1212.09 1152.21,-1206.82 1115.8,-1204.7"/>
<polygon fill="black" stroke="black" points="1115.95,-1201.2 1105.79,-1204.21 1115.6,-1208.19 1115.95,-1201.2"/>
<text text-anchor="middle" x="1296.5" y="-1239.3" font-family="Arial" font-size="14.00">event == CARRIER_SENSE_START || </text>
<text text-anchor="middle" x="1296.5" y="-1224.3" font-family="Arial" font-size="14.00"> event == CARRIER_SENSE_END || </text>
<text text-anchor="middle" x="1296.5" y="-1209.3" font-family="Arial" font-size="14.00"> event == RECEPTION_START || </text>
<text text-anchor="middle" x="1296.5" y="-1194.3" font-family="Arial" font-size="14.00"> event == RECEPTION_END</text>
</g>
<!-- DS_DELAY_PENDING -->
<g id="node15" class="node">
<title>DS_DELAY_PENDING</title>
<polygon fill="lightgrey" stroke="transparent" points="1612.5,-1073.5 1191.5,-1073.5 1191.5,-1016.5 1612.5,-1016.5 1612.5,-1073.5"/>
<polygon fill="none" stroke="#000000" stroke-opacity="0.266667" points="1192,-1052 1192,-1073 1613,-1073 1613,-1052 1192,-1052"/>
<text text-anchor="start" x="1279.5" y="-1058.8" font-family="Helvetica,Arial,sans-serif" font-size="14.00"> &#160;&#160;&#160;&#160;&#160;&#160;&#160;&#160;&#160;&#160;&#160;&#160;&#160;&#160;&#160;DS_DELAY_PENDING &#160;&#160;&#160;&#160;&#160;&#160;&#160;&#160;&#160;&#160;&#160;</text>
<polygon fill="none" stroke="#000000" stroke-opacity="0.266667" points="1192,-1016 1192,-1052 1613,-1052 1613,-1016 1192,-1016"/>
<text text-anchor="start" x="1195" y="-1037.8" font-family="Helvetica,Arial,sans-serif" font-size="14.00"> &#160;&#160;&#160;&#160;&#160;&#160;&#160;&#160;&#160;&#160;&#160;&#160;&#160;&#160;&#160;SIGNAL_STATUS = NO_SIGNAL_ERROR; </text>
<text text-anchor="start" x="1195" y="-1022.8" font-family="Helvetica,Arial,sans-serif" font-size="14.00"> &#160;&#160;&#160;&#160;&#160;&#160;&#160;&#160;&#160;&#160;&#160;&#160;&#160;&#160;&#160;scheduleAfter(512 / mode&#45;&gt;bitrate, pending_timer); &#160;&#160;&#160;&#160;&#160;&#160;&#160;&#160;&#160;&#160;&#160;</text>
</g>
<!-- DS_COLLIDE&#45;&gt;DS_DELAY_PENDING -->
<g id="edge22" class="edge">
<title>DS_COLLIDE&#45;&gt;DS_DELAY_PENDING</title>
<path fill="none" stroke="black" d="M1027.65,-1176.95C1116.12,-1146 1233.87,-1104.81 1313.5,-1076.96"/>
<polygon fill="black" stroke="black" points="1314.74,-1080.23 1323.02,-1073.63 1312.42,-1073.63 1314.74,-1080.23"/>
<text text-anchor="middle" x="1342.5" y="-1129.8" font-family="Arial" font-size="14.00">T1: </text>
<text text-anchor="middle" x="1342.5" y="-1114.8" font-family="Arial" font-size="14.00"> event == END_SIGNAL_TRANSMISSION</text>
</g>
<!-- DS_HOLD_to_DS_COLLIDE_T1&#45;&gt;DS_COLLIDE -->
<g id="edge19" class="edge">
<title>DS_HOLD_to_DS_COLLIDE_T1&#45;&gt;DS_COLLIDE</title>
<path fill="none" stroke="black" d="M413.71,-1364.45C493.12,-1341.39 637.73,-1299.4 749.75,-1266.87"/>
<polygon fill="black" stroke="black" points="750.83,-1270.2 759.46,-1264.05 748.88,-1263.48 750.83,-1270.2"/>
</g>
<!-- DS_HOLD_to_DS_COLLIDE_T2&#45;&gt;DS_COLLIDE -->
<g id="edge20" class="edge">
<title>DS_HOLD_to_DS_COLLIDE_T2&#45;&gt;DS_COLLIDE</title>
<path fill="none" stroke="black" d="M710.59,-1356.85C743.86,-1333.81 794.48,-1298.74 835.86,-1270.08"/>
<polygon fill="black" stroke="black" points="838.05,-1272.82 844.28,-1264.25 834.06,-1267.07 838.05,-1272.82"/>
</g>
<!-- DS_HOLD_to_DS_TRANSMIT&#45;&gt;DS_TRANSMIT -->
<g id="edge21" class="edge">
<title>DS_HOLD_to_DS_TRANSMIT&#45;&gt;DS_TRANSMIT</title>
<path fill="none" stroke="black" d="M321.07,-1303.05C438.39,-1289.37 592,-1248.29 592,-1127 592,-1127 592,-1127 592,-562.5 592,-445.59 1274.49,-373.32 1742.92,-337.49"/>
<polygon fill="black" stroke="black" points="1743.2,-340.98 1752.91,-336.73 1742.67,-334 1743.2,-340.98"/>
</g>
<!-- DS_DELAY_PENDING&#45;&gt;DS_DELAY_PENDING -->
<g id="edge25" class="edge">
<title>DS_DELAY_PENDING&#45;&gt;DS_DELAY_PENDING</title>
<path fill="none" stroke="black" d="M1612.67,-1059.38C1654.6,-1057.76 1684.5,-1052.97 1684.5,-1045 1684.5,-1037.68 1659.31,-1033.05 1622.74,-1031.08"/>
<polygon fill="black" stroke="black" points="1622.82,-1027.58 1612.67,-1030.62 1622.5,-1034.57 1622.82,-1027.58"/>
<text text-anchor="middle" x="1803.5" y="-1063.8" font-family="Arial" font-size="14.00">event == CARRIER_SENSE_START || </text>
<text text-anchor="middle" x="1803.5" y="-1048.8" font-family="Arial" font-size="14.00"> event == CARRIER_SENSE_END || </text>
<text text-anchor="middle" x="1803.5" y="-1033.8" font-family="Arial" font-size="14.00"> event == RECEPTION_START || </text>
<text text-anchor="middle" x="1803.5" y="-1018.8" font-family="Arial" font-size="14.00"> event == RECEPTION_END</text>
</g>
<!-- DS_PENDING -->
<g id="node16" class="node">
<title>DS_PENDING</title>
<polygon fill="lightgrey" stroke="transparent" points="2089.5,-911.5 1690.5,-911.5 1690.5,-854.5 2089.5,-854.5 2089.5,-911.5"/>
<polygon fill="none" stroke="#000000" stroke-opacity="0.266667" points="1691,-890 1691,-911 2090,-911 2090,-890 1691,-890"/>
<text text-anchor="start" x="1793.5" y="-896.8" font-family="Helvetica,Arial,sans-serif" font-size="14.00"> &#160;&#160;&#160;&#160;&#160;&#160;&#160;&#160;&#160;&#160;&#160;&#160;&#160;&#160;&#160;DS_PENDING &#160;&#160;&#160;&#160;&#160;&#160;&#160;&#160;&#160;&#160;&#160;</text>
<polygon fill="none" stroke="#000000" stroke-opacity="0.266667" points="1691,-854 1691,-890 2090,-890 2090,-854 1691,-854"/>
<text text-anchor="start" x="1694" y="-875.8" font-family="Helvetica,Arial,sans-serif" font-size="14.00"> &#160;&#160;&#160;&#160;&#160;&#160;&#160;&#160;&#160;&#160;&#160;&#160;&#160;&#160;&#160;packetPending = true; </text>
<text text-anchor="start" x="1694" y="-860.8" font-family="Helvetica,Arial,sans-serif" font-size="14.00"> &#160;&#160;&#160;&#160;&#160;&#160;&#160;&#160;&#160;&#160;&#160;&#160;&#160;&#160;&#160;FSMA_Delay_Action(handleWithControlFSM()); &#160;&#160;&#160;&#160;&#160;&#160;&#160;&#160;&#160;&#160;&#160;</text>
</g>
<!-- DS_DELAY_PENDING&#45;&gt;DS_PENDING -->
<g id="edge24" class="edge">
<title>DS_DELAY_PENDING&#45;&gt;DS_PENDING</title>
<path fill="none" stroke="black" d="M1485.89,-1016.5C1572.26,-988.18 1706.56,-944.14 1796.35,-914.71"/>
<polygon fill="black" stroke="black" points="1797.57,-917.99 1805.98,-911.55 1795.39,-911.34 1797.57,-917.99"/>
<text text-anchor="middle" x="1794" y="-967.8" font-family="Arial" font-size="14.00">T1: </text>
<text text-anchor="middle" x="1794" y="-952.8" font-family="Arial" font-size="14.00"> event == END_PENDING_TIMER</text>
</g>
<!-- DS_PENDING&#45;&gt;DS_PENDING -->
<g id="edge27" class="edge">
<title>DS_PENDING&#45;&gt;DS_PENDING</title>
<path fill="none" stroke="black" d="M2089.79,-897.48C2131.48,-895.97 2161.5,-891.14 2161.5,-883 2161.5,-875.52 2136.21,-870.84 2099.8,-868.96"/>
<polygon fill="black" stroke="black" points="2099.93,-865.46 2089.79,-868.52 2099.62,-872.45 2099.93,-865.46"/>
<text text-anchor="middle" x="2280.5" y="-901.8" font-family="Arial" font-size="14.00">event == CARRIER_SENSE_START || </text>
<text text-anchor="middle" x="2280.5" y="-886.8" font-family="Arial" font-size="14.00"> event == CARRIER_SENSE_END || </text>
<text text-anchor="middle" x="2280.5" y="-871.8" font-family="Arial" font-size="14.00"> event == RECEPTION_START || </text>
<text text-anchor="middle" x="2280.5" y="-856.8" font-family="Arial" font-size="14.00"> event == RECEPTION_END</text>
</g>
<!-- DS_WAIT_MAC -->
<g id="node17" class="node">
<title>DS_WAIT_MAC</title>
<polygon fill="lightgrey" stroke="transparent" points="2381,-749.5 1967,-749.5 1967,-692.5 2381,-692.5 2381,-749.5"/>
<polygon fill="none" stroke="#000000" stroke-opacity="0.266667" points="1967,-728 1967,-749 2381,-749 2381,-728 1967,-728"/>
<text text-anchor="start" x="2072.5" y="-734.8" font-family="Helvetica,Arial,sans-serif" font-size="14.00"> &#160;&#160;&#160;&#160;&#160;&#160;&#160;&#160;&#160;&#160;&#160;&#160;&#160;&#160;&#160;DS_WAIT_MAC &#160;&#160;&#160;&#160;&#160;&#160;&#160;&#160;&#160;&#160;&#160;</text>
<polygon fill="none" stroke="#000000" stroke-opacity="0.266667" points="1967,-692 1967,-728 2381,-728 2381,-692 1967,-692"/>
<text text-anchor="start" x="1970" y="-713.8" font-family="Helvetica,Arial,sans-serif" font-size="14.00"> &#160;&#160;&#160;&#160;&#160;&#160;&#160;&#160;&#160;&#160;&#160;&#160;&#160;&#160;&#160;CARRIER_STATUS = CARRIER_OFF; </text>
<text text-anchor="start" x="1970" y="-698.8" font-family="Helvetica,Arial,sans-serif" font-size="14.00"> &#160;&#160;&#160;&#160;&#160;&#160;&#160;&#160;&#160;&#160;&#160;&#160;&#160;&#160;&#160;scheduleAfter(288 / mode&#45;&gt;bitrate, commit_timer) &#160;&#160;&#160;&#160;&#160;&#160;&#160;&#160;&#160;&#160;&#160;</text>
</g>
<!-- DS_PENDING&#45;&gt;DS_WAIT_MAC -->
<g id="edge26" class="edge">
<title>DS_PENDING&#45;&gt;DS_WAIT_MAC</title>
<path fill="none" stroke="black" d="M1938.82,-854.5C1988,-826.79 2063.86,-784.05 2116.05,-754.65"/>
<polygon fill="black" stroke="black" points="2117.87,-757.64 2124.87,-749.68 2114.43,-751.54 2117.87,-757.64"/>
<text text-anchor="middle" x="2129.5" y="-805.8" font-family="Arial" font-size="14.00">T1: </text>
<text text-anchor="middle" x="2129.5" y="-790.8" font-family="Arial" font-size="14.00"> event == COMMIT_TO</text>
</g>
<!-- DS_WAIT_MAC&#45;&gt;DS_WAIT_IDLE -->
<g id="edge29" class="edge">
<title>DS_WAIT_MAC&#45;&gt;DS_WAIT_IDLE</title>
<path fill="none" stroke="black" d="M2324.12,-749.61C2393.17,-771.87 2460,-811.59 2460,-882 2460,-1916 2460,-1916 2460,-1916 2460,-1966.23 2480.21,-2019.53 2499.36,-2058.75"/>
<polygon fill="black" stroke="black" points="2496.34,-2060.53 2503.94,-2067.91 2502.6,-2057.4 2496.34,-2060.53"/>
<text text-anchor="middle" x="2562.5" y="-1386.3" font-family="Arial" font-size="14.00">T2: </text>
<text text-anchor="middle" x="2562.5" y="-1371.3" font-family="Arial" font-size="14.00"> event == END_COMMIT_TIMER</text>
</g>
<!-- DS_WAIT_MAC&#45;&gt;DS_WAIT_MAC -->
<g id="edge30" class="edge">
<title>DS_WAIT_MAC&#45;&gt;DS_WAIT_MAC</title>
<path fill="none" stroke="black" d="M2381.15,-735.42C2423.04,-733.83 2453,-729.03 2453,-721 2453,-713.63 2427.75,-708.98 2391.21,-707.04"/>
<polygon fill="black" stroke="black" points="2391.3,-703.54 2381.15,-706.58 2390.98,-710.53 2391.3,-703.54"/>
<text text-anchor="middle" x="2572" y="-739.8" font-family="Arial" font-size="14.00">event == CARRIER_SENSE_START || </text>
<text text-anchor="middle" x="2572" y="-724.8" font-family="Arial" font-size="14.00"> event == CARRIER_SENSE_END || </text>
<text text-anchor="middle" x="2572" y="-709.8" font-family="Arial" font-size="14.00"> event == RECEPTION_START || </text>
<text text-anchor="middle" x="2572" y="-694.8" font-family="Arial" font-size="14.00"> event == RECEPTION_END</text>
</g>
<!-- DS_WAIT_MAC_to_DS_TRANSMIT -->
<g id="node18" class="node">
<title>DS_WAIT_MAC_to_DS_TRANSMIT</title>
<polygon fill="lightgreen" stroke="transparent" points="2382.5,-589 1965.5,-589 1965.5,-538 2382.5,-538 2382.5,-589"/>
<polygon fill="none" stroke="#000000" stroke-opacity="0.266667" points="1966,-537.5 1966,-588.5 2383,-588.5 2383,-537.5 1966,-537.5"/>
<text text-anchor="start" x="2057.5" y="-574.3" font-family="Helvetica,Arial,sans-serif" font-size="14.00"> &#160;&#160;&#160;&#160;&#160;&#160;&#160;&#160;&#160;&#160;&#160;&#160;&#160;&#160;&#160;cancelEvent(commit_timer); </text>
<text text-anchor="start" x="2050" y="-559.3" font-family="Helvetica,Arial,sans-serif" font-size="14.00"> &#160;&#160;&#160;&#160;&#160;&#160;&#160;&#160;&#160;&#160;&#160;&#160;&#160;&#160;&#160;ASSERT(currentTx == nullptr); </text>
<text text-anchor="start" x="1969" y="-544.3" font-family="Helvetica,Arial,sans-serif" font-size="14.00"> &#160;&#160;&#160;&#160;&#160;&#160;&#160;&#160;&#160;&#160;&#160;&#160;&#160;&#160;&#160;currentTx = check_and_cast&lt;Packet *&gt;(message); &#160;&#160;&#160;&#160;&#160;&#160;&#160;&#160;&#160;&#160;&#160;</text>
</g>
<!-- DS_WAIT_MAC&#45;&gt;DS_WAIT_MAC_to_DS_TRANSMIT -->
<g id="edge28" class="edge">
<title>DS_WAIT_MAC&#45;&gt;DS_WAIT_MAC_to_DS_TRANSMIT</title>
<path fill="none" stroke="black" d="M2174,-692.2C2174,-666.25 2174,-627.43 2174,-599.4"/>
<polygon fill="black" stroke="black" points="2177.5,-599.24 2174,-589.24 2170.5,-599.24 2177.5,-599.24"/>
<text text-anchor="middle" x="2310.5" y="-643.8" font-family="Arial" font-size="14.00">T1: </text>
<text text-anchor="middle" x="2310.5" y="-628.8" font-family="Arial" font-size="14.00"> event == START_FRAME_TRANSMISSION</text>
</g>
<!-- DS_WAIT_MAC_to_DS_TRANSMIT&#45;&gt;DS_TRANSMIT -->
<g id="edge31" class="edge">
<title>DS_WAIT_MAC_to_DS_TRANSMIT&#45;&gt;DS_TRANSMIT</title>
<path fill="none" stroke="black" d="M2174,-537.83C2174,-521.91 2174,-499.65 2174,-475.24"/>
<polygon fill="black" stroke="black" points="2177.5,-475.04 2174,-465.04 2170.5,-475.04 2177.5,-475.04"/>
</g>
<!-- DS_TRANSMIT_to_DS_WAIT_IDLE&#45;&gt;DS_WAIT_IDLE -->
<g id="edge34" class="edge">
<title>DS_TRANSMIT_to_DS_WAIT_IDLE&#45;&gt;DS_WAIT_IDLE</title>
<path fill="none" stroke="black" d="M2687.12,-51.06C2752.8,-69.67 2831.78,-101.19 2887,-153 2942.53,-205.1 2960,-231.85 2960,-308 2960,-1916 2960,-1916 2960,-1916 2960,-2022.17 2850.8,-2072.61 2742.85,-2096.55"/>
<polygon fill="black" stroke="black" points="2741.79,-2093.19 2732.75,-2098.71 2743.26,-2100.04 2741.79,-2093.19"/>
</g>
</g>
</svg>
