<?xml version="1.0" encoding="UTF-8" standalone="no"?>
<!DOCTYPE svg PUBLIC "-//W3C//DTD SVG 1.1//EN"
 "http://www.w3.org/Graphics/SVG/1.1/DTD/svg11.dtd">
<!-- Generated by graphviz version 2.43.0 (0)
 -->
<!-- Title: EthernetPlcaDataFsm Pages: 1 -->
<svg width="1405pt" height="2566pt"
 viewBox="0.00 0.00 1405.00 2566.19" xmlns="http://www.w3.org/2000/svg" xmlns:xlink="http://www.w3.org/1999/xlink">
<g id="graph0" class="graph" transform="scale(1 1) rotate(0) translate(4 2562.19)">
<title>EthernetPlcaDataFsm</title>
<polygon fill="white" stroke="transparent" points="-4,4 -4,-2562.19 1401,-2562.19 1401,4 -4,4"/>
<text text-anchor="middle" x="698.5" y="-2538.19" font-family="Helvetica,Arial,sans-serif" font-size="20.00">EthernetPlcaCtrl</text>
<!-- Global1 -->
<g id="node1" class="node">
<title>Global1</title>
<ellipse fill="lightgrey" stroke="black" cx="476.5" cy="-2486.6" rx="41.69" ry="41.69"/>
<text text-anchor="middle" x="476.5" y="-2482.9" font-family="Helvetica,Arial,sans-serif" font-size="14.00">Global1</text>
</g>
<!-- NORMAL -->
<g id="node2" class="node">
<title>NORMAL</title>
<polygon fill="lightgrey" stroke="transparent" points="651.5,-2328 301.5,-2328 301.5,-2091 651.5,-2091 651.5,-2328"/>
<polygon fill="none" stroke="#000000" stroke-opacity="0.266667" points="301.5,-2306.5 301.5,-2327.5 651.5,-2327.5 651.5,-2306.5 301.5,-2306.5"/>
<text text-anchor="start" x="394.5" y="-2313.3" font-family="Helvetica,Arial,sans-serif" font-size="14.00"> &#160;&#160;&#160;&#160;&#160;&#160;&#160;&#160;&#160;&#160;&#160;&#160;&#160;&#160;&#160;NORMAL &#160;&#160;&#160;&#160;&#160;&#160;&#160;&#160;&#160;&#160;&#160;</text>
<polygon fill="none" stroke="#000000" stroke-opacity="0.266667" points="301.5,-2090.5 301.5,-2306.5 651.5,-2306.5 651.5,-2090.5 301.5,-2090.5"/>
<text text-anchor="start" x="304.5" y="-2292.3" font-family="Helvetica,Arial,sans-serif" font-size="14.00"> &#160;&#160;&#160;&#160;&#160;&#160;&#160;&#160;&#160;&#160;&#160;&#160;&#160;&#160;&#160;packetPending := FALSE </text>
<text text-anchor="start" x="304.5" y="-2277.3" font-family="Helvetica,Arial,sans-serif" font-size="14.00"> &#160;&#160;&#160;&#160;&#160;&#160;&#160;&#160;&#160;&#160;&#160;&#160;&#160;&#160;&#160;IF CRS THEN </text>
<text text-anchor="start" x="304.5" y="-2262.3" font-family="Helvetica,Arial,sans-serif" font-size="14.00"> &#160;&#160;&#160;&#160;&#160;&#160;&#160;&#160;&#160;&#160;&#160;&#160;&#160;&#160;&#160;. &#160;&#160;CARRIER_STATUS := CARRIER_ON </text>
<text text-anchor="start" x="304.5" y="-2247.3" font-family="Helvetica,Arial,sans-serif" font-size="14.00"> &#160;&#160;&#160;&#160;&#160;&#160;&#160;&#160;&#160;&#160;&#160;&#160;&#160;&#160;&#160;ELSE </text>
<text text-anchor="start" x="304.5" y="-2232.3" font-family="Helvetica,Arial,sans-serif" font-size="14.00"> &#160;&#160;&#160;&#160;&#160;&#160;&#160;&#160;&#160;&#160;&#160;&#160;&#160;&#160;&#160;. &#160;&#160;CARRIER_STATUS := CARRIER_OFF </text>
<text text-anchor="start" x="304.5" y="-2217.3" font-family="Helvetica,Arial,sans-serif" font-size="14.00"> &#160;&#160;&#160;&#160;&#160;&#160;&#160;&#160;&#160;&#160;&#160;&#160;&#160;&#160;&#160;END </text>
<text text-anchor="start" x="304.5" y="-2202.3" font-family="Helvetica,Arial,sans-serif" font-size="14.00"> &#160;&#160;&#160;&#160;&#160;&#160;&#160;&#160;&#160;&#160;&#160;&#160;&#160;&#160;&#160;TXD := plca_txd </text>
<text text-anchor="start" x="304.5" y="-2187.3" font-family="Helvetica,Arial,sans-serif" font-size="14.00"> &#160;&#160;&#160;&#160;&#160;&#160;&#160;&#160;&#160;&#160;&#160;&#160;&#160;&#160;&#160;TX_EN := plca_txen </text>
<text text-anchor="start" x="304.5" y="-2172.3" font-family="Helvetica,Arial,sans-serif" font-size="14.00"> &#160;&#160;&#160;&#160;&#160;&#160;&#160;&#160;&#160;&#160;&#160;&#160;&#160;&#160;&#160;TX_ER := plca_txer </text>
<text text-anchor="start" x="304.5" y="-2157.3" font-family="Helvetica,Arial,sans-serif" font-size="14.00"> &#160;&#160;&#160;&#160;&#160;&#160;&#160;&#160;&#160;&#160;&#160;&#160;&#160;&#160;&#160;IF COL THEN </text>
<text text-anchor="start" x="304.5" y="-2142.3" font-family="Helvetica,Arial,sans-serif" font-size="14.00"> &#160;&#160;&#160;&#160;&#160;&#160;&#160;&#160;&#160;&#160;&#160;&#160;&#160;&#160;&#160;. &#160;&#160;SIGNAL_STATUS := SIGNAL_ERROR </text>
<text text-anchor="start" x="304.5" y="-2127.3" font-family="Helvetica,Arial,sans-serif" font-size="14.00"> &#160;&#160;&#160;&#160;&#160;&#160;&#160;&#160;&#160;&#160;&#160;&#160;&#160;&#160;&#160;ELSE </text>
<text text-anchor="start" x="304.5" y="-2112.3" font-family="Helvetica,Arial,sans-serif" font-size="14.00"> &#160;&#160;&#160;&#160;&#160;&#160;&#160;&#160;&#160;&#160;&#160;&#160;&#160;&#160;&#160;. &#160;&#160;SIGNAL_STATUS := NO_SIGNAL_ERROR </text>
<text text-anchor="start" x="304.5" y="-2097.3" font-family="Helvetica,Arial,sans-serif" font-size="14.00"> &#160;&#160;&#160;&#160;&#160;&#160;&#160;&#160;&#160;&#160;&#160;&#160;&#160;&#160;&#160;END &#160;&#160;&#160;&#160;&#160;&#160;&#160;&#160;&#160;&#160;&#160;</text>
</g>
<!-- Global1&#45;&gt;NORMAL -->
<g id="edge1" class="edge">
<title>Global1&#45;&gt;NORMAL</title>
<path fill="none" stroke="black" d="M476.5,-2444.71C476.5,-2416.34 476.5,-2376.87 476.5,-2338.41"/>
<polygon fill="black" stroke="black" points="480,-2338.13 476.5,-2328.13 473,-2338.13 480,-2338.13"/>
<text text-anchor="middle" x="537" y="-2397.8" font-family="Arial" font-size="14.00">plca_reset || </text>
<text text-anchor="middle" x="537" y="-2382.8" font-family="Arial" font-size="14.00"> (!plca_en) || </text>
<text text-anchor="middle" x="537" y="-2367.8" font-family="Arial" font-size="14.00"> (plca_status != OK)</text>
</g>
<!-- NORMAL&#45;&gt;NORMAL -->
<g id="edge3" class="edge">
<title>NORMAL&#45;&gt;NORMAL</title>
<path fill="none" stroke="black" d="M651.61,-2241.87C692.96,-2239.24 723.5,-2228.45 723.5,-2209.5 723.5,-2192.18 697.98,-2181.68 662.02,-2177.99"/>
<polygon fill="black" stroke="black" points="661.86,-2174.47 651.61,-2177.13 661.28,-2181.44 661.86,-2174.47"/>
<text text-anchor="middle" x="741" y="-2205.8" font-family="Arial" font-size="14.00">ELSE</text>
</g>
<!-- IDLE -->
<g id="node3" class="node">
<title>IDLE</title>
<polygon fill="lightgrey" stroke="transparent" points="644,-1974 309,-1974 309,-1827 644,-1827 644,-1974"/>
<polygon fill="none" stroke="#000000" stroke-opacity="0.266667" points="309.5,-1952.5 309.5,-1973.5 644.5,-1973.5 644.5,-1952.5 309.5,-1952.5"/>
<text text-anchor="start" x="409" y="-1959.3" font-family="Helvetica,Arial,sans-serif" font-size="14.00"> &#160;&#160;&#160;&#160;&#160;&#160;&#160;&#160;&#160;&#160;&#160;&#160;&#160;&#160;&#160;IDLE &#160;&#160;&#160;&#160;&#160;&#160;&#160;&#160;&#160;&#160;&#160;</text>
<polygon fill="none" stroke="#000000" stroke-opacity="0.266667" points="309.5,-1826.5 309.5,-1952.5 644.5,-1952.5 644.5,-1826.5 309.5,-1826.5"/>
<text text-anchor="start" x="312.5" y="-1938.3" font-family="Helvetica,Arial,sans-serif" font-size="14.00"> &#160;&#160;&#160;&#160;&#160;&#160;&#160;&#160;&#160;&#160;&#160;&#160;&#160;&#160;&#160;packetPending := FALSE </text>
<text text-anchor="start" x="312.5" y="-1923.3" font-family="Helvetica,Arial,sans-serif" font-size="14.00"> &#160;&#160;&#160;&#160;&#160;&#160;&#160;&#160;&#160;&#160;&#160;&#160;&#160;&#160;&#160;CARRIER_STATUS := CARRIER_OFF </text>
<text text-anchor="start" x="312.5" y="-1908.3" font-family="Helvetica,Arial,sans-serif" font-size="14.00"> &#160;&#160;&#160;&#160;&#160;&#160;&#160;&#160;&#160;&#160;&#160;&#160;&#160;&#160;&#160;SIGNAL_STATUS := NO_SIGNAL_ERROR </text>
<text text-anchor="start" x="312.5" y="-1893.3" font-family="Helvetica,Arial,sans-serif" font-size="14.00"> &#160;&#160;&#160;&#160;&#160;&#160;&#160;&#160;&#160;&#160;&#160;&#160;&#160;&#160;&#160;TXD := ENCODE_TXD(tx_cmd_sync) </text>
<text text-anchor="start" x="312.5" y="-1878.3" font-family="Helvetica,Arial,sans-serif" font-size="14.00"> &#160;&#160;&#160;&#160;&#160;&#160;&#160;&#160;&#160;&#160;&#160;&#160;&#160;&#160;&#160;TX_EN := FALSE </text>
<text text-anchor="start" x="312.5" y="-1863.3" font-family="Helvetica,Arial,sans-serif" font-size="14.00"> &#160;&#160;&#160;&#160;&#160;&#160;&#160;&#160;&#160;&#160;&#160;&#160;&#160;&#160;&#160;TX_ER := ENCODE_TXER(tx_cmd_sync) </text>
<text text-anchor="start" x="312.5" y="-1848.3" font-family="Helvetica,Arial,sans-serif" font-size="14.00"> &#160;&#160;&#160;&#160;&#160;&#160;&#160;&#160;&#160;&#160;&#160;&#160;&#160;&#160;&#160;a := 0 </text>
<text text-anchor="start" x="312.5" y="-1833.3" font-family="Helvetica,Arial,sans-serif" font-size="14.00"> &#160;&#160;&#160;&#160;&#160;&#160;&#160;&#160;&#160;&#160;&#160;&#160;&#160;&#160;&#160;b := 0 &#160;&#160;&#160;&#160;&#160;&#160;&#160;&#160;&#160;&#160;&#160;</text>
</g>
<!-- NORMAL&#45;&gt;IDLE -->
<g id="edge2" class="edge">
<title>NORMAL&#45;&gt;IDLE</title>
<path fill="none" stroke="black" d="M476.5,-2090.68C476.5,-2055.29 476.5,-2017.21 476.5,-1984.56"/>
<polygon fill="black" stroke="black" points="480,-1984.16 476.5,-1974.16 473,-1984.16 480,-1984.16"/>
<text text-anchor="middle" x="535.5" y="-2043.8" font-family="Arial" font-size="14.00">plca_en &amp;&amp; </text>
<text text-anchor="middle" x="535.5" y="-2028.8" font-family="Arial" font-size="14.00"> (!plca_reset) &amp;&amp; </text>
<text text-anchor="middle" x="535.5" y="-2013.8" font-family="Arial" font-size="14.00"> (plca_status = OK)</text>
</g>
<!-- IDLE&#45;&gt;IDLE -->
<g id="edge9" class="edge">
<title>IDLE&#45;&gt;IDLE</title>
<path fill="none" stroke="black" d="M644.1,-1924.88C685.3,-1923.09 716,-1914.97 716,-1900.5 716,-1887.27 690.35,-1879.35 654.47,-1876.72"/>
<polygon fill="black" stroke="black" points="654.28,-1873.21 644.1,-1876.12 653.88,-1880.2 654.28,-1873.21"/>
<text text-anchor="middle" x="733.5" y="-1896.8" font-family="Arial" font-size="14.00">ELSE</text>
</g>
<!-- RECEIVE -->
<g id="node6" class="node">
<title>RECEIVE</title>
<polygon fill="lightgrey" stroke="transparent" points="490,-1710 123,-1710 123,-1578 490,-1578 490,-1710"/>
<polygon fill="none" stroke="#000000" stroke-opacity="0.266667" points="123.5,-1689 123.5,-1710 490.5,-1710 490.5,-1689 123.5,-1689"/>
<text text-anchor="start" x="247" y="-1695.8" font-family="Helvetica,Arial,sans-serif" font-size="14.00"> &#160;&#160;&#160;&#160;&#160;&#160;&#160;&#160;&#160;&#160;&#160;&#160;&#160;&#160;&#160;RECEIVE</text>
<polygon fill="none" stroke="#000000" stroke-opacity="0.266667" points="123.5,-1578 123.5,-1689 490.5,-1689 490.5,-1578 123.5,-1578"/>
<text text-anchor="start" x="126.5" y="-1674.8" font-family="Helvetica,Arial,sans-serif" font-size="14.00"> &#160;&#160;&#160;&#160;&#160;&#160;&#160;&#160;&#160;&#160;&#160;&#160;&#160;&#160;&#160;IF CRS &amp;&amp; (rx_cmd != COMMIT) THEN </text>
<text text-anchor="start" x="126.5" y="-1659.8" font-family="Helvetica,Arial,sans-serif" font-size="14.00"> &#160;&#160;&#160;&#160;&#160;&#160;&#160;&#160;&#160;&#160;&#160;&#160;&#160;&#160;&#160;. &#160;&#160;CARRIER_STATUS := CARRIER_ON </text>
<text text-anchor="start" x="126.5" y="-1644.8" font-family="Helvetica,Arial,sans-serif" font-size="14.00"> &#160;&#160;&#160;&#160;&#160;&#160;&#160;&#160;&#160;&#160;&#160;&#160;&#160;&#160;&#160;ELSE </text>
<text text-anchor="start" x="126.5" y="-1629.8" font-family="Helvetica,Arial,sans-serif" font-size="14.00"> &#160;&#160;&#160;&#160;&#160;&#160;&#160;&#160;&#160;&#160;&#160;&#160;&#160;&#160;&#160;. &#160;&#160;CARRIER_STATUS := CARRIER_OFF </text>
<text text-anchor="start" x="126.5" y="-1614.8" font-family="Helvetica,Arial,sans-serif" font-size="14.00"> &#160;&#160;&#160;&#160;&#160;&#160;&#160;&#160;&#160;&#160;&#160;&#160;&#160;&#160;&#160;END </text>
<text text-anchor="start" x="126.5" y="-1599.8" font-family="Helvetica,Arial,sans-serif" font-size="14.00"> &#160;&#160;&#160;&#160;&#160;&#160;&#160;&#160;&#160;&#160;&#160;&#160;&#160;&#160;&#160;TXD := ENCODE_TXD(tx_cmd_sync) </text>
<text text-anchor="start" x="126.5" y="-1584.8" font-family="Helvetica,Arial,sans-serif" font-size="14.00"> &#160;&#160;&#160;&#160;&#160;&#160;&#160;&#160;&#160;&#160;&#160;&#160;&#160;&#160;&#160;TX_ER := ENCODE_TXER(tx_cmd_sync) &#160;&#160;&#160;&#160;&#160;&#160;&#160;&#160;&#160;&#160;&#160;</text>
</g>
<!-- IDLE&#45;&gt;RECEIVE -->
<g id="edge7" class="edge">
<title>IDLE&#45;&gt;RECEIVE</title>
<path fill="none" stroke="black" d="M445.8,-1826.78C433.31,-1800.39 417.74,-1770.95 400.5,-1746 393.9,-1736.45 386.44,-1726.91 378.67,-1717.7"/>
<polygon fill="black" stroke="black" points="381.26,-1715.34 372.09,-1710.05 375.96,-1719.91 381.26,-1715.34"/>
<text text-anchor="middle" x="483" y="-1779.8" font-family="Arial" font-size="14.00">receiving &amp;&amp; </text>
<text text-anchor="middle" x="483" y="-1764.8" font-family="Arial" font-size="14.00"> (!plca_txen) &amp;&amp; </text>
<text text-anchor="middle" x="483" y="-1749.8" font-family="Arial" font-size="14.00"> (tx_cmd = NONE)</text>
</g>
<!-- HOLD -->
<g id="node7" class="node">
<title>HOLD</title>
<polygon fill="lightgrey" stroke="transparent" points="1183,-1695 842,-1695 842,-1593 1183,-1593 1183,-1695"/>
<polygon fill="none" stroke="#000000" stroke-opacity="0.266667" points="842.5,-1674 842.5,-1695 1183.5,-1695 1183.5,-1674 842.5,-1674"/>
<text text-anchor="start" x="941" y="-1680.8" font-family="Helvetica,Arial,sans-serif" font-size="14.00"> &#160;&#160;&#160;&#160;&#160;&#160;&#160;&#160;&#160;&#160;&#160;&#160;&#160;&#160;&#160;HOLD &#160;&#160;&#160;&#160;&#160;&#160;&#160;&#160;&#160;&#160;&#160;</text>
<polygon fill="none" stroke="#000000" stroke-opacity="0.266667" points="842.5,-1593 842.5,-1674 1183.5,-1674 1183.5,-1593 842.5,-1593"/>
<text text-anchor="start" x="845.5" y="-1659.8" font-family="Helvetica,Arial,sans-serif" font-size="14.00"> &#160;&#160;&#160;&#160;&#160;&#160;&#160;&#160;&#160;&#160;&#160;&#160;&#160;&#160;&#160;packetPending := TRUE </text>
<text text-anchor="start" x="845.5" y="-1644.8" font-family="Helvetica,Arial,sans-serif" font-size="14.00"> &#160;&#160;&#160;&#160;&#160;&#160;&#160;&#160;&#160;&#160;&#160;&#160;&#160;&#160;&#160;CARRIER_STATUS := CARRIER_ON </text>
<text text-anchor="start" x="845.5" y="-1629.8" font-family="Helvetica,Arial,sans-serif" font-size="14.00"> &#160;&#160;&#160;&#160;&#160;&#160;&#160;&#160;&#160;&#160;&#160;&#160;&#160;&#160;&#160;a := a + 1 </text>
<text text-anchor="start" x="845.5" y="-1614.8" font-family="Helvetica,Arial,sans-serif" font-size="14.00"> &#160;&#160;&#160;&#160;&#160;&#160;&#160;&#160;&#160;&#160;&#160;&#160;&#160;&#160;&#160;TX_ER := ENCODE_TXER(tx_cmd_sync) </text>
<text text-anchor="start" x="845.5" y="-1599.8" font-family="Helvetica,Arial,sans-serif" font-size="14.00"> &#160;&#160;&#160;&#160;&#160;&#160;&#160;&#160;&#160;&#160;&#160;&#160;&#160;&#160;&#160;TXD := ENCODE_TXD(tx_cmd_sync) &#160;&#160;&#160;&#160;&#160;&#160;&#160;&#160;&#160;&#160;&#160;</text>
</g>
<!-- IDLE&#45;&gt;HOLD -->
<g id="edge8" class="edge">
<title>IDLE&#45;&gt;HOLD</title>
<path fill="none" stroke="black" d="M644.08,-1834.38C676.99,-1820.68 711.05,-1805.86 742.5,-1791 801.36,-1763.18 865.53,-1728.67 916.54,-1700.18"/>
<polygon fill="black" stroke="black" points="918.56,-1703.06 925.58,-1695.12 915.14,-1696.95 918.56,-1703.06"/>
<text text-anchor="middle" x="853.5" y="-1764.8" font-family="Arial" font-size="14.00">plca_txen</text>
</g>
<!-- WAIT_IDLE -->
<g id="node4" class="node">
<title>WAIT_IDLE</title>
<polygon fill="lightgrey" stroke="transparent" points="335,-720 0,-720 0,-573 335,-573 335,-720"/>
<polygon fill="none" stroke="#000000" stroke-opacity="0.266667" points="0.5,-698.5 0.5,-719.5 335.5,-719.5 335.5,-698.5 0.5,-698.5"/>
<text text-anchor="start" x="79.5" y="-705.3" font-family="Helvetica,Arial,sans-serif" font-size="14.00"> &#160;&#160;&#160;&#160;&#160;&#160;&#160;&#160;&#160;&#160;&#160;&#160;&#160;&#160;&#160;WAIT_IDLE &#160;&#160;&#160;&#160;&#160;&#160;&#160;&#160;&#160;&#160;&#160;</text>
<polygon fill="none" stroke="#000000" stroke-opacity="0.266667" points="0.5,-572.5 0.5,-698.5 335.5,-698.5 335.5,-572.5 0.5,-572.5"/>
<text text-anchor="start" x="3.5" y="-684.3" font-family="Helvetica,Arial,sans-serif" font-size="14.00"> &#160;&#160;&#160;&#160;&#160;&#160;&#160;&#160;&#160;&#160;&#160;&#160;&#160;&#160;&#160;packetPending := FALSE </text>
<text text-anchor="start" x="3.5" y="-669.3" font-family="Helvetica,Arial,sans-serif" font-size="14.00"> &#160;&#160;&#160;&#160;&#160;&#160;&#160;&#160;&#160;&#160;&#160;&#160;&#160;&#160;&#160;CARRIER_STATUS := CARRIER_OFF </text>
<text text-anchor="start" x="3.5" y="-654.3" font-family="Helvetica,Arial,sans-serif" font-size="14.00"> &#160;&#160;&#160;&#160;&#160;&#160;&#160;&#160;&#160;&#160;&#160;&#160;&#160;&#160;&#160;SIGNAL_STATUS := NO_SIGNAL_ERROR </text>
<text text-anchor="start" x="3.5" y="-639.3" font-family="Helvetica,Arial,sans-serif" font-size="14.00"> &#160;&#160;&#160;&#160;&#160;&#160;&#160;&#160;&#160;&#160;&#160;&#160;&#160;&#160;&#160;TXD := ENCODE_TXD(tx_cmd_sync) </text>
<text text-anchor="start" x="3.5" y="-624.3" font-family="Helvetica,Arial,sans-serif" font-size="14.00"> &#160;&#160;&#160;&#160;&#160;&#160;&#160;&#160;&#160;&#160;&#160;&#160;&#160;&#160;&#160;TX_EN := FALSE </text>
<text text-anchor="start" x="3.5" y="-609.3" font-family="Helvetica,Arial,sans-serif" font-size="14.00"> &#160;&#160;&#160;&#160;&#160;&#160;&#160;&#160;&#160;&#160;&#160;&#160;&#160;&#160;&#160;TX_ER := ENCODE_TXER(tx_cmd_sync) </text>
<text text-anchor="start" x="3.5" y="-594.3" font-family="Helvetica,Arial,sans-serif" font-size="14.00"> &#160;&#160;&#160;&#160;&#160;&#160;&#160;&#160;&#160;&#160;&#160;&#160;&#160;&#160;&#160;a := 0 </text>
<text text-anchor="start" x="3.5" y="-579.3" font-family="Helvetica,Arial,sans-serif" font-size="14.00"> &#160;&#160;&#160;&#160;&#160;&#160;&#160;&#160;&#160;&#160;&#160;&#160;&#160;&#160;&#160;b := 0 &#160;&#160;&#160;&#160;&#160;&#160;&#160;&#160;&#160;&#160;&#160;</text>
</g>
<!-- WAIT_IDLE&#45;&gt;IDLE -->
<g id="edge4" class="edge">
<title>WAIT_IDLE&#45;&gt;IDLE</title>
<path fill="none" stroke="black" d="M79.26,-720.43C44.85,-757.13 13.5,-804.86 13.5,-857 13.5,-1645 13.5,-1645 13.5,-1645 13.5,-1780.66 168.03,-1844.51 298.54,-1874.25"/>
<polygon fill="black" stroke="black" points="298.17,-1877.76 308.69,-1876.51 299.69,-1870.92 298.17,-1877.76"/>
<text text-anchor="middle" x="42.5" y="-1194.8" font-family="Arial" font-size="14.00">MCD &amp;&amp; </text>
<text text-anchor="middle" x="42.5" y="-1179.8" font-family="Arial" font-size="14.00"> (!CRS)</text>
</g>
<!-- WAIT_IDLE&#45;&gt;WAIT_IDLE -->
<g id="edge6" class="edge">
<title>WAIT_IDLE&#45;&gt;WAIT_IDLE</title>
<path fill="none" stroke="black" d="M335.1,-669.4C376.3,-667.73 407,-660.09 407,-646.5 407,-634.08 381.35,-626.63 345.47,-624.17"/>
<polygon fill="black" stroke="black" points="345.27,-620.65 335.1,-623.6 344.89,-627.64 345.27,-620.65"/>
<text text-anchor="middle" x="424.5" y="-642.8" font-family="Arial" font-size="14.00">ELSE</text>
</g>
<!-- TRANSMIT -->
<g id="node5" class="node">
<title>TRANSMIT</title>
<polygon fill="lightgrey" stroke="transparent" points="617.5,-456 267.5,-456 267.5,-279 617.5,-279 617.5,-456"/>
<polygon fill="none" stroke="#000000" stroke-opacity="0.266667" points="267.5,-434.5 267.5,-455.5 617.5,-455.5 617.5,-434.5 267.5,-434.5"/>
<text text-anchor="start" x="354.5" y="-441.3" font-family="Helvetica,Arial,sans-serif" font-size="14.00"> &#160;&#160;&#160;&#160;&#160;&#160;&#160;&#160;&#160;&#160;&#160;&#160;&#160;&#160;&#160;TRANSMIT &#160;&#160;&#160;&#160;&#160;&#160;&#160;&#160;&#160;&#160;&#160;</text>
<polygon fill="none" stroke="#000000" stroke-opacity="0.266667" points="267.5,-278.5 267.5,-434.5 617.5,-434.5 617.5,-278.5 267.5,-278.5"/>
<text text-anchor="start" x="270.5" y="-420.3" font-family="Helvetica,Arial,sans-serif" font-size="14.00"> &#160;&#160;&#160;&#160;&#160;&#160;&#160;&#160;&#160;&#160;&#160;&#160;&#160;&#160;&#160;packetPending := FALSE </text>
<text text-anchor="start" x="270.5" y="-405.3" font-family="Helvetica,Arial,sans-serif" font-size="14.00"> &#160;&#160;&#160;&#160;&#160;&#160;&#160;&#160;&#160;&#160;&#160;&#160;&#160;&#160;&#160;CARRIER_STATUS := CARRIER_ON </text>
<text text-anchor="start" x="270.5" y="-390.3" font-family="Helvetica,Arial,sans-serif" font-size="14.00"> &#160;&#160;&#160;&#160;&#160;&#160;&#160;&#160;&#160;&#160;&#160;&#160;&#160;&#160;&#160;TXD := plca_txdn–a TX_EN := TRUE </text>
<text text-anchor="start" x="270.5" y="-375.3" font-family="Helvetica,Arial,sans-serif" font-size="14.00"> &#160;&#160;&#160;&#160;&#160;&#160;&#160;&#160;&#160;&#160;&#160;&#160;&#160;&#160;&#160;TX_ER := plca_txer </text>
<text text-anchor="start" x="270.5" y="-360.3" font-family="Helvetica,Arial,sans-serif" font-size="14.00"> &#160;&#160;&#160;&#160;&#160;&#160;&#160;&#160;&#160;&#160;&#160;&#160;&#160;&#160;&#160;IF COL THEN </text>
<text text-anchor="start" x="270.5" y="-345.3" font-family="Helvetica,Arial,sans-serif" font-size="14.00"> &#160;&#160;&#160;&#160;&#160;&#160;&#160;&#160;&#160;&#160;&#160;&#160;&#160;&#160;&#160;. &#160;&#160;SIGNAL_STATUS := SIGNAL_ERROR </text>
<text text-anchor="start" x="270.5" y="-330.3" font-family="Helvetica,Arial,sans-serif" font-size="14.00"> &#160;&#160;&#160;&#160;&#160;&#160;&#160;&#160;&#160;&#160;&#160;&#160;&#160;&#160;&#160;. &#160;&#160;a := 0 </text>
<text text-anchor="start" x="270.5" y="-315.3" font-family="Helvetica,Arial,sans-serif" font-size="14.00"> &#160;&#160;&#160;&#160;&#160;&#160;&#160;&#160;&#160;&#160;&#160;&#160;&#160;&#160;&#160;ELSE </text>
<text text-anchor="start" x="270.5" y="-300.3" font-family="Helvetica,Arial,sans-serif" font-size="14.00"> &#160;&#160;&#160;&#160;&#160;&#160;&#160;&#160;&#160;&#160;&#160;&#160;&#160;&#160;&#160;. &#160;&#160;SIGNAL_STATUS := NO_SIGNAL_ERROR </text>
<text text-anchor="start" x="270.5" y="-285.3" font-family="Helvetica,Arial,sans-serif" font-size="14.00"> &#160;&#160;&#160;&#160;&#160;&#160;&#160;&#160;&#160;&#160;&#160;&#160;&#160;&#160;&#160;END &#160;&#160;&#160;&#160;&#160;&#160;&#160;&#160;&#160;&#160;&#160;</text>
</g>
<!-- WAIT_IDLE&#45;&gt;TRANSMIT -->
<g id="edge5" class="edge">
<title>WAIT_IDLE&#45;&gt;TRANSMIT</title>
<path fill="none" stroke="black" d="M190.85,-572.66C202.16,-545.21 217.85,-515.09 238.5,-492 247.86,-481.53 258.33,-471.67 269.44,-462.44"/>
<polygon fill="black" stroke="black" points="271.64,-465.15 277.22,-456.15 267.25,-459.71 271.64,-465.15"/>
<text text-anchor="middle" x="269.5" y="-525.8" font-family="Arial" font-size="14.00">MCD &amp;&amp; </text>
<text text-anchor="middle" x="269.5" y="-510.8" font-family="Arial" font-size="14.00"> CRS &amp;&amp; </text>
<text text-anchor="middle" x="269.5" y="-495.8" font-family="Arial" font-size="14.00"> plca_txen</text>
</g>
<!-- TRANSMIT&#45;&gt;WAIT_IDLE -->
<g id="edge30" class="edge">
<title>TRANSMIT&#45;&gt;WAIT_IDLE</title>
<path fill="none" stroke="black" d="M383.14,-456.4C362.87,-483.59 339.09,-512.75 314.5,-537 304.32,-547.04 293.16,-556.92 281.69,-566.37"/>
<polygon fill="black" stroke="black" points="279.27,-563.82 273.7,-572.84 283.68,-569.26 279.27,-563.82"/>
<text text-anchor="middle" x="403.5" y="-525.8" font-family="Arial" font-size="14.00">MCD &amp;&amp; </text>
<text text-anchor="middle" x="403.5" y="-510.8" font-family="Arial" font-size="14.00"> (!plca_txen) &amp;&amp; </text>
<text text-anchor="middle" x="403.5" y="-495.8" font-family="Arial" font-size="14.00"> (a = 0)</text>
</g>
<!-- TRANSMIT&#45;&gt;TRANSMIT -->
<g id="edge28" class="edge">
<title>TRANSMIT&#45;&gt;TRANSMIT</title>
<path fill="none" stroke="black" d="M617.61,-394.35C658.96,-392.17 689.5,-383.22 689.5,-367.5 689.5,-353.13 663.98,-344.42 628.02,-341.36"/>
<polygon fill="black" stroke="black" points="627.82,-337.84 617.61,-340.65 627.34,-344.83 627.82,-337.84"/>
<text text-anchor="middle" x="720.5" y="-371.3" font-family="Arial" font-size="14.00">MCD &amp;&amp; </text>
<text text-anchor="middle" x="720.5" y="-356.3" font-family="Arial" font-size="14.00"> plca_txen</text>
</g>
<!-- FLUSH -->
<g id="node13" class="node">
<title>FLUSH</title>
<polygon fill="lightgrey" stroke="transparent" points="369.5,-162 19.5,-162 19.5,0 369.5,0 369.5,-162"/>
<polygon fill="none" stroke="#000000" stroke-opacity="0.266667" points="19.5,-141 19.5,-162 369.5,-162 369.5,-141 19.5,-141"/>
<text text-anchor="start" x="119.5" y="-147.8" font-family="Helvetica,Arial,sans-serif" font-size="14.00"> &#160;&#160;&#160;&#160;&#160;&#160;&#160;&#160;&#160;&#160;&#160;&#160;&#160;&#160;&#160;FLUSH &#160;&#160;&#160;&#160;&#160;&#160;&#160;&#160;&#160;&#160;&#160;</text>
<polygon fill="none" stroke="#000000" stroke-opacity="0.266667" points="19.5,0 19.5,-141 369.5,-141 369.5,0 19.5,0"/>
<text text-anchor="start" x="22.5" y="-126.8" font-family="Helvetica,Arial,sans-serif" font-size="14.00"> &#160;&#160;&#160;&#160;&#160;&#160;&#160;&#160;&#160;&#160;&#160;&#160;&#160;&#160;&#160;CARRIER_STATUS := CARRIER_ON </text>
<text text-anchor="start" x="22.5" y="-111.8" font-family="Helvetica,Arial,sans-serif" font-size="14.00"> &#160;&#160;&#160;&#160;&#160;&#160;&#160;&#160;&#160;&#160;&#160;&#160;&#160;&#160;&#160;TXD := plca_txdn–a TX_EN := TRUE </text>
<text text-anchor="start" x="22.5" y="-96.8" font-family="Helvetica,Arial,sans-serif" font-size="14.00"> &#160;&#160;&#160;&#160;&#160;&#160;&#160;&#160;&#160;&#160;&#160;&#160;&#160;&#160;&#160;TX_ER := plca_txer </text>
<text text-anchor="start" x="22.5" y="-81.8" font-family="Helvetica,Arial,sans-serif" font-size="14.00"> &#160;&#160;&#160;&#160;&#160;&#160;&#160;&#160;&#160;&#160;&#160;&#160;&#160;&#160;&#160;b := b + 1 </text>
<text text-anchor="start" x="22.5" y="-66.8" font-family="Helvetica,Arial,sans-serif" font-size="14.00"> &#160;&#160;&#160;&#160;&#160;&#160;&#160;&#160;&#160;&#160;&#160;&#160;&#160;&#160;&#160;IF COL THEN </text>
<text text-anchor="start" x="22.5" y="-51.8" font-family="Helvetica,Arial,sans-serif" font-size="14.00"> &#160;&#160;&#160;&#160;&#160;&#160;&#160;&#160;&#160;&#160;&#160;&#160;&#160;&#160;&#160;. &#160;&#160;SIGNAL_STATUS := SIGNAL_ERROR </text>
<text text-anchor="start" x="22.5" y="-36.8" font-family="Helvetica,Arial,sans-serif" font-size="14.00"> &#160;&#160;&#160;&#160;&#160;&#160;&#160;&#160;&#160;&#160;&#160;&#160;&#160;&#160;&#160;ELSE </text>
<text text-anchor="start" x="22.5" y="-21.8" font-family="Helvetica,Arial,sans-serif" font-size="14.00"> &#160;&#160;&#160;&#160;&#160;&#160;&#160;&#160;&#160;&#160;&#160;&#160;&#160;&#160;&#160;. &#160;&#160;SIGNAL_STATUS := NO_SIGNAL_ERROR </text>
<text text-anchor="start" x="22.5" y="-6.8" font-family="Helvetica,Arial,sans-serif" font-size="14.00"> &#160;&#160;&#160;&#160;&#160;&#160;&#160;&#160;&#160;&#160;&#160;&#160;&#160;&#160;&#160;END &#160;&#160;&#160;&#160;&#160;&#160;&#160;&#160;&#160;&#160;&#160;</text>
</g>
<!-- TRANSMIT&#45;&gt;FLUSH -->
<g id="edge29" class="edge">
<title>TRANSMIT&#45;&gt;FLUSH</title>
<path fill="none" stroke="black" d="M366.07,-278.82C335.9,-244.21 301.31,-204.52 271.12,-169.9"/>
<polygon fill="black" stroke="black" points="273.56,-167.37 264.35,-162.13 268.28,-171.97 273.56,-167.37"/>
<text text-anchor="middle" x="382.5" y="-231.8" font-family="Arial" font-size="14.00">MCD &amp;&amp; </text>
<text text-anchor="middle" x="382.5" y="-216.8" font-family="Arial" font-size="14.00"> (!plca_txen) &amp;&amp; </text>
<text text-anchor="middle" x="382.5" y="-201.8" font-family="Arial" font-size="14.00"> (a &gt; 0)</text>
</g>
<!-- RECEIVE&#45;&gt;IDLE -->
<g id="edge10" class="edge">
<title>RECEIVE&#45;&gt;IDLE</title>
<path fill="none" stroke="black" d="M282.39,-1710.29C276.64,-1736.85 275.62,-1766.9 289.5,-1791 295.5,-1801.42 302.93,-1810.93 311.33,-1819.59"/>
<polygon fill="black" stroke="black" points="309,-1822.21 318.6,-1826.68 313.88,-1817.19 309,-1822.21"/>
<text text-anchor="middle" x="336" y="-1772.3" font-family="Arial" font-size="14.00">(!receiving) &amp;&amp; </text>
<text text-anchor="middle" x="336" y="-1757.3" font-family="Arial" font-size="14.00"> (!plca_txen)</text>
</g>
<!-- RECEIVE&#45;&gt;RECEIVE -->
<g id="edge12" class="edge">
<title>RECEIVE&#45;&gt;RECEIVE</title>
<path fill="none" stroke="black" d="M490.24,-1666.68C531.68,-1664.64 562,-1657.08 562,-1644 562,-1632.05 536.67,-1624.7 500.66,-1621.97"/>
<polygon fill="black" stroke="black" points="500.44,-1618.45 490.24,-1621.32 500,-1625.43 500.44,-1618.45"/>
<text text-anchor="middle" x="579.5" y="-1640.3" font-family="Arial" font-size="14.00">ELSE</text>
</g>
<!-- COLLIDE -->
<g id="node8" class="node">
<title>COLLIDE</title>
<polygon fill="lightgrey" stroke="transparent" points="494,-1461 169,-1461 169,-1314 494,-1314 494,-1461"/>
<polygon fill="none" stroke="#000000" stroke-opacity="0.266667" points="169.5,-1439.5 169.5,-1460.5 494.5,-1460.5 494.5,-1439.5 169.5,-1439.5"/>
<text text-anchor="start" x="250" y="-1446.3" font-family="Helvetica,Arial,sans-serif" font-size="14.00"> &#160;&#160;&#160;&#160;&#160;&#160;&#160;&#160;&#160;&#160;&#160;&#160;&#160;&#160;&#160;COLLIDE &#160;&#160;&#160;&#160;&#160;&#160;&#160;&#160;&#160;&#160;&#160;</text>
<polygon fill="none" stroke="#000000" stroke-opacity="0.266667" points="169.5,-1313.5 169.5,-1439.5 494.5,-1439.5 494.5,-1313.5 169.5,-1313.5"/>
<text text-anchor="start" x="172.5" y="-1425.3" font-family="Helvetica,Arial,sans-serif" font-size="14.00"> &#160;&#160;&#160;&#160;&#160;&#160;&#160;&#160;&#160;&#160;&#160;&#160;&#160;&#160;&#160;packetPending := FALSE </text>
<text text-anchor="start" x="172.5" y="-1410.3" font-family="Helvetica,Arial,sans-serif" font-size="14.00"> &#160;&#160;&#160;&#160;&#160;&#160;&#160;&#160;&#160;&#160;&#160;&#160;&#160;&#160;&#160;CARRIER_STATUS := CARRIER_ON </text>
<text text-anchor="start" x="172.5" y="-1395.3" font-family="Helvetica,Arial,sans-serif" font-size="14.00"> &#160;&#160;&#160;&#160;&#160;&#160;&#160;&#160;&#160;&#160;&#160;&#160;&#160;&#160;&#160;SIGNAL_STATUS := SIGNAL_ERROR </text>
<text text-anchor="start" x="172.5" y="-1380.3" font-family="Helvetica,Arial,sans-serif" font-size="14.00"> &#160;&#160;&#160;&#160;&#160;&#160;&#160;&#160;&#160;&#160;&#160;&#160;&#160;&#160;&#160;a := 0 </text>
<text text-anchor="start" x="172.5" y="-1365.3" font-family="Helvetica,Arial,sans-serif" font-size="14.00"> &#160;&#160;&#160;&#160;&#160;&#160;&#160;&#160;&#160;&#160;&#160;&#160;&#160;&#160;&#160;b := 0 </text>
<text text-anchor="start" x="172.5" y="-1350.3" font-family="Helvetica,Arial,sans-serif" font-size="14.00"> &#160;&#160;&#160;&#160;&#160;&#160;&#160;&#160;&#160;&#160;&#160;&#160;&#160;&#160;&#160;TXD := ENCODE_TXD(tx_cmd_sync) </text>
<text text-anchor="start" x="172.5" y="-1335.3" font-family="Helvetica,Arial,sans-serif" font-size="14.00"> &#160;&#160;&#160;&#160;&#160;&#160;&#160;&#160;&#160;&#160;&#160;&#160;&#160;&#160;&#160;TX_ER := ENCODE_TXER(tx_cmd_sync) </text>
<text text-anchor="start" x="172.5" y="-1320.3" font-family="Helvetica,Arial,sans-serif" font-size="14.00"> &#160;&#160;&#160;&#160;&#160;&#160;&#160;&#160;&#160;&#160;&#160;&#160;&#160;&#160;&#160;start pending_timer &#160;&#160;&#160;&#160;&#160;&#160;&#160;&#160;&#160;&#160;&#160;</text>
</g>
<!-- RECEIVE&#45;&gt;COLLIDE -->
<g id="edge11" class="edge">
<title>RECEIVE&#45;&gt;COLLIDE</title>
<path fill="none" stroke="black" d="M312.91,-1577.79C316.09,-1545.35 319.98,-1505.79 323.37,-1471.24"/>
<polygon fill="black" stroke="black" points="326.87,-1471.46 324.36,-1461.17 319.9,-1470.78 326.87,-1471.46"/>
<text text-anchor="middle" x="348.5" y="-1515.8" font-family="Arial" font-size="14.00">plca_txen</text>
</g>
<!-- HOLD&#45;&gt;TRANSMIT -->
<g id="edge15" class="edge">
<title>HOLD&#45;&gt;TRANSMIT</title>
<path fill="none" stroke="black" d="M1052.79,-1592.72C1087.99,-1543.63 1133.5,-1465.31 1133.5,-1388.5 1133.5,-1388.5 1133.5,-1388.5 1133.5,-645.5 1133.5,-536.3 832.42,-450.57 627.74,-404.91"/>
<polygon fill="black" stroke="black" points="628.28,-401.44 617.76,-402.69 626.77,-408.27 628.28,-401.44"/>
<text text-anchor="middle" x="1204.5" y="-1050.8" font-family="Arial" font-size="14.00">MCD &amp;&amp; </text>
<text text-anchor="middle" x="1204.5" y="-1035.8" font-family="Arial" font-size="14.00"> committed &amp;&amp; </text>
<text text-anchor="middle" x="1204.5" y="-1020.8" font-family="Arial" font-size="14.00"> (!receiving) &amp;&amp; </text>
<text text-anchor="middle" x="1204.5" y="-1005.8" font-family="Arial" font-size="14.00"> (!plca_txer) &amp;&amp; </text>
<text text-anchor="middle" x="1204.5" y="-990.8" font-family="Arial" font-size="14.00"> (a &lt; delay_line_length)</text>
</g>
<!-- HOLD&#45;&gt;HOLD -->
<g id="edge13" class="edge">
<title>HOLD&#45;&gt;HOLD</title>
<path fill="none" stroke="black" d="M1183.03,-1666.86C1224.33,-1665.12 1255,-1657.5 1255,-1644 1255,-1631.66 1229.38,-1624.23 1193.43,-1621.72"/>
<polygon fill="black" stroke="black" points="1193.21,-1618.2 1183.03,-1621.14 1192.82,-1625.19 1193.21,-1618.2"/>
<text text-anchor="middle" x="1326" y="-1670.3" font-family="Arial" font-size="14.00">MCD &amp;&amp; </text>
<text text-anchor="middle" x="1326" y="-1655.3" font-family="Arial" font-size="14.00"> (!committed) &amp;&amp; </text>
<text text-anchor="middle" x="1326" y="-1640.3" font-family="Arial" font-size="14.00"> (!plca_txer) &amp;&amp; </text>
<text text-anchor="middle" x="1326" y="-1625.3" font-family="Arial" font-size="14.00"> (!receiving) &amp;&amp; </text>
<text text-anchor="middle" x="1326" y="-1610.3" font-family="Arial" font-size="14.00"> (a &lt; delay_line_length)</text>
</g>
<!-- HOLD&#45;&gt;COLLIDE -->
<g id="edge14" class="edge">
<title>HOLD&#45;&gt;COLLIDE</title>
<path fill="none" stroke="black" d="M878.36,-1592.87C771.14,-1552.8 620.07,-1496.34 503.88,-1452.92"/>
<polygon fill="black" stroke="black" points="504.76,-1449.51 494.16,-1449.29 502.3,-1456.07 504.76,-1449.51"/>
<text text-anchor="middle" x="809.5" y="-1530.8" font-family="Arial" font-size="14.00">(!plca_txer) &amp;&amp; </text>
<text text-anchor="middle" x="809.5" y="-1515.8" font-family="Arial" font-size="14.00"> (receiving || </text>
<text text-anchor="middle" x="809.5" y="-1500.8" font-family="Arial" font-size="14.00"> (a &gt;= delay_line_length))</text>
</g>
<!-- ABORT -->
<g id="node9" class="node">
<title>ABORT</title>
<polygon fill="lightgrey" stroke="transparent" points="967,-1423.5 626,-1423.5 626,-1351.5 967,-1351.5 967,-1423.5"/>
<polygon fill="none" stroke="#000000" stroke-opacity="0.266667" points="626.5,-1402.5 626.5,-1423.5 967.5,-1423.5 967.5,-1402.5 626.5,-1402.5"/>
<text text-anchor="start" x="720.5" y="-1409.3" font-family="Helvetica,Arial,sans-serif" font-size="14.00"> &#160;&#160;&#160;&#160;&#160;&#160;&#160;&#160;&#160;&#160;&#160;&#160;&#160;&#160;&#160;ABORT &#160;&#160;&#160;&#160;&#160;&#160;&#160;&#160;&#160;&#160;&#160;</text>
<polygon fill="none" stroke="#000000" stroke-opacity="0.266667" points="626.5,-1351.5 626.5,-1402.5 967.5,-1402.5 967.5,-1351.5 626.5,-1351.5"/>
<text text-anchor="start" x="629.5" y="-1388.3" font-family="Helvetica,Arial,sans-serif" font-size="14.00"> &#160;&#160;&#160;&#160;&#160;&#160;&#160;&#160;&#160;&#160;&#160;&#160;&#160;&#160;&#160;packetPending := FALSE </text>
<text text-anchor="start" x="629.5" y="-1373.3" font-family="Helvetica,Arial,sans-serif" font-size="14.00"> &#160;&#160;&#160;&#160;&#160;&#160;&#160;&#160;&#160;&#160;&#160;&#160;&#160;&#160;&#160;TX_ER := ENCODE_TXER(tx_cmd_sync) </text>
<text text-anchor="start" x="629.5" y="-1358.3" font-family="Helvetica,Arial,sans-serif" font-size="14.00"> &#160;&#160;&#160;&#160;&#160;&#160;&#160;&#160;&#160;&#160;&#160;&#160;&#160;&#160;&#160;TXD := ENCODE_TXD(tx_cmd_sync) &#160;&#160;&#160;&#160;&#160;&#160;&#160;&#160;&#160;&#160;&#160;</text>
</g>
<!-- HOLD&#45;&gt;ABORT -->
<g id="edge16" class="edge">
<title>HOLD&#45;&gt;ABORT</title>
<path fill="none" stroke="black" d="M1001.39,-1592.84C992.85,-1562.73 978.69,-1524.97 956.5,-1497 934.86,-1469.72 904.47,-1446.72 875.99,-1429.03"/>
<polygon fill="black" stroke="black" points="877.59,-1425.9 867.22,-1423.71 873.95,-1431.89 877.59,-1425.9"/>
<text text-anchor="middle" x="1012" y="-1523.3" font-family="Arial" font-size="14.00">MCD &amp;&amp; </text>
<text text-anchor="middle" x="1012" y="-1508.3" font-family="Arial" font-size="14.00"> plca_txer</text>
</g>
<!-- COLLIDE&#45;&gt;COLLIDE -->
<g id="edge20" class="edge">
<title>COLLIDE&#45;&gt;COLLIDE</title>
<path fill="none" stroke="black" d="M494.25,-1408.97C535.27,-1407.51 566,-1400.36 566,-1387.5 566,-1375.75 540.32,-1368.76 504.58,-1366.53"/>
<polygon fill="black" stroke="black" points="504.4,-1363.02 494.25,-1366.03 504.06,-1370.01 504.4,-1363.02"/>
<text text-anchor="middle" x="583.5" y="-1383.8" font-family="Arial" font-size="14.00">ELSE</text>
</g>
<!-- DELAY_PENDING -->
<g id="node10" class="node">
<title>DELAY_PENDING</title>
<polygon fill="lightgrey" stroke="transparent" points="515,-1227 148,-1227 148,-1155 515,-1155 515,-1227"/>
<polygon fill="none" stroke="#000000" stroke-opacity="0.266667" points="148.5,-1206 148.5,-1227 515.5,-1227 515.5,-1206 148.5,-1206"/>
<text text-anchor="start" x="222" y="-1212.8" font-family="Helvetica,Arial,sans-serif" font-size="14.00"> &#160;&#160;&#160;&#160;&#160;&#160;&#160;&#160;&#160;&#160;&#160;&#160;&#160;&#160;&#160;DELAY_PENDING &#160;&#160;&#160;&#160;&#160;&#160;&#160;&#160;&#160;&#160;&#160;</text>
<polygon fill="none" stroke="#000000" stroke-opacity="0.266667" points="148.5,-1155 148.5,-1206 515.5,-1206 515.5,-1155 148.5,-1155"/>
<text text-anchor="start" x="151.5" y="-1191.8" font-family="Helvetica,Arial,sans-serif" font-size="14.00"> &#160;&#160;&#160;&#160;&#160;&#160;&#160;&#160;&#160;&#160;&#160;&#160;&#160;&#160;&#160;SIGNAL_STATUS := NO_SIGNAL_ERROR </text>
<text text-anchor="start" x="151.5" y="-1176.8" font-family="Helvetica,Arial,sans-serif" font-size="14.00"> &#160;&#160;&#160;&#160;&#160;&#160;&#160;&#160;&#160;&#160;&#160;&#160;&#160;&#160;&#160;TXD := ENCODE_TXD(tx_cmd_sync) </text>
<text text-anchor="start" x="151.5" y="-1161.8" font-family="Helvetica,Arial,sans-serif" font-size="14.00"> &#160;&#160;&#160;&#160;&#160;&#160;&#160;&#160;&#160;&#160;&#160;&#160;&#160;&#160;&#160;TX_ER := ENCODE_TXER(tx_cmd_sync) &#160;&#160;&#160;&#160;&#160;&#160;&#160;&#160;&#160;&#160;&#160;</text>
</g>
<!-- COLLIDE&#45;&gt;DELAY_PENDING -->
<g id="edge19" class="edge">
<title>COLLIDE&#45;&gt;DELAY_PENDING</title>
<path fill="none" stroke="black" d="M331.5,-1313.8C331.5,-1288.07 331.5,-1259.88 331.5,-1237.11"/>
<polygon fill="black" stroke="black" points="335,-1237.06 331.5,-1227.06 328,-1237.06 335,-1237.06"/>
<text text-anchor="middle" x="362.5" y="-1266.8" font-family="Arial" font-size="14.00">!plca_txen</text>
</g>
<!-- ABORT&#45;&gt;IDLE -->
<g id="edge17" class="edge">
<title>ABORT&#45;&gt;IDLE</title>
<path fill="none" stroke="black" d="M774.15,-1423.5C760.74,-1444.67 743.44,-1472.26 728.5,-1497 650.35,-1626.39 640.85,-1664.9 557.5,-1791 551.55,-1800.01 545.12,-1809.28 538.58,-1818.42"/>
<polygon fill="black" stroke="black" points="535.57,-1816.62 532.56,-1826.78 541.25,-1820.71 535.57,-1816.62"/>
<text text-anchor="middle" x="711.5" y="-1640.3" font-family="Arial" font-size="14.00">!plca_txen</text>
</g>
<!-- ABORT&#45;&gt;ABORT -->
<g id="edge18" class="edge">
<title>ABORT&#45;&gt;ABORT</title>
<path fill="none" stroke="black" d="M967.03,-1408.89C1008.33,-1407.26 1039,-1400.13 1039,-1387.5 1039,-1375.95 1013.38,-1369.01 977.43,-1366.65"/>
<polygon fill="black" stroke="black" points="977.2,-1363.14 967.03,-1366.11 976.84,-1370.13 977.2,-1363.14"/>
<text text-anchor="middle" x="1056.5" y="-1383.8" font-family="Arial" font-size="14.00">ELSE</text>
</g>
<!-- DELAY_PENDING&#45;&gt;DELAY_PENDING -->
<g id="edge22" class="edge">
<title>DELAY_PENDING&#45;&gt;DELAY_PENDING</title>
<path fill="none" stroke="black" d="M515.24,-1205.27C556.68,-1203.98 587,-1199.23 587,-1191 587,-1183.48 561.67,-1178.86 525.66,-1177.14"/>
<polygon fill="black" stroke="black" points="525.37,-1173.63 515.24,-1176.73 525.09,-1180.62 525.37,-1173.63"/>
<text text-anchor="middle" x="604.5" y="-1187.3" font-family="Arial" font-size="14.00">ELSE</text>
</g>
<!-- PENDING -->
<g id="node11" class="node">
<title>PENDING</title>
<polygon fill="lightgrey" stroke="transparent" points="515,-1068 148,-1068 148,-981 515,-981 515,-1068"/>
<polygon fill="none" stroke="#000000" stroke-opacity="0.266667" points="148.5,-1046.5 148.5,-1067.5 515.5,-1067.5 515.5,-1046.5 148.5,-1046.5"/>
<text text-anchor="start" x="248" y="-1053.3" font-family="Helvetica,Arial,sans-serif" font-size="14.00"> &#160;&#160;&#160;&#160;&#160;&#160;&#160;&#160;&#160;&#160;&#160;&#160;&#160;&#160;&#160;PENDING &#160;&#160;&#160;&#160;&#160;&#160;&#160;&#160;&#160;&#160;&#160;</text>
<polygon fill="none" stroke="#000000" stroke-opacity="0.266667" points="148.5,-980.5 148.5,-1046.5 515.5,-1046.5 515.5,-980.5 148.5,-980.5"/>
<text text-anchor="start" x="151.5" y="-1032.3" font-family="Helvetica,Arial,sans-serif" font-size="14.00"> &#160;&#160;&#160;&#160;&#160;&#160;&#160;&#160;&#160;&#160;&#160;&#160;&#160;&#160;&#160;packetPending := TRUE </text>
<text text-anchor="start" x="151.5" y="-1017.3" font-family="Helvetica,Arial,sans-serif" font-size="14.00"> &#160;&#160;&#160;&#160;&#160;&#160;&#160;&#160;&#160;&#160;&#160;&#160;&#160;&#160;&#160;start commit_timer </text>
<text text-anchor="start" x="151.5" y="-1002.3" font-family="Helvetica,Arial,sans-serif" font-size="14.00"> &#160;&#160;&#160;&#160;&#160;&#160;&#160;&#160;&#160;&#160;&#160;&#160;&#160;&#160;&#160;TXD := ENCODE_TXD(tx_cmd_sync) </text>
<text text-anchor="start" x="151.5" y="-987.3" font-family="Helvetica,Arial,sans-serif" font-size="14.00"> &#160;&#160;&#160;&#160;&#160;&#160;&#160;&#160;&#160;&#160;&#160;&#160;&#160;&#160;&#160;TX_ER := ENCODE_TXER(tx_cmd_sync) &#160;&#160;&#160;&#160;&#160;&#160;&#160;&#160;&#160;&#160;&#160;</text>
</g>
<!-- DELAY_PENDING&#45;&gt;PENDING -->
<g id="edge21" class="edge">
<title>DELAY_PENDING&#45;&gt;PENDING</title>
<path fill="none" stroke="black" d="M331.5,-1154.71C331.5,-1132.39 331.5,-1103.13 331.5,-1078.1"/>
<polygon fill="black" stroke="black" points="335,-1078.03 331.5,-1068.03 328,-1078.03 335,-1078.03"/>
<text text-anchor="middle" x="393.5" y="-1107.8" font-family="Arial" font-size="14.00">pending_timer_done</text>
</g>
<!-- PENDING&#45;&gt;PENDING -->
<g id="edge24" class="edge">
<title>PENDING&#45;&gt;PENDING</title>
<path fill="none" stroke="black" d="M515.24,-1040.23C556.68,-1038.81 587,-1033.57 587,-1024.5 587,-1016.21 561.67,-1011.12 525.66,-1009.22"/>
<polygon fill="black" stroke="black" points="525.38,-1005.7 515.24,-1008.77 525.08,-1012.7 525.38,-1005.7"/>
<text text-anchor="middle" x="604.5" y="-1020.8" font-family="Arial" font-size="14.00">ELSE</text>
</g>
<!-- WAIT_MAC -->
<g id="node12" class="node">
<title>WAIT_MAC</title>
<polygon fill="lightgrey" stroke="transparent" points="515,-894 148,-894 148,-822 515,-822 515,-894"/>
<polygon fill="none" stroke="#000000" stroke-opacity="0.266667" points="148.5,-873 148.5,-894 515.5,-894 515.5,-873 148.5,-873"/>
<text text-anchor="start" x="243.5" y="-879.8" font-family="Helvetica,Arial,sans-serif" font-size="14.00"> &#160;&#160;&#160;&#160;&#160;&#160;&#160;&#160;&#160;&#160;&#160;&#160;&#160;&#160;&#160;WAIT_MAC &#160;&#160;&#160;&#160;&#160;&#160;&#160;&#160;&#160;&#160;&#160;</text>
<polygon fill="none" stroke="#000000" stroke-opacity="0.266667" points="148.5,-822 148.5,-873 515.5,-873 515.5,-822 148.5,-822"/>
<text text-anchor="start" x="151.5" y="-858.8" font-family="Helvetica,Arial,sans-serif" font-size="14.00"> &#160;&#160;&#160;&#160;&#160;&#160;&#160;&#160;&#160;&#160;&#160;&#160;&#160;&#160;&#160;CARRIER_STATUS := CARRIER_OFF </text>
<text text-anchor="start" x="151.5" y="-843.8" font-family="Helvetica,Arial,sans-serif" font-size="14.00"> &#160;&#160;&#160;&#160;&#160;&#160;&#160;&#160;&#160;&#160;&#160;&#160;&#160;&#160;&#160;TXD := ENCODE_TXD(tx_cmd_sync) </text>
<text text-anchor="start" x="151.5" y="-828.8" font-family="Helvetica,Arial,sans-serif" font-size="14.00"> &#160;&#160;&#160;&#160;&#160;&#160;&#160;&#160;&#160;&#160;&#160;&#160;&#160;&#160;&#160;TX_ER := ENCODE_TXER(tx_cmd_sync) &#160;&#160;&#160;&#160;&#160;&#160;&#160;&#160;&#160;&#160;&#160;</text>
</g>
<!-- PENDING&#45;&gt;WAIT_MAC -->
<g id="edge23" class="edge">
<title>PENDING&#45;&gt;WAIT_MAC</title>
<path fill="none" stroke="black" d="M331.5,-980.71C331.5,-957.24 331.5,-928.16 331.5,-904.3"/>
<polygon fill="black" stroke="black" points="335,-904.09 331.5,-894.09 328,-904.09 335,-904.09"/>
<text text-anchor="middle" x="363.5" y="-933.8" font-family="Arial" font-size="14.00">committed</text>
</g>
<!-- WAIT_MAC&#45;&gt;WAIT_IDLE -->
<g id="edge26" class="edge">
<title>WAIT_MAC&#45;&gt;WAIT_IDLE</title>
<path fill="none" stroke="black" d="M304.05,-821.93C284.04,-796.38 256.11,-760.69 230.71,-728.25"/>
<polygon fill="black" stroke="black" points="233.24,-725.8 224.32,-720.08 227.73,-730.11 233.24,-725.8"/>
<text text-anchor="middle" x="336" y="-774.8" font-family="Arial" font-size="14.00">(!plca_txen) &amp;&amp; </text>
<text text-anchor="middle" x="336" y="-759.8" font-family="Arial" font-size="14.00"> commit_timer_done</text>
</g>
<!-- WAIT_MAC&#45;&gt;TRANSMIT -->
<g id="edge25" class="edge">
<title>WAIT_MAC&#45;&gt;TRANSMIT</title>
<path fill="none" stroke="black" d="M384.57,-821.86C396.65,-811.6 408.31,-799.47 416.5,-786 475.37,-689.15 459.21,-649.67 471.5,-537 474.01,-513.99 472.3,-489.37 468.71,-466.25"/>
<polygon fill="black" stroke="black" points="472.11,-465.38 467,-456.1 465.21,-466.54 472.11,-465.38"/>
<text text-anchor="middle" x="498.5" y="-650.3" font-family="Arial" font-size="14.00">MCD &amp;&amp; </text>
<text text-anchor="middle" x="498.5" y="-635.3" font-family="Arial" font-size="14.00"> plca_txen</text>
</g>
<!-- WAIT_MAC&#45;&gt;WAIT_MAC -->
<g id="edge27" class="edge">
<title>WAIT_MAC&#45;&gt;WAIT_MAC</title>
<path fill="none" stroke="black" d="M515.24,-872.27C556.68,-870.98 587,-866.23 587,-858 587,-850.48 561.67,-845.86 525.66,-844.14"/>
<polygon fill="black" stroke="black" points="525.37,-840.63 515.24,-843.73 525.09,-847.62 525.37,-840.63"/>
<text text-anchor="middle" x="604.5" y="-854.3" font-family="Arial" font-size="14.00">ELSE</text>
</g>
<!-- FLUSH&#45;&gt;WAIT_IDLE -->
<g id="edge32" class="edge">
<title>FLUSH&#45;&gt;WAIT_IDLE</title>
<path fill="none" stroke="black" d="M184.28,-162.37C180.17,-198.04 175.86,-240.55 173.5,-279 167.53,-376.21 166.56,-488.19 166.74,-562.52"/>
<polygon fill="black" stroke="black" points="163.24,-562.77 166.77,-572.76 170.24,-562.75 163.24,-562.77"/>
<text text-anchor="middle" x="202.5" y="-371.3" font-family="Arial" font-size="14.00">MCD &amp;&amp; </text>
<text text-anchor="middle" x="202.5" y="-356.3" font-family="Arial" font-size="14.00"> (b = a)</text>
</g>
<!-- FLUSH&#45;&gt;FLUSH -->
<g id="edge31" class="edge">
<title>FLUSH&#45;&gt;FLUSH</title>
<path fill="none" stroke="black" d="M369.61,-106.38C410.96,-104.32 441.5,-95.86 441.5,-81 441.5,-67.42 415.98,-59.18 380.02,-56.3"/>
<polygon fill="black" stroke="black" points="379.81,-52.78 369.61,-55.62 379.36,-59.76 379.81,-52.78"/>
<text text-anchor="middle" x="470.5" y="-84.8" font-family="Arial" font-size="14.00">MCD &amp;&amp; </text>
<text text-anchor="middle" x="470.5" y="-69.8" font-family="Arial" font-size="14.00"> (a != b)</text>
</g>
</g>
</svg>
