<?xml version="1.0" encoding="UTF-8" standalone="no"?>
<!DOCTYPE svg PUBLIC "-//W3C//DTD SVG 1.1//EN"
 "http://www.w3.org/Graphics/SVG/1.1/DTD/svg11.dtd">
<!-- Generated by graphviz version 2.43.0 (0)
 -->
<!-- Title: EthernetPlcaCtrl Pages: 1 -->
<svg width="2639pt" height="2106pt"
 viewBox="0.00 0.00 2639.00 2106.39" xmlns="http://www.w3.org/2000/svg" xmlns:xlink="http://www.w3.org/1999/xlink">
<g id="graph0" class="graph" transform="scale(1 1) rotate(0) translate(4 2102.39)">
<title>EthernetPlcaCtrl</title>
<polygon fill="white" stroke="transparent" points="-4,4 -4,-2102.39 2635,-2102.39 2635,4 -4,4"/>
<text text-anchor="middle" x="1315.5" y="-2078.39" font-family="Helvetica,Arial,sans-serif" font-size="20.00">EthernetPlcaCtrl</text>
<!-- Global1 -->
<g id="node1" class="node">
<title>Global1</title>
<ellipse fill="lightgrey" stroke="black" cx="1856" cy="-2026.79" rx="41.69" ry="41.69"/>
<text text-anchor="middle" x="1856" y="-2023.09" font-family="Helvetica,Arial,sans-serif" font-size="14.00">Global1</text>
</g>
<!-- DISABLED -->
<g id="node2" class="node">
<title>DISABLED</title>
<polygon fill="lightgrey" stroke="transparent" points="1976.5,-1898.19 1735.5,-1898.19 1735.5,-1811.19 1976.5,-1811.19 1976.5,-1898.19"/>
<polygon fill="none" stroke="#000000" stroke-opacity="0.266667" points="1736,-1876.69 1736,-1897.69 1977,-1897.69 1977,-1876.69 1736,-1876.69"/>
<text text-anchor="start" x="1770.5" y="-1883.49" font-family="Helvetica,Arial,sans-serif" font-size="14.00"> &#160;&#160;&#160;&#160;&#160;&#160;&#160;&#160;&#160;&#160;&#160;&#160;&#160;&#160;&#160;DISABLED &#160;&#160;&#160;&#160;&#160;&#160;&#160;&#160;&#160;&#160;&#160;</text>
<polygon fill="none" stroke="#000000" stroke-opacity="0.266667" points="1736,-1810.69 1736,-1876.69 1977,-1876.69 1977,-1810.69 1736,-1810.69"/>
<text text-anchor="start" x="1739" y="-1862.49" font-family="Helvetica,Arial,sans-serif" font-size="14.00"> &#160;&#160;&#160;&#160;&#160;&#160;&#160;&#160;&#160;&#160;&#160;&#160;&#160;&#160;&#160;tx_cmd := NONE </text>
<text text-anchor="start" x="1739" y="-1847.49" font-family="Helvetica,Arial,sans-serif" font-size="14.00"> &#160;&#160;&#160;&#160;&#160;&#160;&#160;&#160;&#160;&#160;&#160;&#160;&#160;&#160;&#160;committed := FALSE &#160;</text>
<text text-anchor="start" x="1739" y="-1832.49" font-family="Helvetica,Arial,sans-serif" font-size="14.00"> &#160;&#160;&#160;&#160;&#160;&#160;&#160;&#160;&#160;&#160;&#160;&#160;&#160;&#160;&#160;curID := 0 </text>
<text text-anchor="start" x="1739" y="-1817.49" font-family="Helvetica,Arial,sans-serif" font-size="14.00"> &#160;&#160;&#160;&#160;&#160;&#160;&#160;&#160;&#160;&#160;&#160;&#160;&#160;&#160;&#160;plca_active := FALSE &#160;&#160;&#160;&#160;&#160;&#160;&#160;&#160;&#160;&#160;&#160;</text>
</g>
<!-- Global1&#45;&gt;DISABLED -->
<g id="edge1" class="edge">
<title>Global1&#45;&gt;DISABLED</title>
<path fill="none" stroke="black" d="M1856,-1985.05C1856,-1962.17 1856,-1933.36 1856,-1908.74"/>
<polygon fill="black" stroke="black" points="1859.5,-1908.48 1856,-1898.48 1852.5,-1908.48 1859.5,-1908.48"/>
<text text-anchor="middle" x="1999.5" y="-1937.99" font-family="Arial" font-size="14.00">plca_reset || (!plca_en) || (local_nodeID == 255)</text>
</g>
<!-- RECOVER -->
<g id="node3" class="node">
<title>RECOVER</title>
<polygon fill="lightgrey" stroke="transparent" points="1513.5,-1709.19 1272.5,-1709.19 1272.5,-1667.19 1513.5,-1667.19 1513.5,-1709.19"/>
<polygon fill="none" stroke="#000000" stroke-opacity="0.266667" points="1273,-1688.19 1273,-1709.19 1514,-1709.19 1514,-1688.19 1273,-1688.19"/>
<text text-anchor="start" x="1307.5" y="-1694.99" font-family="Helvetica,Arial,sans-serif" font-size="14.00"> &#160;&#160;&#160;&#160;&#160;&#160;&#160;&#160;&#160;&#160;&#160;&#160;&#160;&#160;&#160;RECOVER &#160;&#160;&#160;&#160;&#160;&#160;&#160;&#160;&#160;&#160;&#160;</text>
<polygon fill="none" stroke="#000000" stroke-opacity="0.266667" points="1273,-1667.19 1273,-1688.19 1514,-1688.19 1514,-1667.19 1273,-1667.19"/>
<text text-anchor="start" x="1276" y="-1673.99" font-family="Helvetica,Arial,sans-serif" font-size="14.00"> &#160;&#160;&#160;&#160;&#160;&#160;&#160;&#160;&#160;&#160;&#160;&#160;&#160;&#160;&#160;plca_active := FALSE &#160;&#160;&#160;&#160;&#160;&#160;&#160;&#160;&#160;&#160;&#160;</text>
</g>
<!-- DISABLED&#45;&gt;RECOVER -->
<g id="edge2" class="edge">
<title>DISABLED&#45;&gt;RECOVER</title>
<path fill="none" stroke="black" d="M1736.16,-1811.12C1647.82,-1779.73 1530.96,-1738.21 1458.94,-1712.62"/>
<polygon fill="black" stroke="black" points="1460.11,-1709.32 1449.51,-1709.27 1457.77,-1715.92 1460.11,-1709.32"/>
<text text-anchor="middle" x="1694.5" y="-1763.99" font-family="Arial" font-size="14.00">plca_en </text>
<text text-anchor="middle" x="1694.5" y="-1748.99" font-family="Arial" font-size="14.00"> &amp;&amp; (local_nodeID != 0)</text>
</g>
<!-- RESYNC -->
<g id="node4" class="node">
<title>RESYNC</title>
<polygon fill="lightgrey" stroke="transparent" points="1052.5,-435 811.5,-435 811.5,-393 1052.5,-393 1052.5,-435"/>
<polygon fill="none" stroke="#000000" stroke-opacity="0.266667" points="812,-414 812,-435 1053,-435 1053,-414 812,-414"/>
<text text-anchor="start" x="851.5" y="-420.8" font-family="Helvetica,Arial,sans-serif" font-size="14.00"> &#160;&#160;&#160;&#160;&#160;&#160;&#160;&#160;&#160;&#160;&#160;&#160;&#160;&#160;&#160;RESYNC &#160;&#160;&#160;&#160;&#160;&#160;&#160;&#160;&#160;&#160;&#160;</text>
<polygon fill="none" stroke="#000000" stroke-opacity="0.266667" points="812,-393 812,-414 1053,-414 1053,-393 812,-393"/>
<text text-anchor="start" x="815" y="-399.8" font-family="Helvetica,Arial,sans-serif" font-size="14.00"> &#160;&#160;&#160;&#160;&#160;&#160;&#160;&#160;&#160;&#160;&#160;&#160;&#160;&#160;&#160;plca_active := FALSE &#160;&#160;&#160;&#160;&#160;&#160;&#160;&#160;&#160;&#160;&#160;</text>
</g>
<!-- DISABLED&#45;&gt;RESYNC -->
<g id="edge3" class="edge">
<title>DISABLED&#45;&gt;RESYNC</title>
<path fill="none" stroke="black" d="M1976.82,-1846.13C2156.96,-1831.5 2475,-1791.21 2475,-1689.19 2475,-1689.19 2475,-1689.19 2475,-622.6 2475,-480.59 1435.24,-431.84 1062.77,-418.93"/>
<polygon fill="black" stroke="black" points="1062.87,-415.43 1052.76,-418.58 1062.63,-422.42 1062.87,-415.43"/>
<text text-anchor="middle" x="2553" y="-1199.99" font-family="Arial" font-size="14.00">plca_en </text>
<text text-anchor="middle" x="2553" y="-1184.99" font-family="Arial" font-size="14.00"> &amp;&amp; (local_nodeID != 0) </text>
<text text-anchor="middle" x="2553" y="-1169.99" font-family="Arial" font-size="14.00"> &amp;&amp; (local_nodeID != 255)</text>
</g>
<!-- WAIT_TO -->
<g id="node8" class="node">
<title>WAIT_TO</title>
<polygon fill="lightgrey" stroke="transparent" points="1489,-1580.19 1297,-1580.19 1297,-1538.19 1489,-1538.19 1489,-1580.19"/>
<polygon fill="none" stroke="#000000" stroke-opacity="0.266667" points="1297,-1559.19 1297,-1580.19 1489,-1580.19 1489,-1559.19 1297,-1559.19"/>
<text text-anchor="start" x="1310" y="-1565.99" font-family="Helvetica,Arial,sans-serif" font-size="14.00"> &#160;&#160;&#160;&#160;&#160;&#160;&#160;&#160;&#160;&#160;&#160;&#160;&#160;&#160;&#160;WAIT_TO &#160;&#160;&#160;&#160;&#160;&#160;&#160;&#160;&#160;&#160;&#160;</text>
<polygon fill="none" stroke="#000000" stroke-opacity="0.266667" points="1297,-1538.19 1297,-1559.19 1489,-1559.19 1489,-1538.19 1297,-1538.19"/>
<text text-anchor="start" x="1300" y="-1544.99" font-family="Helvetica,Arial,sans-serif" font-size="14.00"> &#160;&#160;&#160;&#160;&#160;&#160;&#160;&#160;&#160;&#160;&#160;&#160;&#160;&#160;&#160;start to_timer &#160;&#160;&#160;&#160;&#160;&#160;&#160;&#160;&#160;&#160;&#160;</text>
</g>
<!-- RECOVER&#45;&gt;WAIT_TO -->
<g id="edge7" class="edge">
<title>RECOVER&#45;&gt;WAIT_TO</title>
<path fill="none" stroke="black" d="M1393,-1667.07C1393,-1646.45 1393,-1614.13 1393,-1590.43"/>
<polygon fill="black" stroke="black" points="1396.5,-1590.22 1393,-1580.22 1389.5,-1590.22 1396.5,-1590.22"/>
<text text-anchor="middle" x="1411.5" y="-1619.99" font-family="Arial" font-size="14.00">TRUE</text>
</g>
<!-- EARLY_RECEIVE -->
<g id="node6" class="node">
<title>EARLY_RECEIVE</title>
<polygon fill="lightgrey" stroke="transparent" points="1047.5,-1020.69 796.5,-1020.69 796.5,-963.69 1047.5,-963.69 1047.5,-1020.69"/>
<polygon fill="none" stroke="#000000" stroke-opacity="0.266667" points="797,-999.19 797,-1020.19 1048,-1020.19 1048,-999.19 797,-999.19"/>
<text text-anchor="start" x="815" y="-1005.99" font-family="Helvetica,Arial,sans-serif" font-size="14.00"> &#160;&#160;&#160;&#160;&#160;&#160;&#160;&#160;&#160;&#160;&#160;&#160;&#160;&#160;&#160;EARLY_RECEIVE &#160;&#160;&#160;&#160;&#160;&#160;&#160;&#160;&#160;&#160;&#160;</text>
<polygon fill="none" stroke="#000000" stroke-opacity="0.266667" points="797,-963.19 797,-999.19 1048,-999.19 1048,-963.19 797,-963.19"/>
<text text-anchor="start" x="800" y="-984.99" font-family="Helvetica,Arial,sans-serif" font-size="14.00"> &#160;&#160;&#160;&#160;&#160;&#160;&#160;&#160;&#160;&#160;&#160;&#160;&#160;&#160;&#160;stop to_timer </text>
<text text-anchor="start" x="800" y="-969.99" font-family="Helvetica,Arial,sans-serif" font-size="14.00"> &#160;&#160;&#160;&#160;&#160;&#160;&#160;&#160;&#160;&#160;&#160;&#160;&#160;&#160;&#160;start beacon_det_timer &#160;&#160;&#160;&#160;&#160;&#160;&#160;&#160;&#160;&#160;&#160;</text>
</g>
<!-- RESYNC&#45;&gt;EARLY_RECEIVE -->
<g id="edge5" class="edge">
<title>RESYNC&#45;&gt;EARLY_RECEIVE</title>
<path fill="none" stroke="black" d="M919.64,-435.26C881.35,-498.09 767.05,-686.37 763,-701.19 735.68,-801.17 825.94,-904.34 881.55,-956.49"/>
<polygon fill="black" stroke="black" points="879.43,-959.3 889.15,-963.51 884.18,-954.16 879.43,-959.3"/>
<text text-anchor="middle" x="822.5" y="-734.99" font-family="Arial" font-size="14.00">(local_nodeID != 0) </text>
<text text-anchor="middle" x="822.5" y="-719.99" font-family="Arial" font-size="14.00"> &amp;&amp; CRS</text>
</g>
<!-- SEND_BEACON -->
<g id="node7" class="node">
<title>SEND_BEACON</title>
<polygon fill="lightgrey" stroke="transparent" points="877.5,-276 642.5,-276 642.5,-204 877.5,-204 877.5,-276"/>
<polygon fill="none" stroke="#000000" stroke-opacity="0.266667" points="643,-255 643,-276 878,-276 878,-255 643,-255"/>
<text text-anchor="start" x="656.5" y="-261.8" font-family="Helvetica,Arial,sans-serif" font-size="14.00"> &#160;&#160;&#160;&#160;&#160;&#160;&#160;&#160;&#160;&#160;&#160;&#160;&#160;&#160;&#160;SEND_BEACON &#160;&#160;&#160;&#160;&#160;&#160;&#160;&#160;&#160;&#160;&#160;</text>
<polygon fill="none" stroke="#000000" stroke-opacity="0.266667" points="643,-204 643,-255 878,-255 878,-204 643,-204"/>
<text text-anchor="start" x="646" y="-240.8" font-family="Helvetica,Arial,sans-serif" font-size="14.00"> &#160;&#160;&#160;&#160;&#160;&#160;&#160;&#160;&#160;&#160;&#160;&#160;&#160;&#160;&#160;start beacon_timer </text>
<text text-anchor="start" x="646" y="-225.8" font-family="Helvetica,Arial,sans-serif" font-size="14.00"> &#160;&#160;&#160;&#160;&#160;&#160;&#160;&#160;&#160;&#160;&#160;&#160;&#160;&#160;&#160;tx_cmd := BEACON </text>
<text text-anchor="start" x="646" y="-210.8" font-family="Helvetica,Arial,sans-serif" font-size="14.00"> &#160;&#160;&#160;&#160;&#160;&#160;&#160;&#160;&#160;&#160;&#160;&#160;&#160;&#160;&#160;plca_active := TRUE &#160;&#160;&#160;&#160;&#160;&#160;&#160;&#160;&#160;&#160;&#160;</text>
</g>
<!-- RESYNC&#45;&gt;SEND_BEACON -->
<g id="edge6" class="edge">
<title>RESYNC&#45;&gt;SEND_BEACON</title>
<path fill="none" stroke="black" d="M911.93,-392.93C885.21,-366.21 837.26,-318.26 802.36,-283.36"/>
<polygon fill="black" stroke="black" points="804.67,-280.72 795.12,-276.12 799.72,-285.67 804.67,-280.72"/>
<text text-anchor="middle" x="943.5" y="-345.8" font-family="Arial" font-size="14.00">PMCD </text>
<text text-anchor="middle" x="943.5" y="-330.8" font-family="Arial" font-size="14.00"> &amp;&amp; (!CRS) </text>
<text text-anchor="middle" x="943.5" y="-315.8" font-family="Arial" font-size="14.00"> &amp;&amp; (local_nodeID == 0)</text>
</g>
<!-- Global2 -->
<g id="node5" class="node">
<title>Global2</title>
<ellipse fill="lightgrey" stroke="black" cx="675" cy="-623.6" rx="41.69" ry="41.69"/>
<text text-anchor="middle" x="675" y="-619.9" font-family="Helvetica,Arial,sans-serif" font-size="14.00">Global2</text>
</g>
<!-- Global2&#45;&gt;RESYNC -->
<g id="edge4" class="edge">
<title>Global2&#45;&gt;RESYNC</title>
<path fill="none" stroke="black" d="M661.65,-583.94C652.71,-550.36 646.7,-502.33 672,-471 689.07,-449.86 745.39,-436.32 801.27,-427.87"/>
<polygon fill="black" stroke="black" points="801.93,-431.31 811.32,-426.4 800.92,-424.38 801.93,-431.31"/>
<text text-anchor="middle" x="755" y="-504.8" font-family="Arial" font-size="14.00">invalid_beacon_timer_done</text>
</g>
<!-- EARLY_RECEIVE&#45;&gt;RECOVER -->
<g id="edge16" class="edge">
<title>EARLY_RECEIVE&#45;&gt;RECOVER</title>
<path fill="none" stroke="black" d="M796.21,-993.77C543.91,-998.35 0,-1026.86 0,-1187.69 0,-1560.19 0,-1560.19 0,-1560.19 0,-1623.2 915.87,-1667.53 1262.34,-1682.04"/>
<polygon fill="black" stroke="black" points="1262.29,-1685.54 1272.42,-1682.46 1262.58,-1678.55 1262.29,-1685.54"/>
<text text-anchor="middle" x="72.5" y="-1366.49" font-family="Arial" font-size="14.00">(!CRS) </text>
<text text-anchor="middle" x="72.5" y="-1351.49" font-family="Arial" font-size="14.00"> &amp;&amp; (local_nodeID == 0)</text>
</g>
<!-- EARLY_RECEIVE&#45;&gt;RESYNC -->
<g id="edge15" class="edge">
<title>EARLY_RECEIVE&#45;&gt;RESYNC</title>
<path fill="none" stroke="black" d="M922.48,-963.4C924.16,-866.77 929.73,-545.87 931.47,-445.37"/>
<polygon fill="black" stroke="black" points="934.97,-445.34 931.65,-435.28 927.97,-445.22 934.97,-445.34"/>
<text text-anchor="middle" x="1013" y="-749.99" font-family="Arial" font-size="14.00">(!CRS) </text>
<text text-anchor="middle" x="1013" y="-734.99" font-family="Arial" font-size="14.00"> &amp;&amp; (local_nodeID != 0) </text>
<text text-anchor="middle" x="1013" y="-719.99" font-family="Arial" font-size="14.00"> &amp;&amp; (rx_cmd != BEACON) </text>
<text text-anchor="middle" x="1013" y="-704.99" font-family="Arial" font-size="14.00"> &amp;&amp; beacon_det_timer_done</text>
</g>
<!-- SYNCING -->
<g id="node9" class="node">
<title>SYNCING</title>
<polygon fill="lightgrey" stroke="transparent" points="595,-117 205,-117 205,0 595,0 595,-117"/>
<polygon fill="none" stroke="#000000" stroke-opacity="0.266667" points="205,-95.5 205,-116.5 595,-116.5 595,-95.5 205,-95.5"/>
<text text-anchor="start" x="316" y="-102.3" font-family="Helvetica,Arial,sans-serif" font-size="14.00"> &#160;&#160;&#160;&#160;&#160;&#160;&#160;&#160;&#160;&#160;&#160;&#160;&#160;&#160;&#160;SYNCING &#160;&#160;&#160;&#160;&#160;&#160;&#160;&#160;&#160;&#160;&#160;</text>
<polygon fill="none" stroke="#000000" stroke-opacity="0.266667" points="205,0.5 205,-95.5 595,-95.5 595,0.5 205,0.5"/>
<text text-anchor="start" x="208" y="-81.3" font-family="Helvetica,Arial,sans-serif" font-size="14.00"> &#160;&#160;&#160;&#160;&#160;&#160;&#160;&#160;&#160;&#160;&#160;&#160;&#160;&#160;&#160;curID := 0 </text>
<text text-anchor="start" x="208" y="-66.3" font-family="Helvetica,Arial,sans-serif" font-size="14.00"> &#160;&#160;&#160;&#160;&#160;&#160;&#160;&#160;&#160;&#160;&#160;&#160;&#160;&#160;&#160;tx_cmd := NONE </text>
<text text-anchor="start" x="208" y="-51.3" font-family="Helvetica,Arial,sans-serif" font-size="14.00"> &#160;&#160;&#160;&#160;&#160;&#160;&#160;&#160;&#160;&#160;&#160;&#160;&#160;&#160;&#160;plca_active := TRUE </text>
<text text-anchor="start" x="208" y="-36.3" font-family="Helvetica,Arial,sans-serif" font-size="14.00"> &#160;&#160;&#160;&#160;&#160;&#160;&#160;&#160;&#160;&#160;&#160;&#160;&#160;&#160;&#160;IF (local_nodeID != 0 &amp;&amp; rx_cmd != BEACON) THEN </text>
<text text-anchor="start" x="208" y="-21.3" font-family="Helvetica,Arial,sans-serif" font-size="14.00"> &#160;&#160;&#160;&#160;&#160;&#160;&#160;&#160;&#160;&#160;&#160;&#160;&#160;&#160;&#160;. &#160;&#160;start invalid_beacon_timer </text>
<text text-anchor="start" x="208" y="-6.3" font-family="Helvetica,Arial,sans-serif" font-size="14.00"> &#160;&#160;&#160;&#160;&#160;&#160;&#160;&#160;&#160;&#160;&#160;&#160;&#160;&#160;&#160;END &#160;&#160;&#160;&#160;&#160;&#160;&#160;&#160;&#160;&#160;&#160;</text>
</g>
<!-- EARLY_RECEIVE&#45;&gt;SYNCING -->
<g id="edge14" class="edge">
<title>EARLY_RECEIVE&#45;&gt;SYNCING</title>
<path fill="none" stroke="black" d="M796.3,-975.21C641.84,-951.98 400,-902.33 400,-819.19 400,-819.19 400,-819.19 400,-239 400,-202.14 400,-161.03 400,-127.46"/>
<polygon fill="black" stroke="black" points="403.5,-127.3 400,-117.3 396.5,-127.3 403.5,-127.3"/>
<text text-anchor="middle" x="504" y="-534.8" font-family="Arial" font-size="14.00">(local_nodeID != 0) </text>
<text text-anchor="middle" x="504" y="-519.8" font-family="Arial" font-size="14.00"> &amp;&amp; (!receiving) </text>
<text text-anchor="middle" x="504" y="-504.8" font-family="Arial" font-size="14.00"> &amp;&amp; ((rx_cmd == BEACON) </text>
<text text-anchor="middle" x="504" y="-489.8" font-family="Arial" font-size="14.00"> || ((!CRS) </text>
<text text-anchor="middle" x="504" y="-474.8" font-family="Arial" font-size="14.00"> &amp;&amp; beacon_det_timer_not_done))</text>
</g>
<!-- RECEIVE -->
<g id="node13" class="node">
<title>RECEIVE</title>
<polygon fill="lightgrey" stroke="transparent" points="1202.5,-839.19 1031.5,-839.19 1031.5,-797.19 1202.5,-797.19 1202.5,-839.19"/>
<polygon fill="none" stroke="#000000" stroke-opacity="0.266667" points="1032,-818.19 1032,-839.19 1203,-839.19 1203,-818.19 1032,-818.19"/>
<text text-anchor="start" x="1035" y="-824.99" font-family="Helvetica,Arial,sans-serif" font-size="14.00"> &#160;&#160;&#160;&#160;&#160;&#160;&#160;&#160;&#160;&#160;&#160;&#160;&#160;&#160;&#160;RECEIVE &#160;&#160;&#160;&#160;&#160;&#160;&#160;&#160;&#160;&#160;&#160;</text>
<polygon fill="none" stroke="#000000" stroke-opacity="0.266667" points="1032,-797.19 1032,-818.19 1203,-818.19 1203,-797.19 1032,-797.19"/>
<text text-anchor="start" x="1035" y="-803.99" font-family="Helvetica,Arial,sans-serif" font-size="14.00"> &#160;&#160;&#160;&#160;&#160;&#160;&#160;&#160;&#160;&#160;&#160;</text>
</g>
<!-- EARLY_RECEIVE&#45;&gt;RECEIVE -->
<g id="edge17" class="edge">
<title>EARLY_RECEIVE&#45;&gt;RECEIVE</title>
<path fill="none" stroke="black" d="M953.33,-963.56C989.96,-931.25 1050.19,-878.12 1086.48,-846.12"/>
<polygon fill="black" stroke="black" points="1089.09,-848.48 1094.28,-839.24 1084.46,-843.23 1089.09,-848.48"/>
<text text-anchor="middle" x="1077" y="-901.49" font-family="Arial" font-size="14.00">receiving </text>
<text text-anchor="middle" x="1077" y="-886.49" font-family="Arial" font-size="14.00"> &amp;&amp; CRS</text>
</g>
<!-- SEND_BEACON&#45;&gt;SYNCING -->
<g id="edge8" class="edge">
<title>SEND_BEACON&#45;&gt;SYNCING</title>
<path fill="none" stroke="black" d="M689.73,-203.96C642.83,-180.58 579.84,-149.17 524.58,-121.62"/>
<polygon fill="black" stroke="black" points="525.94,-118.38 515.43,-117.05 522.81,-124.65 525.94,-118.38"/>
<text text-anchor="middle" x="673.5" y="-156.8" font-family="Arial" font-size="14.00">beacon_timer_done</text>
</g>
<!-- WAIT_TO&#45;&gt;EARLY_RECEIVE -->
<g id="edge10" class="edge">
<title>WAIT_TO&#45;&gt;EARLY_RECEIVE</title>
<path fill="none" stroke="black" d="M1362.38,-1538.05C1348.19,-1528.05 1331.53,-1515.32 1318,-1502.19 1157.98,-1346.85 1140.77,-1286.89 1006,-1109.19 986.02,-1082.84 964.12,-1052.56 947.7,-1029.54"/>
<polygon fill="black" stroke="black" points="950.34,-1027.22 941.69,-1021.1 944.64,-1031.28 950.34,-1027.22"/>
<text text-anchor="middle" x="1143.5" y="-1271.99" font-family="Arial" font-size="14.00">CRS</text>
</g>
<!-- COMMIT -->
<g id="node10" class="node">
<title>COMMIT</title>
<polygon fill="lightgrey" stroke="transparent" points="1697.5,-1406.19 1506.5,-1406.19 1506.5,-1319.19 1697.5,-1319.19 1697.5,-1406.19"/>
<polygon fill="none" stroke="#000000" stroke-opacity="0.266667" points="1507,-1384.69 1507,-1405.69 1698,-1405.69 1698,-1384.69 1507,-1384.69"/>
<text text-anchor="start" x="1521" y="-1391.49" font-family="Helvetica,Arial,sans-serif" font-size="14.00"> &#160;&#160;&#160;&#160;&#160;&#160;&#160;&#160;&#160;&#160;&#160;&#160;&#160;&#160;&#160;COMMIT &#160;&#160;&#160;&#160;&#160;&#160;&#160;&#160;&#160;&#160;&#160;</text>
<polygon fill="none" stroke="#000000" stroke-opacity="0.266667" points="1507,-1318.69 1507,-1384.69 1698,-1384.69 1698,-1318.69 1507,-1318.69"/>
<text text-anchor="start" x="1510" y="-1370.49" font-family="Helvetica,Arial,sans-serif" font-size="14.00"> &#160;&#160;&#160;&#160;&#160;&#160;&#160;&#160;&#160;&#160;&#160;&#160;&#160;&#160;&#160;tx_cmd := COMMIT </text>
<text text-anchor="start" x="1510" y="-1355.49" font-family="Helvetica,Arial,sans-serif" font-size="14.00"> &#160;&#160;&#160;&#160;&#160;&#160;&#160;&#160;&#160;&#160;&#160;&#160;&#160;&#160;&#160;committed := TRUE </text>
<text text-anchor="start" x="1510" y="-1340.49" font-family="Helvetica,Arial,sans-serif" font-size="14.00"> &#160;&#160;&#160;&#160;&#160;&#160;&#160;&#160;&#160;&#160;&#160;&#160;&#160;&#160;&#160;stop to_timer </text>
<text text-anchor="start" x="1510" y="-1325.49" font-family="Helvetica,Arial,sans-serif" font-size="14.00"> &#160;&#160;&#160;&#160;&#160;&#160;&#160;&#160;&#160;&#160;&#160;&#160;&#160;&#160;&#160;bc := 0 &#160;&#160;&#160;&#160;&#160;&#160;&#160;&#160;&#160;&#160;&#160;</text>
</g>
<!-- WAIT_TO&#45;&gt;COMMIT -->
<g id="edge11" class="edge">
<title>WAIT_TO&#45;&gt;COMMIT</title>
<path fill="none" stroke="black" d="M1414.58,-1538.11C1445.93,-1508.93 1505.08,-1453.89 1548.57,-1413.42"/>
<polygon fill="black" stroke="black" points="1551.02,-1415.92 1555.95,-1406.55 1546.25,-1410.8 1551.02,-1415.92"/>
<text text-anchor="middle" x="1603" y="-1490.99" font-family="Arial" font-size="14.00">plca_active </text>
<text text-anchor="middle" x="1603" y="-1475.99" font-family="Arial" font-size="14.00"> &amp;&amp; (curID == local_nodeID) </text>
<text text-anchor="middle" x="1603" y="-1460.99" font-family="Arial" font-size="14.00"> &amp;&amp; packetPending </text>
<text text-anchor="middle" x="1603" y="-1445.99" font-family="Arial" font-size="14.00"> &amp;&amp; (!CRS)</text>
</g>
<!-- NEXT_TX_OPPORTUNITY -->
<g id="node11" class="node">
<title>NEXT_TX_OPPORTUNITY</title>
<polygon fill="lightgrey" stroke="transparent" points="1598,-652.1 1318,-652.1 1318,-595.1 1598,-595.1 1598,-652.1"/>
<polygon fill="none" stroke="#000000" stroke-opacity="0.266667" points="1318,-630.6 1318,-651.6 1598,-651.6 1598,-630.6 1318,-630.6"/>
<text text-anchor="start" x="1321" y="-637.4" font-family="Helvetica,Arial,sans-serif" font-size="14.00"> &#160;&#160;&#160;&#160;&#160;&#160;&#160;&#160;&#160;&#160;&#160;&#160;&#160;&#160;&#160;NEXT_TX_OPPORTUNITY &#160;&#160;&#160;&#160;&#160;&#160;&#160;&#160;&#160;&#160;&#160;</text>
<polygon fill="none" stroke="#000000" stroke-opacity="0.266667" points="1318,-594.6 1318,-630.6 1598,-630.6 1598,-594.6 1318,-594.6"/>
<text text-anchor="start" x="1321" y="-616.4" font-family="Helvetica,Arial,sans-serif" font-size="14.00"> &#160;&#160;&#160;&#160;&#160;&#160;&#160;&#160;&#160;&#160;&#160;&#160;&#160;&#160;&#160;curID := curID + 1 </text>
<text text-anchor="start" x="1321" y="-601.4" font-family="Helvetica,Arial,sans-serif" font-size="14.00"> &#160;&#160;&#160;&#160;&#160;&#160;&#160;&#160;&#160;&#160;&#160;&#160;&#160;&#160;&#160;committed := FALSE &#160;&#160;&#160;&#160;&#160;&#160;&#160;&#160;&#160;&#160;&#160;</text>
</g>
<!-- WAIT_TO&#45;&gt;NEXT_TX_OPPORTUNITY -->
<g id="edge12" class="edge">
<title>WAIT_TO&#45;&gt;NEXT_TX_OPPORTUNITY</title>
<path fill="none" stroke="black" d="M1489.14,-1550.67C1675.77,-1533.42 2069,-1482.91 2069,-1363.69 2069,-1363.69 2069,-1363.69 2069,-817.19 2069,-720.86 1789.24,-666.71 1608.33,-641.77"/>
<polygon fill="black" stroke="black" points="1608.56,-638.27 1598.18,-640.38 1607.61,-645.2 1608.56,-638.27"/>
<text text-anchor="middle" x="2143" y="-1097.99" font-family="Arial" font-size="14.00">to_timer_done &amp;&amp; </text>
<text text-anchor="middle" x="2143" y="-1082.99" font-family="Arial" font-size="14.00"> (curID != local_nodeID) </text>
<text text-anchor="middle" x="2143" y="-1067.99" font-family="Arial" font-size="14.00"> &amp;&amp; (!CRS)</text>
</g>
<!-- YIELD -->
<g id="node12" class="node">
<title>YIELD</title>
<polygon fill="lightgrey" stroke="transparent" points="1361.5,-1209.69 1210.5,-1209.69 1210.5,-1167.69 1361.5,-1167.69 1361.5,-1209.69"/>
<polygon fill="none" stroke="#000000" stroke-opacity="0.266667" points="1211,-1188.69 1211,-1209.69 1362,-1209.69 1362,-1188.69 1211,-1188.69"/>
<text text-anchor="start" x="1214" y="-1195.49" font-family="Helvetica,Arial,sans-serif" font-size="14.00"> &#160;&#160;&#160;&#160;&#160;&#160;&#160;&#160;&#160;&#160;&#160;&#160;&#160;&#160;&#160;YIELD &#160;&#160;&#160;&#160;&#160;&#160;&#160;&#160;&#160;&#160;&#160;</text>
<polygon fill="none" stroke="#000000" stroke-opacity="0.266667" points="1211,-1167.69 1211,-1188.69 1362,-1188.69 1362,-1167.69 1211,-1167.69"/>
<text text-anchor="start" x="1214" y="-1174.49" font-family="Helvetica,Arial,sans-serif" font-size="14.00"> &#160;&#160;&#160;&#160;&#160;&#160;&#160;&#160;&#160;&#160;&#160;</text>
</g>
<!-- WAIT_TO&#45;&gt;YIELD -->
<g id="edge13" class="edge">
<title>WAIT_TO&#45;&gt;YIELD</title>
<path fill="none" stroke="black" d="M1381.46,-1537.73C1365.85,-1509.17 1338.22,-1455.31 1323,-1406.19 1302.97,-1341.52 1292.92,-1262.42 1288.65,-1220.01"/>
<polygon fill="black" stroke="black" points="1292.11,-1219.42 1287.66,-1209.8 1285.14,-1220.09 1292.11,-1219.42"/>
<text text-anchor="middle" x="1397" y="-1381.49" font-family="Arial" font-size="14.00">(curID == local_nodeID) </text>
<text text-anchor="middle" x="1397" y="-1366.49" font-family="Arial" font-size="14.00"> &amp;&amp; ((!packetPending) </text>
<text text-anchor="middle" x="1397" y="-1351.49" font-family="Arial" font-size="14.00"> || (!plca_active)) </text>
<text text-anchor="middle" x="1397" y="-1336.49" font-family="Arial" font-size="14.00"> &amp;&amp; (!CRS)</text>
</g>
<!-- SYNCING&#45;&gt;WAIT_TO -->
<g id="edge9" class="edge">
<title>SYNCING&#45;&gt;WAIT_TO</title>
<path fill="none" stroke="black" d="M319.74,-117.23C285.81,-148.7 254,-191 254,-239 254,-1363.69 254,-1363.69 254,-1363.69 254,-1467.85 1003.63,-1531.02 1286.6,-1551.15"/>
<polygon fill="black" stroke="black" points="1286.65,-1554.67 1296.87,-1551.88 1287.14,-1547.68 1286.65,-1554.67"/>
<text text-anchor="middle" x="270.5" y="-814.49" font-family="Arial" font-size="14.00">!CRS</text>
</g>
<!-- TRANSMIT -->
<g id="node14" class="node">
<title>TRANSMIT</title>
<polygon fill="lightgrey" stroke="transparent" points="1674,-1232.19 1460,-1232.19 1460,-1145.19 1674,-1145.19 1674,-1232.19"/>
<polygon fill="none" stroke="#000000" stroke-opacity="0.266667" points="1460,-1210.69 1460,-1231.69 1674,-1231.69 1674,-1210.69 1460,-1210.69"/>
<text text-anchor="start" x="1479" y="-1217.49" font-family="Helvetica,Arial,sans-serif" font-size="14.00"> &#160;&#160;&#160;&#160;&#160;&#160;&#160;&#160;&#160;&#160;&#160;&#160;&#160;&#160;&#160;TRANSMIT &#160;&#160;&#160;&#160;&#160;&#160;&#160;&#160;&#160;&#160;&#160;</text>
<polygon fill="none" stroke="#000000" stroke-opacity="0.266667" points="1460,-1144.69 1460,-1210.69 1674,-1210.69 1674,-1144.69 1460,-1144.69"/>
<text text-anchor="start" x="1463" y="-1196.49" font-family="Helvetica,Arial,sans-serif" font-size="14.00"> &#160;&#160;&#160;&#160;&#160;&#160;&#160;&#160;&#160;&#160;&#160;&#160;&#160;&#160;&#160;tx_cmd := NONE </text>
<text text-anchor="start" x="1463" y="-1181.49" font-family="Helvetica,Arial,sans-serif" font-size="14.00"> &#160;&#160;&#160;&#160;&#160;&#160;&#160;&#160;&#160;&#160;&#160;&#160;&#160;&#160;&#160;IF bc &gt;= max_bc THEN </text>
<text text-anchor="start" x="1463" y="-1166.49" font-family="Helvetica,Arial,sans-serif" font-size="14.00"> &#160;&#160;&#160;&#160;&#160;&#160;&#160;&#160;&#160;&#160;&#160;&#160;&#160;&#160;&#160;. &#160;&#160;committed := FALSE </text>
<text text-anchor="start" x="1463" y="-1151.49" font-family="Helvetica,Arial,sans-serif" font-size="14.00"> &#160;&#160;&#160;&#160;&#160;&#160;&#160;&#160;&#160;&#160;&#160;&#160;&#160;&#160;&#160;END &#160;&#160;&#160;&#160;&#160;&#160;&#160;&#160;&#160;&#160;&#160;</text>
</g>
<!-- COMMIT&#45;&gt;TRANSMIT -->
<g id="edge18" class="edge">
<title>COMMIT&#45;&gt;TRANSMIT</title>
<path fill="none" stroke="black" d="M1593.35,-1319.18C1588.62,-1295.92 1582.71,-1266.9 1577.69,-1242.24"/>
<polygon fill="black" stroke="black" points="1581.1,-1241.42 1575.67,-1232.32 1574.24,-1242.81 1581.1,-1241.42"/>
<text text-anchor="middle" x="1607" y="-1271.99" font-family="Arial" font-size="14.00">TX_EN</text>
</g>
<!-- ABORT -->
<g id="node15" class="node">
<title>ABORT</title>
<polygon fill="lightgrey" stroke="transparent" points="1782.5,-839.19 1567.5,-839.19 1567.5,-797.19 1782.5,-797.19 1782.5,-839.19"/>
<polygon fill="none" stroke="#000000" stroke-opacity="0.266667" points="1568,-818.19 1568,-839.19 1783,-839.19 1783,-818.19 1568,-818.19"/>
<text text-anchor="start" x="1599" y="-824.99" font-family="Helvetica,Arial,sans-serif" font-size="14.00"> &#160;&#160;&#160;&#160;&#160;&#160;&#160;&#160;&#160;&#160;&#160;&#160;&#160;&#160;&#160;ABORT &#160;&#160;&#160;&#160;&#160;&#160;&#160;&#160;&#160;&#160;&#160;</text>
<polygon fill="none" stroke="#000000" stroke-opacity="0.266667" points="1568,-797.19 1568,-818.19 1783,-818.19 1783,-797.19 1568,-797.19"/>
<text text-anchor="start" x="1571" y="-803.99" font-family="Helvetica,Arial,sans-serif" font-size="14.00"> &#160;&#160;&#160;&#160;&#160;&#160;&#160;&#160;&#160;&#160;&#160;&#160;&#160;&#160;&#160;tx_cmd := NONE &#160;&#160;&#160;&#160;&#160;&#160;&#160;&#160;&#160;&#160;&#160;</text>
</g>
<!-- COMMIT&#45;&gt;ABORT -->
<g id="edge19" class="edge">
<title>COMMIT&#45;&gt;ABORT</title>
<path fill="none" stroke="black" d="M1643.21,-1318.93C1664.98,-1294.8 1691.04,-1263.32 1710,-1232.19 1786.25,-1106.99 1802.95,-1066.11 1817,-920.19 1818.92,-900.28 1828.25,-891.73 1817,-875.19 1807.86,-861.77 1794.96,-851.56 1780.63,-843.8"/>
<polygon fill="black" stroke="black" points="1782.05,-840.6 1771.53,-839.28 1778.93,-846.87 1782.05,-840.6"/>
<text text-anchor="middle" x="1856" y="-1090.49" font-family="Arial" font-size="14.00">(!TX_EN) </text>
<text text-anchor="middle" x="1856" y="-1075.49" font-family="Arial" font-size="14.00"> &amp;&amp; (!packetPending)</text>
</g>
<!-- NEXT_TX_OPPORTUNITY&#45;&gt;RESYNC -->
<g id="edge27" class="edge">
<title>NEXT_TX_OPPORTUNITY&#45;&gt;RESYNC</title>
<path fill="none" stroke="black" d="M1388.15,-595.03C1284.16,-553.99 1090.39,-477.51 992.26,-438.78"/>
<polygon fill="black" stroke="black" points="993.37,-435.46 982.78,-435.04 990.8,-441.97 993.37,-435.46"/>
<text text-anchor="middle" x="1358" y="-519.8" font-family="Arial" font-size="14.00">((local_nodeID == 0) </text>
<text text-anchor="middle" x="1358" y="-504.8" font-family="Arial" font-size="14.00"> &amp;&amp; (curID &gt;= plca_node_count)) </text>
<text text-anchor="middle" x="1358" y="-489.8" font-family="Arial" font-size="14.00"> || (curID == 255)</text>
</g>
<!-- NEXT_TX_OPPORTUNITY&#45;&gt;WAIT_TO -->
<g id="edge28" class="edge">
<title>NEXT_TX_OPPORTUNITY&#45;&gt;WAIT_TO</title>
<path fill="none" stroke="black" d="M1598.4,-628.28C1836.52,-638.39 2294,-676.16 2294,-817.19 2294,-1363.69 2294,-1363.69 2294,-1363.69 2294,-1524.61 1737.94,-1552.73 1499.5,-1557.4"/>
<polygon fill="black" stroke="black" points="1499.36,-1553.9 1489.42,-1557.58 1499.49,-1560.9 1499.36,-1553.9"/>
<text text-anchor="middle" x="2311.5" y="-1082.99" font-family="Arial" font-size="14.00">ELSE</text>
</g>
<!-- YIELD&#45;&gt;EARLY_RECEIVE -->
<g id="edge20" class="edge">
<title>YIELD&#45;&gt;EARLY_RECEIVE</title>
<path fill="none" stroke="black" d="M1230.78,-1167.58C1192.89,-1153.04 1141.9,-1132.01 1099,-1109.19 1052.8,-1084.62 1003.22,-1051.48 968.32,-1026.92"/>
<polygon fill="black" stroke="black" points="969.96,-1023.79 959.77,-1020.87 965.91,-1029.5 969.96,-1023.79"/>
<text text-anchor="middle" x="1168.5" y="-1090.49" font-family="Arial" font-size="14.00">CRS </text>
<text text-anchor="middle" x="1168.5" y="-1075.49" font-family="Arial" font-size="14.00"> &amp;&amp; to_timer_not_done</text>
</g>
<!-- YIELD&#45;&gt;NEXT_TX_OPPORTUNITY -->
<g id="edge21" class="edge">
<title>YIELD&#45;&gt;NEXT_TX_OPPORTUNITY</title>
<path fill="none" stroke="black" d="M1289.51,-1167.67C1298.51,-1117.67 1324.1,-983.59 1358,-875.19 1382.26,-797.61 1419.58,-710.05 1441.11,-661.69"/>
<polygon fill="black" stroke="black" points="1444.44,-662.83 1445.33,-652.28 1438.05,-659.97 1444.44,-662.83"/>
<text text-anchor="middle" x="1402" y="-893.99" font-family="Arial" font-size="14.00">to_timer_done</text>
</g>
<!-- RECEIVE&#45;&gt;NEXT_TX_OPPORTUNITY -->
<g id="edge22" class="edge">
<title>RECEIVE&#45;&gt;NEXT_TX_OPPORTUNITY</title>
<path fill="none" stroke="black" d="M1130.56,-797.04C1148.87,-771.29 1183.89,-726.96 1224,-701.19 1254.49,-681.6 1290.45,-666.59 1324.91,-655.27"/>
<polygon fill="black" stroke="black" points="1326.13,-658.55 1334.58,-652.17 1323.99,-651.89 1326.13,-658.55"/>
<text text-anchor="middle" x="1240.5" y="-727.49" font-family="Arial" font-size="14.00">!CRS</text>
</g>
<!-- TRANSMIT&#45;&gt;NEXT_TX_OPPORTUNITY -->
<g id="edge23" class="edge">
<title>TRANSMIT&#45;&gt;NEXT_TX_OPPORTUNITY</title>
<path fill="none" stroke="black" d="M1532.77,-1144.89C1525.45,-1133.82 1518.57,-1121.53 1514,-1109.19 1455.44,-950.95 1454.11,-745.51 1456.4,-662.18"/>
<polygon fill="black" stroke="black" points="1459.9,-662.27 1456.71,-652.17 1452.9,-662.05 1459.9,-662.27"/>
<text text-anchor="middle" x="1529.5" y="-908.99" font-family="Arial" font-size="14.00">(!TX_EN) </text>
<text text-anchor="middle" x="1529.5" y="-893.99" font-family="Arial" font-size="14.00"> &amp;&amp; (!CRS) </text>
<text text-anchor="middle" x="1529.5" y="-878.99" font-family="Arial" font-size="14.00"> &amp;&amp; (bc &gt;= max_bc)</text>
</g>
<!-- BURST -->
<g id="node16" class="node">
<title>BURST</title>
<polygon fill="lightgrey" stroke="transparent" points="1759.5,-1028.19 1548.5,-1028.19 1548.5,-956.19 1759.5,-956.19 1759.5,-1028.19"/>
<polygon fill="none" stroke="#000000" stroke-opacity="0.266667" points="1549,-1007.19 1549,-1028.19 1760,-1028.19 1760,-1007.19 1549,-1007.19"/>
<text text-anchor="start" x="1579" y="-1013.99" font-family="Helvetica,Arial,sans-serif" font-size="14.00"> &#160;&#160;&#160;&#160;&#160;&#160;&#160;&#160;&#160;&#160;&#160;&#160;&#160;&#160;&#160;BURST &#160;&#160;&#160;&#160;&#160;&#160;&#160;&#160;&#160;&#160;&#160;</text>
<polygon fill="none" stroke="#000000" stroke-opacity="0.266667" points="1549,-956.19 1549,-1007.19 1760,-1007.19 1760,-956.19 1549,-956.19"/>
<text text-anchor="start" x="1552" y="-992.99" font-family="Helvetica,Arial,sans-serif" font-size="14.00"> &#160;&#160;&#160;&#160;&#160;&#160;&#160;&#160;&#160;&#160;&#160;&#160;&#160;&#160;&#160;bc := bc + 1 </text>
<text text-anchor="start" x="1552" y="-977.99" font-family="Helvetica,Arial,sans-serif" font-size="14.00"> &#160;&#160;&#160;&#160;&#160;&#160;&#160;&#160;&#160;&#160;&#160;&#160;&#160;&#160;&#160;tx_cmd := COMMIT </text>
<text text-anchor="start" x="1552" y="-962.99" font-family="Helvetica,Arial,sans-serif" font-size="14.00"> &#160;&#160;&#160;&#160;&#160;&#160;&#160;&#160;&#160;&#160;&#160;&#160;&#160;&#160;&#160;start burst_timer &#160;&#160;&#160;&#160;&#160;&#160;&#160;&#160;&#160;&#160;&#160;</text>
</g>
<!-- TRANSMIT&#45;&gt;BURST -->
<g id="edge24" class="edge">
<title>TRANSMIT&#45;&gt;BURST</title>
<path fill="none" stroke="black" d="M1586.09,-1145.01C1600.34,-1113.15 1619.76,-1069.75 1634.18,-1037.5"/>
<polygon fill="black" stroke="black" points="1637.41,-1038.86 1638.29,-1028.31 1631.02,-1036 1637.41,-1038.86"/>
<text text-anchor="middle" x="1676.5" y="-1090.49" font-family="Arial" font-size="14.00">(!TX_EN) </text>
<text text-anchor="middle" x="1676.5" y="-1075.49" font-family="Arial" font-size="14.00"> &amp;&amp; (bc &lt; max_bc)</text>
</g>
<!-- ABORT&#45;&gt;NEXT_TX_OPPORTUNITY -->
<g id="edge29" class="edge">
<title>ABORT&#45;&gt;NEXT_TX_OPPORTUNITY</title>
<path fill="none" stroke="black" d="M1652.19,-796.95C1615.26,-764.17 1541.97,-699.12 1496.75,-658.99"/>
<polygon fill="black" stroke="black" points="1499,-656.3 1489.19,-652.28 1494.35,-661.54 1499,-656.3"/>
<text text-anchor="middle" x="1626.5" y="-727.49" font-family="Arial" font-size="14.00">!CRS</text>
</g>
<!-- BURST&#45;&gt;TRANSMIT -->
<g id="edge25" class="edge">
<title>BURST&#45;&gt;TRANSMIT</title>
<path fill="none" stroke="black" d="M1573.75,-1028.37C1560.21,-1037.98 1547.98,-1049.82 1540,-1064.19 1527.97,-1085.85 1531.8,-1112.42 1539.84,-1135.36"/>
<polygon fill="black" stroke="black" points="1536.67,-1136.85 1543.51,-1144.94 1543.2,-1134.35 1536.67,-1136.85"/>
<text text-anchor="middle" x="1562" y="-1082.99" font-family="Arial" font-size="14.00">TX_EN</text>
</g>
<!-- BURST&#45;&gt;ABORT -->
<g id="edge26" class="edge">
<title>BURST&#45;&gt;ABORT</title>
<path fill="none" stroke="black" d="M1658.3,-955.97C1662.13,-924.63 1667.66,-879.28 1671.3,-849.53"/>
<polygon fill="black" stroke="black" points="1674.8,-849.67 1672.54,-839.32 1667.86,-848.82 1674.8,-849.67"/>
<text text-anchor="middle" x="1733" y="-901.49" font-family="Arial" font-size="14.00">(!TX_EN) </text>
<text text-anchor="middle" x="1733" y="-886.49" font-family="Arial" font-size="14.00"> &amp;&amp; burst_timer_done</text>
</g>
</g>
</svg>
