<?xml version="1.0" encoding="UTF-8" standalone="no"?>
<!DOCTYPE svg PUBLIC "-//W3C//DTD SVG 1.1//EN"
 "http://www.w3.org/Graphics/SVG/1.1/DTD/svg11.dtd">
<!-- Generated by graphviz version 2.43.0 (0)
 -->
<!-- Title: EthernetPlcaCtrl Pages: 1 -->
<svg width="1940pt" height="2171pt"
 viewBox="0.00 0.00 1939.50 2171.00" xmlns="http://www.w3.org/2000/svg" xmlns:xlink="http://www.w3.org/1999/xlink">
<g id="graph0" class="graph" transform="scale(1 1) rotate(0) translate(4 2167)">
<title>EthernetPlcaCtrl</title>
<polygon fill="white" stroke="transparent" points="-4,4 -4,-2167 1935.5,-2167 1935.5,4 -4,4"/>
<text text-anchor="middle" x="965.75" y="-2143" font-family="Helvetica,Arial,sans-serif" font-size="20.00">EthernetPlcaCtrl</text>
<!-- CS_DISABLE -->
<g id="node1" class="node">
<title>CS_DISABLE</title>
<polygon fill="lightgrey" stroke="transparent" points="1873.5,-2133 1399.5,-2133 1399.5,-1986 1873.5,-1986 1873.5,-2133"/>
<polygon fill="none" stroke="#000000" stroke-opacity="0.266667" points="1399.5,-2111.5 1399.5,-2132.5 1873.5,-2132.5 1873.5,-2111.5 1399.5,-2111.5"/>
<text text-anchor="start" x="1542" y="-2118.3" font-family="Helvetica,Arial,sans-serif" font-size="14.00"> &#160;&#160;&#160;&#160;&#160;&#160;&#160;&#160;&#160;&#160;&#160;&#160;&#160;&#160;&#160;CS_DISABLE &#160;&#160;&#160;&#160;&#160;&#160;&#160;&#160;&#160;&#160;&#160;</text>
<polygon fill="none" stroke="#000000" stroke-opacity="0.266667" points="1399.5,-1985.5 1399.5,-2111.5 1873.5,-2111.5 1873.5,-1985.5 1399.5,-1985.5"/>
<text text-anchor="start" x="1402.5" y="-2097.3" font-family="Helvetica,Arial,sans-serif" font-size="14.00"> &#160;&#160;&#160;&#160;&#160;&#160;&#160;&#160;&#160;&#160;&#160;&#160;&#160;&#160;&#160;if (tx_cmd != CMD_NONE) { </text>
<text text-anchor="start" x="1402.5" y="-2082.3" font-family="Helvetica,Arial,sans-serif" font-size="14.00"> &#160;&#160;&#160;&#160;&#160;&#160;&#160;&#160;&#160;&#160;&#160;&#160;&#160;&#160;&#160;. &#160;&#160;FSMA_Delay_Action(phy&#45;&gt;endSignalTransmission(ESDNONE)); </text>
<text text-anchor="start" x="1402.5" y="-2067.3" font-family="Helvetica,Arial,sans-serif" font-size="14.00"> &#160;&#160;&#160;&#160;&#160;&#160;&#160;&#160;&#160;&#160;&#160;&#160;&#160;&#160;&#160;. &#160;&#160;tx_cmd = CMD_NONE; </text>
<text text-anchor="start" x="1402.5" y="-2052.3" font-family="Helvetica,Arial,sans-serif" font-size="14.00"> &#160;&#160;&#160;&#160;&#160;&#160;&#160;&#160;&#160;&#160;&#160;&#160;&#160;&#160;&#160;. &#160;&#160;emit(txCmdSignal, tx_cmd); </text>
<text text-anchor="start" x="1402.5" y="-2037.3" font-family="Helvetica,Arial,sans-serif" font-size="14.00"> &#160;&#160;&#160;&#160;&#160;&#160;&#160;&#160;&#160;&#160;&#160;&#160;&#160;&#160;&#160;} </text>
<text text-anchor="start" x="1402.5" y="-2022.3" font-family="Helvetica,Arial,sans-serif" font-size="14.00"> &#160;&#160;&#160;&#160;&#160;&#160;&#160;&#160;&#160;&#160;&#160;&#160;&#160;&#160;&#160;committed = false; </text>
<text text-anchor="start" x="1402.5" y="-2007.3" font-family="Helvetica,Arial,sans-serif" font-size="14.00"> &#160;&#160;&#160;&#160;&#160;&#160;&#160;&#160;&#160;&#160;&#160;&#160;&#160;&#160;&#160;curID = 0; </text>
<text text-anchor="start" x="1402.5" y="-1992.3" font-family="Helvetica,Arial,sans-serif" font-size="14.00"> &#160;&#160;&#160;&#160;&#160;&#160;&#160;&#160;&#160;&#160;&#160;&#160;&#160;&#160;&#160;emit(curIDSignal, curID); &#160;&#160;&#160;&#160;&#160;&#160;&#160;&#160;&#160;&#160;&#160;</text>
</g>
<!-- CS_RESYNC -->
<g id="node2" class="node">
<title>CS_RESYNC</title>
<polygon fill="lightgrey" stroke="transparent" points="1439.5,-1884 1245.5,-1884 1245.5,-1842 1439.5,-1842 1439.5,-1884"/>
<polygon fill="none" stroke="#000000" stroke-opacity="0.266667" points="1245.5,-1863 1245.5,-1884 1439.5,-1884 1439.5,-1863 1245.5,-1863"/>
<text text-anchor="start" x="1248.5" y="-1869.8" font-family="Helvetica,Arial,sans-serif" font-size="14.00"> &#160;&#160;&#160;&#160;&#160;&#160;&#160;&#160;&#160;&#160;&#160;&#160;&#160;&#160;&#160;CS_RESYNC &#160;&#160;&#160;&#160;&#160;&#160;&#160;&#160;&#160;&#160;&#160;</text>
<polygon fill="none" stroke="#000000" stroke-opacity="0.266667" points="1245.5,-1842 1245.5,-1863 1439.5,-1863 1439.5,-1842 1245.5,-1842"/>
<text text-anchor="start" x="1248.5" y="-1848.8" font-family="Helvetica,Arial,sans-serif" font-size="14.00"> &#160;&#160;&#160;&#160;&#160;&#160;&#160;&#160;&#160;&#160;&#160;</text>
</g>
<!-- CS_DISABLE&#45;&gt;CS_RESYNC -->
<g id="edge1" class="edge">
<title>CS_DISABLE&#45;&gt;CS_RESYNC</title>
<path fill="none" stroke="black" d="M1526.61,-1985.8C1475.57,-1952.04 1418.15,-1914.05 1381.21,-1889.61"/>
<polygon fill="black" stroke="black" points="1383.01,-1886.6 1372.74,-1884 1379.15,-1892.44 1383.01,-1886.6"/>
<text text-anchor="middle" x="1526.5" y="-1938.8" font-family="Arial" font-size="14.00">T1:</text>
<text text-anchor="middle" x="1526.5" y="-1923.8" font-family="Arial" font-size="14.00"> local_nodeID != 0</text>
</g>
<!-- CS_RECOVER -->
<g id="node3" class="node">
<title>CS_RECOVER</title>
<polygon fill="lightgrey" stroke="transparent" points="1466,-1401 1261,-1401 1261,-1359 1466,-1359 1466,-1401"/>
<polygon fill="none" stroke="#000000" stroke-opacity="0.266667" points="1261.5,-1380 1261.5,-1401 1466.5,-1401 1466.5,-1380 1261.5,-1380"/>
<text text-anchor="start" x="1264.5" y="-1386.8" font-family="Helvetica,Arial,sans-serif" font-size="14.00"> &#160;&#160;&#160;&#160;&#160;&#160;&#160;&#160;&#160;&#160;&#160;&#160;&#160;&#160;&#160;CS_RECOVER &#160;&#160;&#160;&#160;&#160;&#160;&#160;&#160;&#160;&#160;&#160;</text>
<polygon fill="none" stroke="#000000" stroke-opacity="0.266667" points="1261.5,-1359 1261.5,-1380 1466.5,-1380 1466.5,-1359 1261.5,-1359"/>
<text text-anchor="start" x="1264.5" y="-1365.8" font-family="Helvetica,Arial,sans-serif" font-size="14.00"> &#160;&#160;&#160;&#160;&#160;&#160;&#160;&#160;&#160;&#160;&#160;</text>
</g>
<!-- CS_DISABLE&#45;&gt;CS_RECOVER -->
<g id="edge2" class="edge">
<title>CS_DISABLE&#45;&gt;CS_RECOVER</title>
<path fill="none" stroke="black" d="M1711.81,-1985.76C1770.45,-1919.88 1835.8,-1819.83 1796.5,-1731 1722.24,-1563.16 1519.93,-1451.75 1420.38,-1405.4"/>
<polygon fill="black" stroke="black" points="1421.62,-1402.12 1411.07,-1401.11 1418.69,-1408.48 1421.62,-1402.12"/>
<text text-anchor="middle" x="1865" y="-1772.3" font-family="Arial" font-size="14.00">T2:</text>
<text text-anchor="middle" x="1865" y="-1757.3" font-family="Arial" font-size="14.00"> local_nodeID == 0</text>
</g>
<!-- CS_EARLY_RECEIVE -->
<g id="node4" class="node">
<title>CS_EARLY_RECEIVE</title>
<polygon fill="lightgrey" stroke="transparent" points="1022.5,-1680 586.5,-1680 586.5,-1623 1022.5,-1623 1022.5,-1680"/>
<polygon fill="none" stroke="#000000" stroke-opacity="0.266667" points="586.5,-1658.5 586.5,-1679.5 1022.5,-1679.5 1022.5,-1658.5 586.5,-1658.5"/>
<text text-anchor="start" x="684" y="-1665.3" font-family="Helvetica,Arial,sans-serif" font-size="14.00"> &#160;&#160;&#160;&#160;&#160;&#160;&#160;&#160;&#160;&#160;&#160;&#160;&#160;&#160;&#160;CS_EARLY_RECEIVE &#160;&#160;&#160;&#160;&#160;&#160;&#160;&#160;&#160;&#160;&#160;</text>
<polygon fill="none" stroke="#000000" stroke-opacity="0.266667" points="586.5,-1622.5 586.5,-1658.5 1022.5,-1658.5 1022.5,-1622.5 586.5,-1622.5"/>
<text text-anchor="start" x="589.5" y="-1644.3" font-family="Helvetica,Arial,sans-serif" font-size="14.00"> &#160;&#160;&#160;&#160;&#160;&#160;&#160;&#160;&#160;&#160;&#160;&#160;&#160;&#160;&#160;cancelEvent(to_timer); </text>
<text text-anchor="start" x="589.5" y="-1629.3" font-family="Helvetica,Arial,sans-serif" font-size="14.00"> &#160;&#160;&#160;&#160;&#160;&#160;&#160;&#160;&#160;&#160;&#160;&#160;&#160;&#160;&#160;scheduleAfter(22 / mode&#45;&gt;bitrate, beacon_det_timer); &#160;&#160;&#160;&#160;&#160;&#160;&#160;&#160;&#160;&#160;&#160;</text>
</g>
<!-- CS_RESYNC&#45;&gt;CS_EARLY_RECEIVE -->
<g id="edge3" class="edge">
<title>CS_RESYNC&#45;&gt;CS_EARLY_RECEIVE</title>
<path fill="none" stroke="black" d="M1292.59,-1841.88C1267.72,-1831.59 1237.31,-1818.6 1210.5,-1806 1144.83,-1775.14 1132.75,-1758.23 1065.5,-1731 1019.53,-1712.39 967.46,-1695.86 921.98,-1682.82"/>
<polygon fill="black" stroke="black" points="922.65,-1679.38 912.08,-1680.01 920.74,-1686.11 922.65,-1679.38"/>
<text text-anchor="middle" x="1267.5" y="-1779.8" font-family="Arial" font-size="14.00">T1:</text>
<text text-anchor="middle" x="1267.5" y="-1764.8" font-family="Arial" font-size="14.00"> local_nodeID != 0 </text>
<text text-anchor="middle" x="1267.5" y="-1749.8" font-family="Arial" font-size="14.00"> &amp;&amp; CRS</text>
</g>
<!-- CS_SEND_BEACON -->
<g id="node5" class="node">
<title>CS_SEND_BEACON</title>
<polygon fill="lightgrey" stroke="transparent" points="1590,-1695 1095,-1695 1095,-1608 1590,-1608 1590,-1695"/>
<polygon fill="none" stroke="#000000" stroke-opacity="0.266667" points="1095.5,-1673.5 1095.5,-1694.5 1590.5,-1694.5 1590.5,-1673.5 1095.5,-1673.5"/>
<text text-anchor="start" x="1225.5" y="-1680.3" font-family="Helvetica,Arial,sans-serif" font-size="14.00"> &#160;&#160;&#160;&#160;&#160;&#160;&#160;&#160;&#160;&#160;&#160;&#160;&#160;&#160;&#160;CS_SEND_BEACON &#160;&#160;&#160;&#160;&#160;&#160;&#160;&#160;&#160;&#160;&#160;</text>
<polygon fill="none" stroke="#000000" stroke-opacity="0.266667" points="1095.5,-1607.5 1095.5,-1673.5 1590.5,-1673.5 1590.5,-1607.5 1095.5,-1607.5"/>
<text text-anchor="start" x="1098.5" y="-1659.3" font-family="Helvetica,Arial,sans-serif" font-size="14.00"> &#160;&#160;&#160;&#160;&#160;&#160;&#160;&#160;&#160;&#160;&#160;&#160;&#160;&#160;&#160;scheduleAfter(20 / mode&#45;&gt;bitrate, beacon_timer); </text>
<text text-anchor="start" x="1098.5" y="-1644.3" font-family="Helvetica,Arial,sans-serif" font-size="14.00"> &#160;&#160;&#160;&#160;&#160;&#160;&#160;&#160;&#160;&#160;&#160;&#160;&#160;&#160;&#160;tx_cmd = CMD_BEACON; </text>
<text text-anchor="start" x="1098.5" y="-1629.3" font-family="Helvetica,Arial,sans-serif" font-size="14.00"> &#160;&#160;&#160;&#160;&#160;&#160;&#160;&#160;&#160;&#160;&#160;&#160;&#160;&#160;&#160;emit(txCmdSignal, tx_cmd); </text>
<text text-anchor="start" x="1098.5" y="-1614.3" font-family="Helvetica,Arial,sans-serif" font-size="14.00"> &#160;&#160;&#160;&#160;&#160;&#160;&#160;&#160;&#160;&#160;&#160;&#160;&#160;&#160;&#160;FSMA_Delay_Action(phy&#45;&gt;startSignalTransmission(BEACON)); &#160;&#160;&#160;&#160;&#160;&#160;&#160;&#160;&#160;&#160;&#160;</text>
</g>
<!-- CS_RESYNC&#45;&gt;CS_SEND_BEACON -->
<g id="edge4" class="edge">
<title>CS_RESYNC&#45;&gt;CS_SEND_BEACON</title>
<path fill="none" stroke="black" d="M1342.5,-1841.91C1342.5,-1810.75 1342.5,-1749.72 1342.5,-1705.34"/>
<polygon fill="black" stroke="black" points="1346,-1705.29 1342.5,-1695.29 1339,-1705.29 1346,-1705.29"/>
<text text-anchor="middle" x="1410.5" y="-1787.3" font-family="Arial" font-size="14.00">T2:</text>
<text text-anchor="middle" x="1410.5" y="-1772.3" font-family="Arial" font-size="14.00"> PMCD </text>
<text text-anchor="middle" x="1410.5" y="-1757.3" font-family="Arial" font-size="14.00"> &amp;&amp; !CRS </text>
<text text-anchor="middle" x="1410.5" y="-1742.3" font-family="Arial" font-size="14.00"> &amp;&amp; local_nodeID == 0</text>
</g>
<!-- CS_WAIT_TO -->
<g id="node6" class="node">
<title>CS_WAIT_TO</title>
<polygon fill="lightgrey" stroke="transparent" points="954.5,-1197 626.5,-1197 626.5,-1155 954.5,-1155 954.5,-1197"/>
<polygon fill="none" stroke="#000000" stroke-opacity="0.266667" points="626.5,-1176 626.5,-1197 954.5,-1197 954.5,-1176 626.5,-1176"/>
<text text-anchor="start" x="694" y="-1182.8" font-family="Helvetica,Arial,sans-serif" font-size="14.00"> &#160;&#160;&#160;&#160;&#160;&#160;&#160;&#160;&#160;&#160;&#160;&#160;&#160;&#160;&#160;CS_WAIT_TO &#160;&#160;&#160;&#160;&#160;&#160;&#160;&#160;&#160;&#160;&#160;</text>
<polygon fill="none" stroke="#000000" stroke-opacity="0.266667" points="626.5,-1155 626.5,-1176 954.5,-1176 954.5,-1155 626.5,-1155"/>
<text text-anchor="start" x="629.5" y="-1161.8" font-family="Helvetica,Arial,sans-serif" font-size="14.00"> &#160;&#160;&#160;&#160;&#160;&#160;&#160;&#160;&#160;&#160;&#160;&#160;&#160;&#160;&#160;scheduleAfter(to_interval, to_timer); &#160;&#160;&#160;&#160;&#160;&#160;&#160;&#160;&#160;&#160;&#160;</text>
</g>
<!-- CS_RECOVER&#45;&gt;CS_WAIT_TO -->
<g id="edge5" class="edge">
<title>CS_RECOVER&#45;&gt;CS_WAIT_TO</title>
<path fill="none" stroke="black" d="M1324.26,-1358.96C1296.74,-1345.32 1258.88,-1327.4 1224.5,-1314 1104.76,-1267.34 961.97,-1224.66 873.77,-1199.75"/>
<polygon fill="black" stroke="black" points="874.66,-1196.36 864.08,-1197.02 872.76,-1203.1 874.66,-1196.36"/>
<text text-anchor="middle" x="1139" y="-1259.3" font-family="Arial" font-size="14.00">T1:</text>
<text text-anchor="middle" x="1139" y="-1244.3" font-family="Arial" font-size="14.00"> TRUE</text>
</g>
<!-- CS_EARLY_RECEIVE&#45;&gt;CS_RESYNC -->
<g id="edge13" class="edge">
<title>CS_EARLY_RECEIVE&#45;&gt;CS_RESYNC</title>
<path fill="none" stroke="black" d="M796.6,-1680.21C788.68,-1714.57 781.71,-1772.68 813.5,-1806 842,-1835.87 1088.83,-1851.34 1235.05,-1857.95"/>
<polygon fill="black" stroke="black" points="1235.25,-1861.46 1245.4,-1858.41 1235.56,-1854.46 1235.25,-1861.46"/>
<text text-anchor="middle" x="930.5" y="-1794.8" font-family="Arial" font-size="14.00">T2:</text>
<text text-anchor="middle" x="930.5" y="-1779.8" font-family="Arial" font-size="14.00"> !CRS </text>
<text text-anchor="middle" x="930.5" y="-1764.8" font-family="Arial" font-size="14.00"> &amp;&amp; local_nodeID != 0 </text>
<text text-anchor="middle" x="930.5" y="-1749.8" font-family="Arial" font-size="14.00"> &amp;&amp; rx_cmd != BEACON </text>
<text text-anchor="middle" x="930.5" y="-1734.8" font-family="Arial" font-size="14.00"> &amp;&amp; !beacon_det_timer&#45;&gt;isScheduled()</text>
</g>
<!-- CS_EARLY_RECEIVE&#45;&gt;CS_RECOVER -->
<g id="edge14" class="edge">
<title>CS_EARLY_RECEIVE&#45;&gt;CS_RECOVER</title>
<path fill="none" stroke="black" d="M953.85,-1622.9C991.87,-1611.29 1031.1,-1594.94 1063.5,-1572 1103.98,-1543.33 1090.02,-1512.02 1129.5,-1482 1165.44,-1454.67 1182.91,-1463.58 1224.5,-1446 1254.46,-1433.34 1287.47,-1417.97 1313.79,-1405.35"/>
<polygon fill="black" stroke="black" points="1315.31,-1408.5 1322.81,-1401.01 1312.28,-1402.2 1315.31,-1408.5"/>
<text text-anchor="middle" x="1187" y="-1538.3" font-family="Arial" font-size="14.00">T3:</text>
<text text-anchor="middle" x="1187" y="-1523.3" font-family="Arial" font-size="14.00"> !CRS &amp;&amp; </text>
<text text-anchor="middle" x="1187" y="-1508.3" font-family="Arial" font-size="14.00"> local_nodeID == 0</text>
</g>
<!-- CS_SYNCING -->
<g id="node7" class="node">
<title>CS_SYNCING</title>
<polygon fill="lightgrey" stroke="transparent" points="1188.5,-1446 714.5,-1446 714.5,-1314 1188.5,-1314 1188.5,-1446"/>
<polygon fill="none" stroke="#000000" stroke-opacity="0.266667" points="714.5,-1425 714.5,-1446 1188.5,-1446 1188.5,-1425 714.5,-1425"/>
<text text-anchor="start" x="854.5" y="-1431.8" font-family="Helvetica,Arial,sans-serif" font-size="14.00"> &#160;&#160;&#160;&#160;&#160;&#160;&#160;&#160;&#160;&#160;&#160;&#160;&#160;&#160;&#160;CS_SYNCING &#160;&#160;&#160;&#160;&#160;&#160;&#160;&#160;&#160;&#160;&#160;</text>
<polygon fill="none" stroke="#000000" stroke-opacity="0.266667" points="714.5,-1314 714.5,-1425 1188.5,-1425 1188.5,-1314 714.5,-1314"/>
<text text-anchor="start" x="717.5" y="-1410.8" font-family="Helvetica,Arial,sans-serif" font-size="14.00"> &#160;&#160;&#160;&#160;&#160;&#160;&#160;&#160;&#160;&#160;&#160;&#160;&#160;&#160;&#160;curID = 0; </text>
<text text-anchor="start" x="717.5" y="-1395.8" font-family="Helvetica,Arial,sans-serif" font-size="14.00"> &#160;&#160;&#160;&#160;&#160;&#160;&#160;&#160;&#160;&#160;&#160;&#160;&#160;&#160;&#160;emit(curIDSignal, curID); </text>
<text text-anchor="start" x="717.5" y="-1380.8" font-family="Helvetica,Arial,sans-serif" font-size="14.00"> &#160;&#160;&#160;&#160;&#160;&#160;&#160;&#160;&#160;&#160;&#160;&#160;&#160;&#160;&#160;if (tx_cmd != CMD_NONE) { </text>
<text text-anchor="start" x="717.5" y="-1365.8" font-family="Helvetica,Arial,sans-serif" font-size="14.00"> &#160;&#160;&#160;&#160;&#160;&#160;&#160;&#160;&#160;&#160;&#160;&#160;&#160;&#160;&#160;. &#160;&#160;FSMA_Delay_Action(phy&#45;&gt;endSignalTransmission(ESDNONE)); </text>
<text text-anchor="start" x="717.5" y="-1350.8" font-family="Helvetica,Arial,sans-serif" font-size="14.00"> &#160;&#160;&#160;&#160;&#160;&#160;&#160;&#160;&#160;&#160;&#160;&#160;&#160;&#160;&#160;. &#160;&#160;tx_cmd = CMD_NONE; </text>
<text text-anchor="start" x="717.5" y="-1335.8" font-family="Helvetica,Arial,sans-serif" font-size="14.00"> &#160;&#160;&#160;&#160;&#160;&#160;&#160;&#160;&#160;&#160;&#160;&#160;&#160;&#160;&#160;. &#160;&#160;emit(txCmdSignal, tx_cmd); </text>
<text text-anchor="start" x="717.5" y="-1320.8" font-family="Helvetica,Arial,sans-serif" font-size="14.00"> &#160;&#160;&#160;&#160;&#160;&#160;&#160;&#160;&#160;&#160;&#160;&#160;&#160;&#160;&#160;} &#160;&#160;&#160;&#160;&#160;&#160;&#160;&#160;&#160;&#160;&#160;</text>
</g>
<!-- CS_EARLY_RECEIVE&#45;&gt;CS_SYNCING -->
<g id="edge12" class="edge">
<title>CS_EARLY_RECEIVE&#45;&gt;CS_SYNCING</title>
<path fill="none" stroke="black" d="M798.43,-1622.92C792.24,-1587.89 786.56,-1526.62 810.5,-1482 816.06,-1471.64 823.21,-1462.08 831.33,-1453.33"/>
<polygon fill="black" stroke="black" points="833.85,-1455.76 838.36,-1446.17 828.86,-1450.85 833.85,-1455.76"/>
<text text-anchor="middle" x="930" y="-1560.8" font-family="Arial" font-size="14.00">T1:</text>
<text text-anchor="middle" x="930" y="-1545.8" font-family="Arial" font-size="14.00"> local_nodeID != 0 </text>
<text text-anchor="middle" x="930" y="-1530.8" font-family="Arial" font-size="14.00"> &amp;&amp; !receiving </text>
<text text-anchor="middle" x="930" y="-1515.8" font-family="Arial" font-size="14.00"> &amp;&amp; (rx_cmd == BEACON </text>
<text text-anchor="middle" x="930" y="-1500.8" font-family="Arial" font-size="14.00"> || (!CRS </text>
<text text-anchor="middle" x="930" y="-1485.8" font-family="Arial" font-size="14.00"> &amp;&amp; beacon_det_timer&#45;&gt;isScheduled()))</text>
</g>
<!-- CS_RECEIVE -->
<g id="node11" class="node">
<title>CS_RECEIVE</title>
<polygon fill="lightgrey" stroke="transparent" points="197,-1276.5 0,-1276.5 0,-1234.5 197,-1234.5 197,-1276.5"/>
<polygon fill="none" stroke="#000000" stroke-opacity="0.266667" points="0.5,-1255.5 0.5,-1276.5 197.5,-1276.5 197.5,-1255.5 0.5,-1255.5"/>
<text text-anchor="start" x="3.5" y="-1262.3" font-family="Helvetica,Arial,sans-serif" font-size="14.00"> &#160;&#160;&#160;&#160;&#160;&#160;&#160;&#160;&#160;&#160;&#160;&#160;&#160;&#160;&#160;CS_RECEIVE &#160;&#160;&#160;&#160;&#160;&#160;&#160;&#160;&#160;&#160;&#160;</text>
<polygon fill="none" stroke="#000000" stroke-opacity="0.266667" points="0.5,-1234.5 0.5,-1255.5 197.5,-1255.5 197.5,-1234.5 0.5,-1234.5"/>
<text text-anchor="start" x="3.5" y="-1241.3" font-family="Helvetica,Arial,sans-serif" font-size="14.00"> &#160;&#160;&#160;&#160;&#160;&#160;&#160;&#160;&#160;&#160;&#160;</text>
</g>
<!-- CS_EARLY_RECEIVE&#45;&gt;CS_RECEIVE -->
<g id="edge15" class="edge">
<title>CS_EARLY_RECEIVE&#45;&gt;CS_RECEIVE</title>
<path fill="none" stroke="black" d="M586.26,-1645.55C439.86,-1637.88 263.73,-1618.83 206.5,-1572 117.97,-1499.57 101.76,-1351.02 98.98,-1286.98"/>
<polygon fill="black" stroke="black" points="102.46,-1286.62 98.61,-1276.75 95.47,-1286.87 102.46,-1286.62"/>
<text text-anchor="middle" x="237.5" y="-1538.3" font-family="Arial" font-size="14.00">T4:</text>
<text text-anchor="middle" x="237.5" y="-1523.3" font-family="Arial" font-size="14.00"> receiving </text>
<text text-anchor="middle" x="237.5" y="-1508.3" font-family="Arial" font-size="14.00"> &amp;&amp; CRS</text>
</g>
<!-- CS_SEND_BEACON&#45;&gt;CS_SYNCING -->
<g id="edge6" class="edge">
<title>CS_SEND_BEACON&#45;&gt;CS_SYNCING</title>
<path fill="none" stroke="black" d="M1332.58,-1607.98C1321.58,-1569.91 1300.21,-1515.13 1262.5,-1482 1243.21,-1465.06 1221.03,-1450.95 1197.59,-1439.2"/>
<polygon fill="black" stroke="black" points="1199.07,-1436.03 1188.54,-1434.81 1196.01,-1442.33 1199.07,-1436.03"/>
<text text-anchor="middle" x="1411.5" y="-1530.8" font-family="Arial" font-size="14.00">T1:</text>
<text text-anchor="middle" x="1411.5" y="-1515.8" font-family="Arial" font-size="14.00"> !beacon_timer&#45;&gt;isScheduled()</text>
</g>
<!-- CS_WAIT_TO&#45;&gt;CS_EARLY_RECEIVE -->
<g id="edge8" class="edge">
<title>CS_WAIT_TO&#45;&gt;CS_EARLY_RECEIVE</title>
<path fill="none" stroke="black" d="M756.49,-1197.15C721.16,-1220.28 667.98,-1261.84 645.5,-1314 622.28,-1367.88 626.47,-1390.51 645.5,-1446 669.1,-1514.79 726.33,-1578.28 765.29,-1615.71"/>
<polygon fill="black" stroke="black" points="763.15,-1618.51 772.82,-1622.84 767.97,-1613.43 763.15,-1618.51"/>
<text text-anchor="middle" x="662" y="-1383.8" font-family="Arial" font-size="14.00">T1:</text>
<text text-anchor="middle" x="662" y="-1368.8" font-family="Arial" font-size="14.00"> CRS</text>
</g>
<!-- CS_COMMIT -->
<g id="node8" class="node">
<title>CS_COMMIT</title>
<polygon fill="lightgrey" stroke="transparent" points="1411,-1023 900,-1023 900,-876 1411,-876 1411,-1023"/>
<polygon fill="none" stroke="#000000" stroke-opacity="0.266667" points="900.5,-1001.5 900.5,-1022.5 1411.5,-1022.5 1411.5,-1001.5 900.5,-1001.5"/>
<text text-anchor="start" x="1061.5" y="-1008.3" font-family="Helvetica,Arial,sans-serif" font-size="14.00"> &#160;&#160;&#160;&#160;&#160;&#160;&#160;&#160;&#160;&#160;&#160;&#160;&#160;&#160;&#160;CS_COMMIT &#160;&#160;&#160;&#160;&#160;&#160;&#160;&#160;&#160;&#160;&#160;</text>
<polygon fill="none" stroke="#000000" stroke-opacity="0.266667" points="900.5,-875.5 900.5,-1001.5 1411.5,-1001.5 1411.5,-875.5 900.5,-875.5"/>
<text text-anchor="start" x="903.5" y="-987.3" font-family="Helvetica,Arial,sans-serif" font-size="14.00"> &#160;&#160;&#160;&#160;&#160;&#160;&#160;&#160;&#160;&#160;&#160;&#160;&#160;&#160;&#160;tx_cmd = CMD_COMMIT; </text>
<text text-anchor="start" x="903.5" y="-972.3" font-family="Helvetica,Arial,sans-serif" font-size="14.00"> &#160;&#160;&#160;&#160;&#160;&#160;&#160;&#160;&#160;&#160;&#160;&#160;&#160;&#160;&#160;emit(txCmdSignal, tx_cmd); </text>
<text text-anchor="start" x="903.5" y="-957.3" font-family="Helvetica,Arial,sans-serif" font-size="14.00"> &#160;&#160;&#160;&#160;&#160;&#160;&#160;&#160;&#160;&#160;&#160;&#160;&#160;&#160;&#160;FSMA_Delay_Action(phy&#45;&gt;startSignalTransmission(COMMIT)); </text>
<text text-anchor="start" x="903.5" y="-942.3" font-family="Helvetica,Arial,sans-serif" font-size="14.00"> &#160;&#160;&#160;&#160;&#160;&#160;&#160;&#160;&#160;&#160;&#160;&#160;&#160;&#160;&#160;committed = true; </text>
<text text-anchor="start" x="903.5" y="-927.3" font-family="Helvetica,Arial,sans-serif" font-size="14.00"> &#160;&#160;&#160;&#160;&#160;&#160;&#160;&#160;&#160;&#160;&#160;&#160;&#160;&#160;&#160;cancelEvent(to_timer); </text>
<text text-anchor="start" x="903.5" y="-912.3" font-family="Helvetica,Arial,sans-serif" font-size="14.00"> &#160;&#160;&#160;&#160;&#160;&#160;&#160;&#160;&#160;&#160;&#160;&#160;&#160;&#160;&#160;bc = 0; </text>
<text text-anchor="start" x="903.5" y="-897.3" font-family="Helvetica,Arial,sans-serif" font-size="14.00"> &#160;&#160;&#160;&#160;&#160;&#160;&#160;&#160;&#160;&#160;&#160;&#160;&#160;&#160;&#160;emit(transmitOpportunityUsedSignal, 1); </text>
<text text-anchor="start" x="903.5" y="-882.3" font-family="Helvetica,Arial,sans-serif" font-size="14.00"> &#160;&#160;&#160;&#160;&#160;&#160;&#160;&#160;&#160;&#160;&#160;&#160;&#160;&#160;&#160;FSMA_Delay_Action(handleWithDataFSM(COMMIT_TO, nullptr)); &#160;&#160;&#160;&#160;&#160;&#160;&#160;&#160;&#160;&#160;&#160;</text>
</g>
<!-- CS_WAIT_TO&#45;&gt;CS_COMMIT -->
<g id="edge9" class="edge">
<title>CS_WAIT_TO&#45;&gt;CS_COMMIT</title>
<path fill="none" stroke="black" d="M823.21,-1154.88C869.2,-1126.59 955.53,-1073.5 1028.67,-1028.51"/>
<polygon fill="black" stroke="black" points="1030.84,-1031.29 1037.52,-1023.07 1027.17,-1025.32 1030.84,-1031.29"/>
<text text-anchor="middle" x="1044" y="-1107.8" font-family="Arial" font-size="14.00">T2:</text>
<text text-anchor="middle" x="1044" y="-1092.8" font-family="Arial" font-size="14.00"> curID == local_nodeID </text>
<text text-anchor="middle" x="1044" y="-1077.8" font-family="Arial" font-size="14.00"> &amp;&amp; packetPending </text>
<text text-anchor="middle" x="1044" y="-1062.8" font-family="Arial" font-size="14.00"> &amp;&amp; !CRS</text>
</g>
<!-- CS_NEXT_TX_OPPORTUNITY -->
<g id="node9" class="node">
<title>CS_NEXT_TX_OPPORTUNITY</title>
<polygon fill="lightgrey" stroke="transparent" points="931,-72 624,-72 624,0 931,0 931,-72"/>
<polygon fill="none" stroke="#000000" stroke-opacity="0.266667" points="624.5,-51 624.5,-72 931.5,-72 931.5,-51 624.5,-51"/>
<text text-anchor="start" x="627.5" y="-57.8" font-family="Helvetica,Arial,sans-serif" font-size="14.00"> &#160;&#160;&#160;&#160;&#160;&#160;&#160;&#160;&#160;&#160;&#160;&#160;&#160;&#160;&#160;CS_NEXT_TX_OPPORTUNITY &#160;&#160;&#160;&#160;&#160;&#160;&#160;&#160;&#160;&#160;&#160;</text>
<polygon fill="none" stroke="#000000" stroke-opacity="0.266667" points="624.5,0 624.5,-51 931.5,-51 931.5,0 624.5,0"/>
<text text-anchor="start" x="627.5" y="-36.8" font-family="Helvetica,Arial,sans-serif" font-size="14.00"> &#160;&#160;&#160;&#160;&#160;&#160;&#160;&#160;&#160;&#160;&#160;&#160;&#160;&#160;&#160;curID = curID + 1; </text>
<text text-anchor="start" x="627.5" y="-21.8" font-family="Helvetica,Arial,sans-serif" font-size="14.00"> &#160;&#160;&#160;&#160;&#160;&#160;&#160;&#160;&#160;&#160;&#160;&#160;&#160;&#160;&#160;emit(curIDSignal, curID); </text>
<text text-anchor="start" x="627.5" y="-6.8" font-family="Helvetica,Arial,sans-serif" font-size="14.00"> &#160;&#160;&#160;&#160;&#160;&#160;&#160;&#160;&#160;&#160;&#160;&#160;&#160;&#160;&#160;committed = false; &#160;&#160;&#160;&#160;&#160;&#160;&#160;&#160;&#160;&#160;&#160;</text>
</g>
<!-- CS_WAIT_TO&#45;&gt;CS_NEXT_TX_OPPORTUNITY -->
<g id="edge10" class="edge">
<title>CS_WAIT_TO&#45;&gt;CS_NEXT_TX_OPPORTUNITY</title>
<path fill="none" stroke="black" d="M766.52,-1154.76C755.91,-1144.84 743.95,-1132.2 735.5,-1119 590.37,-892.49 487.87,-809.81 540.5,-546 581.74,-339.27 616.58,-290.26 722.5,-108 727.96,-98.61 734.52,-89.07 741.18,-80.16"/>
<polygon fill="black" stroke="black" points="743.99,-82.24 747.29,-72.18 738.43,-77.99 743.99,-82.24"/>
<text text-anchor="middle" x="620.5" y="-594.8" font-family="Arial" font-size="14.00">T3:</text>
<text text-anchor="middle" x="620.5" y="-579.8" font-family="Arial" font-size="14.00"> !to_timer&#45;&gt;isScheduled() </text>
<text text-anchor="middle" x="620.5" y="-564.8" font-family="Arial" font-size="14.00"> &amp;&amp; curID != local_nodeID </text>
<text text-anchor="middle" x="620.5" y="-549.8" font-family="Arial" font-size="14.00"> &amp;&amp; !CRS</text>
</g>
<!-- CS_YIELD -->
<g id="node10" class="node">
<title>CS_YIELD</title>
<polygon fill="lightgrey" stroke="transparent" points="513,-970.5 158,-970.5 158,-928.5 513,-928.5 513,-970.5"/>
<polygon fill="none" stroke="#000000" stroke-opacity="0.266667" points="158.5,-949.5 158.5,-970.5 513.5,-970.5 513.5,-949.5 158.5,-949.5"/>
<text text-anchor="start" x="250.5" y="-956.3" font-family="Helvetica,Arial,sans-serif" font-size="14.00"> &#160;&#160;&#160;&#160;&#160;&#160;&#160;&#160;&#160;&#160;&#160;&#160;&#160;&#160;&#160;CS_YIELD &#160;&#160;&#160;&#160;&#160;&#160;&#160;&#160;&#160;&#160;&#160;</text>
<polygon fill="none" stroke="#000000" stroke-opacity="0.266667" points="158.5,-928.5 158.5,-949.5 513.5,-949.5 513.5,-928.5 158.5,-928.5"/>
<text text-anchor="start" x="161.5" y="-935.3" font-family="Helvetica,Arial,sans-serif" font-size="14.00"> &#160;&#160;&#160;&#160;&#160;&#160;&#160;&#160;&#160;&#160;&#160;&#160;&#160;&#160;&#160;emit(transmitOpportunityUsedSignal, 0); &#160;&#160;&#160;&#160;&#160;&#160;&#160;&#160;&#160;&#160;&#160;</text>
</g>
<!-- CS_WAIT_TO&#45;&gt;CS_YIELD -->
<g id="edge11" class="edge">
<title>CS_WAIT_TO&#45;&gt;CS_YIELD</title>
<path fill="none" stroke="black" d="M626.3,-1164.26C544.91,-1156.13 457.17,-1142.24 424.5,-1119 377.56,-1085.61 353.3,-1019.68 342.58,-980.93"/>
<polygon fill="black" stroke="black" points="345.84,-979.55 339.91,-970.77 339.07,-981.33 345.84,-979.55"/>
<text text-anchor="middle" x="496" y="-1107.8" font-family="Arial" font-size="14.00">T4:</text>
<text text-anchor="middle" x="496" y="-1092.8" font-family="Arial" font-size="14.00"> curID == local_nodeID </text>
<text text-anchor="middle" x="496" y="-1077.8" font-family="Arial" font-size="14.00"> &amp;&amp; !packetPending </text>
<text text-anchor="middle" x="496" y="-1062.8" font-family="Arial" font-size="14.00"> &amp;&amp; !CRS</text>
</g>
<!-- CS_SYNCING&#45;&gt;CS_WAIT_TO -->
<g id="edge7" class="edge">
<title>CS_SYNCING&#45;&gt;CS_WAIT_TO</title>
<path fill="none" stroke="black" d="M899.67,-1313.97C870.52,-1277.39 835.58,-1233.57 813.22,-1205.51"/>
<polygon fill="black" stroke="black" points="815.68,-1202.98 806.71,-1197.34 810.21,-1207.34 815.68,-1202.98"/>
<text text-anchor="middle" x="890" y="-1259.3" font-family="Arial" font-size="14.00">T1:</text>
<text text-anchor="middle" x="890" y="-1244.3" font-family="Arial" font-size="14.00"> !CRS</text>
</g>
<!-- CS_TRANSMIT -->
<g id="node12" class="node">
<title>CS_TRANSMIT</title>
<polygon fill="lightgrey" stroke="transparent" points="1384.5,-774 910.5,-774 910.5,-642 1384.5,-642 1384.5,-774"/>
<polygon fill="none" stroke="#000000" stroke-opacity="0.266667" points="910.5,-753 910.5,-774 1384.5,-774 1384.5,-753 910.5,-753"/>
<text text-anchor="start" x="1046.5" y="-759.8" font-family="Helvetica,Arial,sans-serif" font-size="14.00"> &#160;&#160;&#160;&#160;&#160;&#160;&#160;&#160;&#160;&#160;&#160;&#160;&#160;&#160;&#160;CS_TRANSMIT &#160;&#160;&#160;&#160;&#160;&#160;&#160;&#160;&#160;&#160;&#160;</text>
<polygon fill="none" stroke="#000000" stroke-opacity="0.266667" points="910.5,-642 910.5,-753 1384.5,-753 1384.5,-642 910.5,-642"/>
<text text-anchor="start" x="913.5" y="-738.8" font-family="Helvetica,Arial,sans-serif" font-size="14.00"> &#160;&#160;&#160;&#160;&#160;&#160;&#160;&#160;&#160;&#160;&#160;&#160;&#160;&#160;&#160;if (tx_cmd != CMD_NONE) { </text>
<text text-anchor="start" x="913.5" y="-723.8" font-family="Helvetica,Arial,sans-serif" font-size="14.00"> &#160;&#160;&#160;&#160;&#160;&#160;&#160;&#160;&#160;&#160;&#160;&#160;&#160;&#160;&#160;. &#160;&#160;FSMA_Delay_Action(phy&#45;&gt;endSignalTransmission(ESDNONE)); </text>
<text text-anchor="start" x="913.5" y="-708.8" font-family="Helvetica,Arial,sans-serif" font-size="14.00"> &#160;&#160;&#160;&#160;&#160;&#160;&#160;&#160;&#160;&#160;&#160;&#160;&#160;&#160;&#160;. &#160;&#160;tx_cmd = CMD_NONE; </text>
<text text-anchor="start" x="913.5" y="-693.8" font-family="Helvetica,Arial,sans-serif" font-size="14.00"> &#160;&#160;&#160;&#160;&#160;&#160;&#160;&#160;&#160;&#160;&#160;&#160;&#160;&#160;&#160;. &#160;&#160;emit(txCmdSignal, tx_cmd); </text>
<text text-anchor="start" x="913.5" y="-678.8" font-family="Helvetica,Arial,sans-serif" font-size="14.00"> &#160;&#160;&#160;&#160;&#160;&#160;&#160;&#160;&#160;&#160;&#160;&#160;&#160;&#160;&#160;} </text>
<text text-anchor="start" x="913.5" y="-663.8" font-family="Helvetica,Arial,sans-serif" font-size="14.00"> &#160;&#160;&#160;&#160;&#160;&#160;&#160;&#160;&#160;&#160;&#160;&#160;&#160;&#160;&#160;if (bc &lt;= max_bc) </text>
<text text-anchor="start" x="913.5" y="-648.8" font-family="Helvetica,Arial,sans-serif" font-size="14.00"> &#160;&#160;&#160;&#160;&#160;&#160;&#160;&#160;&#160;&#160;&#160;&#160;&#160;&#160;&#160;. &#160;&#160;committed = false; &#160;&#160;&#160;&#160;&#160;&#160;&#160;&#160;&#160;&#160;&#160;</text>
</g>
<!-- CS_COMMIT&#45;&gt;CS_TRANSMIT -->
<g id="edge16" class="edge">
<title>CS_COMMIT&#45;&gt;CS_TRANSMIT</title>
<path fill="none" stroke="black" d="M1153.08,-875.99C1152.11,-847.05 1151,-813.72 1150.02,-784.49"/>
<polygon fill="black" stroke="black" points="1153.51,-784.21 1149.68,-774.34 1146.52,-784.45 1153.51,-784.21"/>
<text text-anchor="middle" x="1175.5" y="-828.8" font-family="Arial" font-size="14.00">T1:</text>
<text text-anchor="middle" x="1175.5" y="-813.8" font-family="Arial" font-size="14.00"> TX_EN</text>
</g>
<!-- CS_ABORT -->
<g id="node13" class="node">
<title>CS_ABORT</title>
<polygon fill="lightgrey" stroke="transparent" points="1476.5,-276 1042.5,-276 1042.5,-174 1476.5,-174 1476.5,-276"/>
<polygon fill="none" stroke="#000000" stroke-opacity="0.266667" points="1042.5,-255 1042.5,-276 1476.5,-276 1476.5,-255 1042.5,-255"/>
<text text-anchor="start" x="1183" y="-261.8" font-family="Helvetica,Arial,sans-serif" font-size="14.00"> &#160;&#160;&#160;&#160;&#160;&#160;&#160;&#160;&#160;&#160;&#160;&#160;&#160;&#160;&#160;ABORT &#160;&#160;&#160;&#160;&#160;&#160;&#160;&#160;&#160;&#160;&#160;</text>
<polygon fill="none" stroke="#000000" stroke-opacity="0.266667" points="1042.5,-174 1042.5,-255 1476.5,-255 1476.5,-174 1042.5,-174"/>
<text text-anchor="start" x="1045.5" y="-240.8" font-family="Helvetica,Arial,sans-serif" font-size="14.00"> &#160;&#160;&#160;&#160;&#160;&#160;&#160;&#160;&#160;&#160;&#160;&#160;&#160;&#160;&#160;if (tx_cmd != CMD_NONE) { </text>
<text text-anchor="start" x="1045.5" y="-225.8" font-family="Helvetica,Arial,sans-serif" font-size="14.00"> &#160;&#160;&#160;&#160;&#160;&#160;&#160;&#160;&#160;&#160;&#160;&#160;&#160;&#160;&#160;. &#160;&#160;FSMA_Delay_Action(phy&#45;&gt;endSignalTransmission(ESD)); </text>
<text text-anchor="start" x="1045.5" y="-210.8" font-family="Helvetica,Arial,sans-serif" font-size="14.00"> &#160;&#160;&#160;&#160;&#160;&#160;&#160;&#160;&#160;&#160;&#160;&#160;&#160;&#160;&#160;. &#160;&#160;tx_cmd = CMD_NONE; </text>
<text text-anchor="start" x="1045.5" y="-195.8" font-family="Helvetica,Arial,sans-serif" font-size="14.00"> &#160;&#160;&#160;&#160;&#160;&#160;&#160;&#160;&#160;&#160;&#160;&#160;&#160;&#160;&#160;. &#160;&#160;emit(txCmdSignal, tx_cmd); </text>
<text text-anchor="start" x="1045.5" y="-180.8" font-family="Helvetica,Arial,sans-serif" font-size="14.00"> &#160;&#160;&#160;&#160;&#160;&#160;&#160;&#160;&#160;&#160;&#160;&#160;&#160;&#160;&#160;} &#160;&#160;&#160;&#160;&#160;&#160;&#160;&#160;&#160;&#160;&#160;</text>
</g>
<!-- CS_COMMIT&#45;&gt;CS_ABORT -->
<g id="edge17" class="edge">
<title>CS_COMMIT&#45;&gt;CS_ABORT</title>
<path fill="none" stroke="black" d="M1300.16,-875.95C1343.4,-848.73 1387.91,-814.42 1420.5,-774 1499.46,-676.08 1499.44,-633.66 1522.5,-510 1539.18,-420.56 1538.26,-372.72 1470.5,-312 1457.33,-300.19 1442.32,-289.89 1426.51,-280.92"/>
<polygon fill="black" stroke="black" points="1428.11,-277.8 1417.66,-276.07 1424.75,-283.94 1428.11,-277.8"/>
<text text-anchor="middle" x="1564" y="-587.3" font-family="Arial" font-size="14.00">T2:</text>
<text text-anchor="middle" x="1564" y="-572.3" font-family="Arial" font-size="14.00"> !TX_EN &amp;&amp; </text>
<text text-anchor="middle" x="1564" y="-557.3" font-family="Arial" font-size="14.00"> !packetPending</text>
</g>
<!-- CS_NEXT_TX_OPPORTUNITY&#45;&gt;CS_RESYNC -->
<g id="edge26" class="edge">
<title>CS_NEXT_TX_OPPORTUNITY&#45;&gt;CS_RESYNC</title>
<path fill="none" stroke="black" d="M931.05,-51.17C1203.13,-78.36 1741.5,-142.46 1741.5,-224 1741.5,-1652.5 1741.5,-1652.5 1741.5,-1652.5 1741.5,-1784.59 1567.96,-1833.57 1449.78,-1851.62"/>
<polygon fill="black" stroke="black" points="1448.98,-1848.2 1439.6,-1853.12 1450,-1855.12 1448.98,-1848.2"/>
<text text-anchor="middle" x="1836.5" y="-960.8" font-family="Arial" font-size="14.00">T1:</text>
<text text-anchor="middle" x="1836.5" y="-945.8" font-family="Arial" font-size="14.00"> (local_nodeID == 0 </text>
<text text-anchor="middle" x="1836.5" y="-930.8" font-family="Arial" font-size="14.00"> &amp;&amp; (curID &gt;= plca_node_count</text>
</g>
<!-- CS_NEXT_TX_OPPORTUNITY&#45;&gt;CS_WAIT_TO -->
<g id="edge27" class="edge">
<title>CS_NEXT_TX_OPPORTUNITY&#45;&gt;CS_WAIT_TO</title>
<path fill="none" stroke="black" d="M777.9,-72.15C779.85,-243.01 788.33,-985.13 790.15,-1144.7"/>
<polygon fill="black" stroke="black" points="786.65,-1144.81 790.27,-1154.76 793.65,-1144.73 786.65,-1144.81"/>
<text text-anchor="middle" x="830" y="-579.8" font-family="Arial" font-size="14.00">T2:</text>
<text text-anchor="middle" x="830" y="-564.8" font-family="Arial" font-size="14.00"> true /* ELSE */</text>
</g>
<!-- CS_YIELD&#45;&gt;CS_EARLY_RECEIVE -->
<g id="edge18" class="edge">
<title>CS_YIELD&#45;&gt;CS_EARLY_RECEIVE</title>
<path fill="none" stroke="black" d="M336.47,-970.61C338.58,-1002.88 345.06,-1067.8 364.5,-1119 448.59,-1340.5 470.08,-1412.76 645.5,-1572 666.51,-1591.07 693.01,-1606.59 718.31,-1618.64"/>
<polygon fill="black" stroke="black" points="717.02,-1621.9 727.57,-1622.92 719.96,-1615.54 717.02,-1621.9"/>
<text text-anchor="middle" x="512" y="-1266.8" font-family="Arial" font-size="14.00">T1:</text>
<text text-anchor="middle" x="512" y="-1251.8" font-family="Arial" font-size="14.00"> CRS </text>
<text text-anchor="middle" x="512" y="-1236.8" font-family="Arial" font-size="14.00"> &amp;&amp; to_timer&#45;&gt;isScheduled()</text>
</g>
<!-- CS_YIELD&#45;&gt;CS_NEXT_TX_OPPORTUNITY -->
<g id="edge19" class="edge">
<title>CS_YIELD&#45;&gt;CS_NEXT_TX_OPPORTUNITY</title>
<path fill="none" stroke="black" d="M329.2,-928.23C317.03,-887.25 291.5,-791.44 291.5,-709 291.5,-709 291.5,-709 291.5,-224 291.5,-153.37 472.55,-99.3 613.64,-67.88"/>
<polygon fill="black" stroke="black" points="614.71,-71.23 623.73,-65.66 613.21,-64.39 614.71,-71.23"/>
<text text-anchor="middle" x="368" y="-462.8" font-family="Arial" font-size="14.00">T2:</text>
<text text-anchor="middle" x="368" y="-447.8" font-family="Arial" font-size="14.00"> !to_timer&#45;&gt;isScheduled()</text>
</g>
<!-- CS_RECEIVE&#45;&gt;CS_NEXT_TX_OPPORTUNITY -->
<g id="edge20" class="edge">
<title>CS_RECEIVE&#45;&gt;CS_NEXT_TX_OPPORTUNITY</title>
<path fill="none" stroke="black" d="M88.14,-1234.33C73.49,-1203.89 48.5,-1144.03 48.5,-1090 48.5,-1090 48.5,-1090 48.5,-224 48.5,-108.08 398.7,-63.02 613.66,-46.27"/>
<polygon fill="black" stroke="black" points="614.09,-49.75 623.79,-45.5 613.55,-42.77 614.09,-49.75"/>
<text text-anchor="middle" x="67" y="-711.8" font-family="Arial" font-size="14.00">T1:</text>
<text text-anchor="middle" x="67" y="-696.8" font-family="Arial" font-size="14.00"> !CRS</text>
</g>
<!-- CS_TRANSMIT&#45;&gt;CS_NEXT_TX_OPPORTUNITY -->
<g id="edge21" class="edge">
<title>CS_TRANSMIT&#45;&gt;CS_NEXT_TX_OPPORTUNITY</title>
<path fill="none" stroke="black" d="M1090.4,-641.75C1059.93,-604.79 1023.3,-556.73 996.5,-510 900.51,-342.61 928.92,-275.15 832.5,-108 827.07,-98.59 820.52,-89.04 813.87,-80.13"/>
<polygon fill="black" stroke="black" points="816.61,-77.96 807.76,-72.15 811.06,-82.21 816.61,-77.96"/>
<text text-anchor="middle" x="989.5" y="-360.8" font-family="Arial" font-size="14.00">T1:</text>
<text text-anchor="middle" x="989.5" y="-345.8" font-family="Arial" font-size="14.00"> !TX_EN </text>
<text text-anchor="middle" x="989.5" y="-330.8" font-family="Arial" font-size="14.00"> &amp;&amp; !CRS </text>
<text text-anchor="middle" x="989.5" y="-315.8" font-family="Arial" font-size="14.00"> &amp;&amp; bc &gt;= max_bc</text>
</g>
<!-- CS_BURST -->
<g id="node14" class="node">
<title>CS_BURST</title>
<polygon fill="lightgrey" stroke="transparent" points="1486.5,-510 1032.5,-510 1032.5,-408 1486.5,-408 1486.5,-510"/>
<polygon fill="none" stroke="#000000" stroke-opacity="0.266667" points="1032.5,-489 1032.5,-510 1486.5,-510 1486.5,-489 1032.5,-489"/>
<text text-anchor="start" x="1170.5" y="-495.8" font-family="Helvetica,Arial,sans-serif" font-size="14.00"> &#160;&#160;&#160;&#160;&#160;&#160;&#160;&#160;&#160;&#160;&#160;&#160;&#160;&#160;&#160;CS_BURST &#160;&#160;&#160;&#160;&#160;&#160;&#160;&#160;&#160;&#160;&#160;</text>
<polygon fill="none" stroke="#000000" stroke-opacity="0.266667" points="1032.5,-408 1032.5,-489 1486.5,-489 1486.5,-408 1032.5,-408"/>
<text text-anchor="start" x="1035.5" y="-474.8" font-family="Helvetica,Arial,sans-serif" font-size="14.00"> &#160;&#160;&#160;&#160;&#160;&#160;&#160;&#160;&#160;&#160;&#160;&#160;&#160;&#160;&#160;bc = bc + 1; </text>
<text text-anchor="start" x="1035.5" y="-459.8" font-family="Helvetica,Arial,sans-serif" font-size="14.00"> &#160;&#160;&#160;&#160;&#160;&#160;&#160;&#160;&#160;&#160;&#160;&#160;&#160;&#160;&#160;tx_cmd = CMD_COMMIT; </text>
<text text-anchor="start" x="1035.5" y="-444.8" font-family="Helvetica,Arial,sans-serif" font-size="14.00"> &#160;&#160;&#160;&#160;&#160;&#160;&#160;&#160;&#160;&#160;&#160;&#160;&#160;&#160;&#160;emit(txCmdSignal, tx_cmd); </text>
<text text-anchor="start" x="1035.5" y="-429.8" font-family="Helvetica,Arial,sans-serif" font-size="14.00"> &#160;&#160;&#160;&#160;&#160;&#160;&#160;&#160;&#160;&#160;&#160;&#160;&#160;&#160;&#160;FSMA_Delay_Action(phy&#45;&gt;startSignalTransmission(COMMIT)); </text>
<text text-anchor="start" x="1035.5" y="-414.8" font-family="Helvetica,Arial,sans-serif" font-size="14.00"> &#160;&#160;&#160;&#160;&#160;&#160;&#160;&#160;&#160;&#160;&#160;&#160;&#160;&#160;&#160;scheduleAfter(burst_interval, burst_timer); &#160;&#160;&#160;&#160;&#160;&#160;&#160;&#160;&#160;&#160;&#160;</text>
</g>
<!-- CS_TRANSMIT&#45;&gt;CS_BURST -->
<g id="edge22" class="edge">
<title>CS_TRANSMIT&#45;&gt;CS_BURST</title>
<path fill="none" stroke="black" d="M1177.07,-641.78C1194.28,-603.83 1215.81,-556.36 1232.54,-519.45"/>
<polygon fill="black" stroke="black" points="1235.75,-520.85 1236.69,-510.3 1229.37,-517.96 1235.75,-520.85"/>
<text text-anchor="middle" x="1271.5" y="-587.3" font-family="Arial" font-size="14.00">T2:</text>
<text text-anchor="middle" x="1271.5" y="-572.3" font-family="Arial" font-size="14.00"> !TX_EN </text>
<text text-anchor="middle" x="1271.5" y="-557.3" font-family="Arial" font-size="14.00"> &amp;&amp; bc &lt; max_bc</text>
</g>
<!-- CS_ABORT&#45;&gt;CS_NEXT_TX_OPPORTUNITY -->
<g id="edge25" class="edge">
<title>CS_ABORT&#45;&gt;CS_NEXT_TX_OPPORTUNITY</title>
<path fill="none" stroke="black" d="M1142.12,-173.95C1091.96,-152.98 1032.6,-128.7 978.5,-108 949.85,-97.04 918.69,-85.73 889.64,-75.45"/>
<polygon fill="black" stroke="black" points="890.47,-72.03 879.87,-72.01 888.14,-78.63 890.47,-72.03"/>
<text text-anchor="middle" x="1066" y="-126.8" font-family="Arial" font-size="14.00">T1:</text>
<text text-anchor="middle" x="1066" y="-111.8" font-family="Arial" font-size="14.00"> !CRS</text>
</g>
<!-- CS_BURST&#45;&gt;CS_TRANSMIT -->
<g id="edge23" class="edge">
<title>CS_BURST&#45;&gt;CS_TRANSMIT</title>
<path fill="none" stroke="black" d="M1156.93,-510.15C1144.74,-520.33 1133.99,-532.23 1126.5,-546 1112.4,-571.91 1113.34,-603.55 1119.37,-631.89"/>
<polygon fill="black" stroke="black" points="1116,-632.84 1121.71,-641.77 1122.81,-631.23 1116,-632.84"/>
<text text-anchor="middle" x="1150.5" y="-579.8" font-family="Arial" font-size="14.00">T1:</text>
<text text-anchor="middle" x="1150.5" y="-564.8" font-family="Arial" font-size="14.00"> TX_EN</text>
</g>
<!-- CS_BURST&#45;&gt;CS_ABORT -->
<g id="edge24" class="edge">
<title>CS_BURST&#45;&gt;CS_ABORT</title>
<path fill="none" stroke="black" d="M1259.5,-407.95C1259.5,-372.39 1259.5,-324.46 1259.5,-286.72"/>
<polygon fill="black" stroke="black" points="1263,-286.37 1259.5,-276.37 1256,-286.37 1263,-286.37"/>
<text text-anchor="middle" x="1356" y="-353.3" font-family="Arial" font-size="14.00">T2:</text>
<text text-anchor="middle" x="1356" y="-338.3" font-family="Arial" font-size="14.00"> !TX_EN) </text>
<text text-anchor="middle" x="1356" y="-323.3" font-family="Arial" font-size="14.00"> &amp;&amp; !burst_timer&#45;&gt;isScheduled()</text>
</g>
</g>
</svg>
